<?xml version="1.0" encoding="utf-8"?>
<!-- Generator: Adobe Illustrator 20.1.0, SVG Export Plug-In . SVG Version: 6.00 Build 0)  -->
<svg version="1.1" id="Layer_1" xmlns="http://www.w3.org/2000/svg" xmlns:xlink="http://www.w3.org/1999/xlink" x="0px" y="0px"
	 viewBox="0 0 700 200" style="enable-background:new 0 0 700 200;" xml:space="preserve">
<style type="text/css">
	.st0{fill:#BE9696;}
</style>
<title>sign2</title>
<g>
	<path class="st0" d="M224.7,119.2c0.7,0.5,1.2,1.3,1.4,2.1c-0.9,0.5-1.6,0.9-2.6,1.4c-4.1,1.9-8.1,3.9-12.2,5.8
		c-1.8,0.9-3.6,1.5-5.5,2.5c-1.9,0.9-4.1,1.9-5.9,2.9c-0.3,0.1-0.9,0.4-1.2,0.3l0.4-2.2c-0.4-0.2-1.1-0.2-1.4,0.3
		c-1.1,0.7-2.1,1.5-3.3,2.4c-0.6,0.5-1.6,1-2.2,1.6c-0.3,0.3-1,0.6-1.4,1c-0.9,0.5-1.2,0.4-1.4-0.4s-0.5-1.6-1-2.6
		c-0.1-0.3-0.1-0.7-0.4-1c-0.6-0.9-0.6-1.7-0.3-2.7c0.5-1.7,0.3-2.1-1.5-2.7c-0.3-0.1-0.9-0.4-1.1-0.6c-0.9-2.1-1.8-4.1-2.7-6.1
		c-0.1-0.3,0-0.7,0-1.1s0.2-0.7,0.3-1.1c0.2-0.2,0-0.7-0.4-1c0,0,0,0-0.1,0c-0.1-0.1-0.3-0.1-0.7-0.2c-0.6-0.1-1.1-0.5-1.2-1.2
		c-0.2-0.7-0.6-1.3-1-1.9c-0.2,0.7,0,1.3,0.4,1.8c0.2,0.4,0.4,1.1,0.5,1.4c-0.2,0.1-0.3,0.2-0.3,0.2c-1.5-0.5-3.4-0.2-4.8,0.9
		c-1.9,1.4-3.3,3.4-3.4,5.7c-0.4,1.7,0,3.5,0.7,5c0.5,1,1.2,1.8,1.8,2.7c1.9,2.2,5.6,3.6,8.9,2.2c0.6-0.4,1.4-0.9,2-1.4
		c0.3-0.2,0.4-0.5,0.6-0.6c0.2,0.5,0.5,0.9,0.7,1.3c0.6,1.3,1.2,2.6,1.7,3.9c0.4,0.9,0.4,1-0.4,1.3c-1.6,1.1-3.3,2.2-4.9,3.2
		c-0.9,0.6-1.5,1.1-2.5,1.6c-0.3,0.2-0.4,0.5-0.2,0.7c0.1,0.2,0.4,0.2,0.7,0.3c0.1,0.1,0.3-0.1,0.5-0.1c2.5-0.7,4.9-1.4,7.4-2.1
		c1.4-0.4,1.5-0.4,2,0.9c0.5,1,0.9,2.1,1.3,3c0.2,0.7,0.1,1-0.5,1.3c-0.9,0.5-1.8,0.9-2.7,1.3c-3.4,1.6-7.1,3.4-10.4,5.1
		c-2.6,1.2-5,2.4-7.4,3.5c-2.4,1.2-4.5,2.1-6.9,3.3c-1,0.5-1.9,1-2.9,1.5c-0.3,0.2-0.9,0.4-1,0c-0.2-0.3-0.2-0.7-0.3-1.2
		c0-0.2,0.2-0.6,0.3-0.9c-0.3-0.1-0.9-0.3-1.1-0.5c-0.1-0.1,0-0.3,0.1-0.6c-1.2-1.1-2.9-4.9-2.7-6.5c-0.2-0.2-0.7-0.2-1-0.3
		c-0.2-0.3-0.3-0.5-0.4-1.1c0-1.3-1.3-2.2-1.5-3.5v-0.1c-0.2-0.3-0.5-0.5-0.1-1c0.3-0.3,0.7,0,1.1,0.2c0.1,0.1,0.3,0.2,0.5,0.3
		c0.5-0.9-0.3-1.2-0.5-1.8c-0.3,0.1-0.4,0.2-0.7,0.2c-0.5,0.3-1.1,0.4-1.4-0.2c-0.6-1.3-1.1-2.6-1.7-4.1c0.4,0.1,1.1,0.3,1.5,0.5
		c0.2,0.1,0.5,0.3,0.3,0.5c0,0.1-0.1,0.1-0.1,0.1c-0.3,0.6-0.1,1,0.3,1.4c0.3,0.4,0.7,0.4,1,0c0.2-0.2,0.2-0.6,0.3-0.9
		c0-0.3,0.4-0.7,0.7-0.7h0.1c1,0.1,1.2,0,0.7-1.1c0-0.2-0.2-0.4-0.4-0.9c0.7-0.1,1.1,0.4,1.5,0.4c0.2-1,0.1-1-0.7-1.1L155,140
		c0-1.1,0.3-1.5,1.5-1.8c0.2-0.6,0-1-0.6-1.3c-0.5,0.7-1.3,0.7-1.9,0.7c-1,0.1-2,0.5-2.8,0.9c-0.2,0-0.4,0.1-0.6,0
		c-0.4-1.1,0.9-1.1,0.9-1.9l-1.9-0.2c1.7-1.1,1.7-1.1,3.7,0.3c0.2-0.4,0.3-1-0.2-1.3c-0.6-0.3-0.6-1-0.6-1.5
		c0.1-0.7-0.1-1.5-0.2-2.2c0-0.2-0.2-0.3-0.5-0.3c-0.9-0.1-1.8-0.2-2.8-0.1l1.4-1.2c-0.3-0.2-0.6-0.5-1.1-0.7
		c-0.2-0.2-0.6-0.2-0.7-0.1c-0.3,0.3-0.7,0.7-1.2,1.1c-0.5,0.7-1,0.7-1.4,0c-0.2-0.4-0.5-0.9-0.6-1.4c1-0.3,1-0.3,1.7,0.4
		c0.4-0.1,0.5-0.5,0.5-1c0-0.9,0.5-1.4,1.4-1.8c1.8-0.9,3.7-1.8,5.6-2.7c1.4-0.6,2.7-1.3,4-2.2c1-0.7,2-1.1,2.8-2
		c0.3-0.3,1-0.6,1.5-0.7c0.9-0.2,1.7-0.4,2-1.4c0.7,0.2,1.4,0.1,1.8-0.4c0.2-0.3,0.9-0.4,1.3-0.5c0.5-0.1,1.3-0.3,1.6-0.9
		c0.1-0.1,0.2-0.1,0.3-0.2c0.7-0.1,1.3-0.6,1.5-1.3c0.3-0.7,1.1-1,1.7-0.9c0.3,0,0.9-0.1,1.2-0.4c0.6-0.4,1.6-0.9,2.4-1.4
		c1.3-0.7,1.4-1.1,0.7-2.4c-1.4-3.1-2.9-6.1-4.5-9.3c-0.2-0.4-0.4-1-0.5-1.3c-0.1-0.7-0.4-1-1.2-1.4l-0.1,0.4
		c-0.9-0.1-1-0.2-0.2-1.3c-0.1-0.3-0.1-0.9-0.7-0.7c-0.4,0-0.6,0.4-1,0.9c-0.2,0.6-0.2,1.2,0.1,1.5c0,0.1,0,0.2,0,0.3
		c0,0.1-0.2,0-0.2,0c-0.7-0.7-1.5-0.3-2.2,0c-0.3,0.2-0.4,0.6-0.6,0.9c-0.3,0.6-0.7,0.7-1.2,0.1c-0.5-0.9-1.1-0.7-1.9-0.6
		c-0.4,0.1-1,0.3-1.4,0.4c-0.7,0.1-1.2,0.5-1.5,1.1c-0.1,0.3,0,0.9,0,1.3h-0.6c-0.1-0.4-0.4-0.9-0.6-1.1s-0.9-0.2-1.3-0.3
		c0.4-0.5,1.2-0.7,1.8-1c0.3-0.1,0.5-0.1,0.9-0.4c1.7-1.3,3.7-2.1,5.7-2.9c1.7-0.9,3.3-1.9,5.1-2.7c1.5-0.7,3.1-1.5,4.6-2.2l6.2-3.2
		l7.9-4.1c2.4-1.3,4.7-2.5,7.2-3.6c1.3-0.7,2.6-1.3,3.9-1.9l8.6-4.1c1.8-0.9,3.7-1.8,5.7-2.7c6.1-3.1,12.4-5.9,18.4-8.9
		c2.4-1.2,4.5-2,6.9-3.2c0.7-0.2,1.2-0.5,1.8-0.9l3.7-1.7c1-0.4,1.5-0.7,2.5-1.2c0.7-0.2,0.7-0.1,1.2,0.5c-1.1,0.4-2.1,0.1-3,1
		l0.4,1.5c-0.7,0.2-0.6-0.4-1-0.4c-0.1,0-0.1-0.1-0.2-0.1c-1.6,0.5-1.6,0.5-1.2,2.2c0.3,1.2,0.7,2.2,1.3,3.1c1.6,3.4,3.2,7,4.8,10.5
		c0.4,1,0.5,1,1.4,0.6c1.3-0.5,2.6-1,3.9-1.6c3.7-1.7,7.2-3.4,10.9-5.4c0.2,0,0.5-0.2,0.6-0.4c0.5-0.3,0.6-0.6,0.5-1.2
		c-0.1-0.4-0.4-0.9-0.5-1.2c-1.1-2-2-4-3-6c-0.5-1.1-0.9-2.1-1.3-3.1c-0.1-0.3-0.2-0.5-0.5-0.9c-0.7-1.2-1.3-2.4-1.3-3.7
		c0-0.4-0.4-1-0.7-1.1l5.1-2.5c1.4-0.6,2.7-1.3,4.2-1.9c0.3-0.2,0.9-0.4,1.2-0.4c0.4-0.1,1-0.4,1.3-0.6c1.3-1,2.7-1.6,4.1-2
		c1.1-0.4,2.1-0.6,3.1-1.2c2.1-0.9,4.2-1.8,6-2.8c2.9-1.5,5.8-2.8,8.8-4.1c0.9-0.4,1.4-0.9,2.2-0.6c-0.9,0.2-0.5,1-0.5,1.5
		c-1.3,0-1.2,1.3-1.6,2.1c-0.6-1-1.7-0.3-2.5-0.5c-0.3,1.5,0,2,1.2,2.5l0,0l-0.3,0.9l-3.3-0.4c-0.1-0.9,0.7-0.7,1.1-1.1
		c-0.6-0.6-0.6-0.6-1.3-0.3c-0.3,0.2-0.9,0.4-1.2,0.1c-0.3-0.1-1-0.1-1.3,0.2l0.6,0.6c-0.1,0-0.1,0.1-0.2,0.1
		c-0.1,0-0.3,0.1-0.4,0.1c-0.9-0.4-1.9-0.3-2.7,0.4c-0.4,0.3-1.2,0.6-1.6,1c-0.2,0.3-0.6,0.4-1.1,0.5c-1.1,0.1-1.3,0.6-0.7,1.6
		c0,0.2,0.2,0.3,0.2,0.5c0.7,1.4,1.5,2.9,2.2,4.3c0.3,0.5,0.5,1.3,0.2,1.9c0.7,0.2,1.2,0.6,1.5,1.4c0.9,1.8,1.8,3.7,2.8,5.5
		c0.5,1,0.7,1.1,1.7,0.6c0.2,0,0.4-0.2,0.5-0.2c1.9-0.9,4.1-1.9,5.9-2.8c2.7-1.3,5.4-2.6,8-3.7l0.3-0.2c0.5-0.3,0.6-0.5,0.4-1.2
		c-0.2-0.5-0.4-1.2-0.7-1.6c-2.2-4.3-4.4-8.6-6.7-12.8c-0.2-0.3-0.2-0.5-0.4-1c1-0.5,1.9-1,2.9-1.5c1.3-0.7,2.7-1.3,4.1-1.9l1-0.4
		c3.6-1.5,7.2-3.1,10.8-4.7c4.2-1.8,8.2-3.9,12.4-5.8c3-1.3,6-2.6,9.1-4c0.6-0.4,1.4-0.9,2-1.4c0.2-0.1,0.3-0.2,0.4-0.3l0.2,0.4
		c1.3-0.6,2.6-1.1,3.9-1.7c1-0.6,2-1.1,3.1-1.3c0.2,0,0.4-0.1,0.5-0.2c2.8-1.4,5.7-2.5,8.5-3.9c2.2-1.1,4.4-2,6.7-2.9
		c0.9-0.4,1.4-0.7,2.2-1.1c0.4-0.1,1.1-0.3,1.5-0.4l0.5,1.3c-0.5,0.7-0.5,0.7-0.1,1.5c0.6,0.9,1.1,1.7,1.3,2.7h-2.2
		c-0.2-0.1-0.6,0-1,0.1c-0.4,0.2-1.1,0.4-1.5,0.4c-0.3-0.1-0.5,0.2-0.6,0.6c-0.1,0.9-0.2,1.8-0.2,2.6c0,0.3-0.1,0.7-0.1,1.1
		c-0.9-0.4-0.6-1.2-0.6-1.7c-0.4-0.2-0.7,0-1,0.3c-0.6,0.9-1.6,1.3-2.7,1.1c-0.3,0-0.7,0-1.1,0.3c-0.5-0.5-1.4-0.7-2.1-0.1
		c0,0,0,0-0.1,0l0.7,0.6c-0.1,0.3-0.4,0.9-0.7,1c-1,0.5-1.1,1-0.5,1.8c0.6,1,1.2,1.9,1.4,3.1c0.4,1.6,1.1,3.2,2,4.5
		c0.2,0.3,0.3,0.5,0.5,1c0.2,0.3,0.2,0.7,0.5,1.1c1-0.4,1.7-0.6,2.6-1.1c1.2-0.5,2.2-1.3,3.3-1.8c0.5-0.2,1.3-0.3,1.7-0.6
		c1.5-0.6,2.9-1.3,4.4-2c1.3-0.6,2.7-1.1,4.1-1.3c1.5-0.3,2.8-0.9,4.1-1.4c3.1-1.4,6.2-3.2,9.5-4.6c2.4-1.1,4.5-2.1,7-3.2
		c1.1-0.5,2.2-0.9,3.2-1.5l0.2,0.5c-1,0.4-1.7,0.6-2.7,1.1c-1,0.4-1.8,0.9-2.7,1.3c-0.9,0.5-1,0.7-0.5,1.5c0.4,1,0.9,1.7,1.3,2.6
		c1.8,3.6,3.4,7.1,5.2,10.5c0.2,0.3,0.4,0.6,0.6,1.1c0.5,0.6,0.7,0.7,1.4,0.3c1.1-0.4,1.9-0.9,2.9-1.4c0.5-0.3,1.3-0.9,1.8-1.4
		l0.6,1.4c-1.8,0.9-3.7,1.7-5.6,2.6c-0.9,0.4-0.9,0.6-0.5,1.3c0.9,1.8,1.7,3.7,2.7,5.7c0.5,1.2,1.3,2.5,1.8,3.7
		c0.9,1.8,1.9,3.9,2.7,5.7c0.4,0.9,0.6,0.9,1.3,0.5c1.8-0.9,3.7-1.8,5.6-2.7l0.2,0.5c-1.6,0.7-3.3,1.6-5,2.5
		c-1.1,0.5-1.2,0.7-0.6,1.9c1.4,2.8,2.8,5.5,4.1,8.3c0.9,1.9,1.8,3.9,2.6,5.8c0,0.1,0,0.2,0.2,0.4c0.5,1,0.6,1.1,1.7,0.9
		c0,0.1,0,0.1,0,0.2c-0.9,1-0.9,1.2-0.1,2.5c1,1.8,1.9,3.9,2.7,5.7c0,0.1,0,0.2,0,0.3c-0.5-0.9-0.7-1.6-1.3-2.4
		c-0.7-1.4-1.3-2.7-2-4.1c-0.5-1-0.6-1.1-1.7-0.6c-2.1,0.9-4.2,1.9-6,2.8c-1,0.5-1.9,0.9-2.9,1.3l-0.1-0.2c0.9-0.4,1.4-0.7,2.2-1.1
		c1.9-0.9,4.1-1.9,6-2.8c1.8-0.9,1.9-1,1.1-2.9c-1.5-3.1-3.1-6.1-4.6-9.3c-0.7-1.5-1.5-3.1-2.2-4.6c-0.5-1.1-0.7-1.2-1.9-0.6
		c-1.1,0.5-2.5,1.2-3.7,1.7l-9.8,4.7c-1,0.5-1.2,0.6-0.6,1.7c0.9,2.1,1.9,4.1,2.9,6c0.6,1.5,1.3,2.9,2,4.4c0.7,1.5,1.4,2.8,1.9,4.2
		c0.5,1.1,0.6,1.2,1.8,0.6c1.1-0.5,2.4-1.2,3.3-1.5c0.2,0,0.3-0.1,0.5-0.1l0.1,0.2c-0.3,0.2-0.5,0.5-1.1,0.6
		c-0.6,0.4-1.5,0.7-2.5,1.2c-1.2,0.5-1.3,0.9-0.7,2c0,0.1,0.1,0.3,0.1,0.5c0,0.1-0.1,0.1-0.1,0.2c-0.1-0.2-0.3-0.3-0.3-0.5
		c-0.1-0.2-0.2-0.4-0.2-0.5c-0.3-0.5-0.6-0.6-1.3-0.5c-0.4,0.1-1,0.4-1.2,0.5L387,77.5c-0.4,0.2-1,0.4-1.3,0
		c0.4-0.2,0.6-0.4,1.1-0.6l6.6-3.2c1.6-0.7,3.2-1.5,4.7-2.2c1.1-0.5,1.2-0.7,0.6-1.8c-1.3-2.6-2.7-5.4-4-7.9l-2.7-5.6
		c0-0.2-0.2-0.4-0.2-0.5c-0.9-1.7-0.9-1.7-2.7-0.9c-2.7,1.3-5.5,2.6-8.1,3.7l-4.2,1.9c-0.2,0-0.3,0.2-0.5,0.2
		c-1.1,0.6-1.3,1-0.6,2.1c1.4,3,2.9,6,4.5,8.9c0.7,1.7,1.6,3.3,2.5,5.1c0.4,1,0.9,1.5,2,1.2c0.1,0,0.1,0.1,0.3,0.1
		c-0.1,0.1-0.2,0.2-0.2,0.3c-0.4,0.3-0.6,1.1-0.3,1.7l0,0c1.9,4.2,3.7,8.2,5.8,12.4c0.4,1,0.7,1.7,1.2,2.7c0.2,0.3,0.3,0.5,0.6,1.1
		c0.2,0.3,0.2,0.5,0.2,0.9c-0.1,0.3-0.1,1,0.3,1.3c0.6,1.2,1.3,2.4,1.4,3.7c-0.5-0.9-1.1-1.7-1.5-2.7c-0.1-0.2-0.2-0.5-0.4-0.6
		c-0.6-1.1-0.7-1.1-1.8-0.5c-4.3,2.2-8.7,4.3-13,6.5c-0.2,0-0.5,0.2-1,0.4c-1.2,0.5-1.2,0.5-1.1,1.9c-0.9-1.1-1-0.9-2.1-0.4
		l-13.7,6.4c-0.2,0-0.4,0.2-0.5,0.2c-1.3,1-2.8,1.6-4.2,1.9c-0.4,0.1-0.9,0.5-1.4,0.6c-0.4,0.1-0.9,0.1-1.3,0
		c-0.3,0.1-0.7-0.1-1.1-0.1c0.1,0.3,0.1,0.7,0.1,1c-0.1,0.2-0.3,0.3-0.5,0.5c-2.6,1.4-5.2,2.6-7.9,3.9l-0.1-0.9
		c-0.2,0.1-0.4,0.3-0.4,0.5c0,0.4-0.4,1-0.9,1c-0.1,0-0.1,0-0.2,0c-0.9,1.1-2.5,1.1-3.7,1.7l0.1-1c-0.1-0.1-0.2-0.2-0.2-0.2
		c-1.3,0.6-2.7,1.2-3.9,1.8c-0.3,0.2-0.4,0.5-0.5,0.7c-0.3,1-1.3,1.6-2.4,1.5c0.3-0.9,1.4-0.7,1.7-1.6c-0.1,0-0.3,0-0.5,0.1
		c-2.6,1.2-4.8,2.2-7.3,3.5c-0.2,0.1-0.5,0.2-0.6,0.4c-0.5,0.3-1,0.4-1.4-0.2c-0.1-0.2-0.3-0.4-0.5-0.9c-0.2-0.5-0.4-1.1-0.6-1.5
		c-0.4-1-0.3-1.2,0.5-1.5c0.7-0.2,1.3-0.6,1.8-0.9c0.2-0.1,0.5-0.2,0.6-0.4c-0.4-1.1-1.4-1.4-2-2c-0.1-0.2-0.5-0.3-0.7-0.5
		c-1-0.3-1.4-1.5-1.1-2.5c0.4-2-0.6-4.1-2.6-5c-0.7-0.3-1.4-0.3-2.2-0.3c-0.4,0-1.1-0.2-1.2-0.6c-0.4-0.6-0.7-1.5-1.2-2.5
		c-0.1-0.7-0.2-1.3-0.1-2c0.1-0.2,0.3-0.6,0.6-0.6c0.5-0.2,1.2-0.5,1.7-0.7c0.4-0.3,1.3-0.3,1.8,0.2c0.5,0.4,1.1,0.5,1.8,0.2
		c0.7-0.2,1.4-0.6,2-1.1c0.5-0.3,0.6-0.6,0.2-1.2c-0.6-0.9-1.4-1.5-2.2-2.1c-1.8-1.3-3.4-2.5-4.9-4c-0.7-0.6-1.7-1.3-2.5-2
		c-0.2-0.2-0.6-0.3-1-0.4c-0.2,2.6,0.1,5-0.3,7.7c-0.4-0.9-0.6-1.4-1.1-2.2c-0.4-0.6-0.7-1.4-1.2-1.9h-0.2c0.2,0.7,0.5,1.4,0.9,2.1
		c1.6,3.3,3.3,6.9,4.7,10.2c0.5,1.1,0.6,2.1,1.1,3.2c0.2,0.5,0.5,1.2,0.7,1.7c0,0.2,0.1,0.4,0,0.6c-1-1.1-1.2-2.7-2.1-3.5
		c-1.4,0.6-2.7,1.3-4.2,1.9c-1.1,0.5-1.2,0.7-0.7,1.9c1.3,2.9,2.7,6,4.1,8.9c0.5,1,0.6,1.1,1.7,0.6c0.5-0.2,1.1-0.5,1.6-0.7
		c0.4-0.1,0.5-0.6,0.4-1.1l0,0c-0.1-0.3-0.2-0.7-0.4-1.1c-0.1-0.4-0.3-1.1-0.5-1.5c-0.1-0.2-0.2-0.5-0.5-0.6c1-0.1,1.5,0.9,2.2,1
		c0.1-0.2,0.1-0.4,0.1-0.7c-0.4-0.9-0.6-1.4-0.7-2.2c-0.1-0.4-0.4-0.9-0.4-1.3h0.2l0.5,0.9c0.4,1,0.7,1.6,1.3,2.5
		c0.5,0.9,0.9,1.7,0.2,2.8c1-0.1,1.4,0.2,1.5,1c1.2,0.7,1.3,2.2,2.1,3.2c0.3,0.4,0.1,1.2-0.3,1.4c-0.1,0-0.1,0-0.2,0
		c-0.5,0.1-1.2,0.1-1.7,0.2c-0.4,0.3-1.1,0.7-1.6,1c-0.9,0.6-1.8,1-2.8,1.1c-0.1,0-0.3,0.2-0.3,0.3c-0.2,0.1-0.4,0.2-0.6,0.4
		c-1,0.4-1.7,0.4-2.5,1.2c-1.3,0-2.2,0.9-3.2,1.5c-1.1,0.5-2.5,1.2-3.6,1.7c-0.9,0.5-1.8,1-2.7,1.4c-3.2,1.5-6.6,3.1-10,4.7
		c-1.7,0.7-3.3,1.6-5.1,2.4c-3.6,1.5-7.1,3.3-10.6,4.8c-0.7,0.2-1.3,0.9-1.8,1.2c-1.9,0.9-4.1,1.7-6,2.6c-0.7,0.2-1.3,0.6-1.9,1
		l-4.2,1.9l-0.3-0.5l1.1-0.6l-0.1-0.2l-3.2,1.5l0.2,0.3l0.2,0.3c-0.4,0.6-1.3,1.1-2.1,0.9v-1l-1.4,0.7l-2.6,1.2
		c-0.7,0.2-1.2,0.5-1.3,1.5c-0.1,0.2-0.2,0.6-0.4,0.7c-0.9,0.6-1.6,1-2.6,1.5c-0.7,0.2-1.4,0.6-2.1,0.7c-0.3,0.1-0.7,0-1-0.1
		c-0.3-0.1-0.2-0.5-0.1-0.9c0.1-0.2,0.1-0.6-0.1-1c-0.2-0.5-0.5-1.2-0.7-1.7c-0.6-1.3-0.6-1.3,0.5-2.2c0.2-0.1,0.4-0.3,0.6-0.5
		c1.7-1.5,2.5-3.9,1.7-6c-0.5-2.6-2.6-4.4-5-4.9c-0.9-0.1-1.9-0.2-2.7,0.2c-1.3,0.3-1.3,0.3-1.8-0.7c-1.9-3.9-3.5-7.5-5.5-11.3
		c0-0.2-0.2-0.5-0.2-0.7c0.9-0.5,1.6-0.7,2.6-1.2c1-0.4,1.1-0.3,1.4,0.4c1.2,2.4,2.1,4.5,3.3,6.9c0.7,1.5,0.7,1.6,2.2,0.9
		c0.5-0.2,1.2-0.6,1.8-1c-0.4-1-0.5-1.5-0.7-2.2c-0.9-2.1-1.9-4.1-2.8-6c-0.5-1.1-0.4-1.3,0.5-1.7c0.5-0.2,1.1-0.5,1.6-0.7
		c0.5-0.2,0.5-0.5,0.3-1.3c-0.4-0.9-0.6-0.9-1.2-0.6c-0.4,0.1-0.9,0.4-1.2,0.5l-7.4,3.6l-1.1,0.5c-0.2-0.3-0.3-0.5-0.6-1
		c-0.4-0.9-0.7-1.5-1.2-2.4c-0.4-1.1-0.3-1.3,0.7-1.8l8.7-4.1c0.2,0,0.4-0.2,0.5-0.5c-1.5,0.6-3,1.3-4.5,2s-3.1,1.4-4.6,2
		c0.5-1.2,1.6-1.3,2.1-2l-1.3,0.6c-0.5,0.2-1,0.5-1.5,0.7c-1,0.4-1.1,0.1-1.4-0.5c-0.7-1.4-1.4-2.8-1.9-4.2c-0.4-1-0.3-1.2,0.5-1.4
		c1.6-0.7,3.3-1.6,5-2.5l18.7-9.2c3.4-1.6,7.1-3.3,10.4-5.1c0.2,0,0.3-0.2,0.5-0.2c0-0.7-0.4-1.5-0.7-2.1c-0.3,0.1-0.7,0.1-1.2,0.4
		l-13.8,6.5c-1.6,0.7-3.2,1.6-5,2.4c-1.4,0.6-2.9,1.4-4.3,2.2c-1.5,0.7-3,1.5-4.5,2.1c-0.3,0.2-0.6,0.4-1.2,0
		c-0.1-0.1-0.3-0.1-0.5,0.1c-0.1,0.1-0.1,0.1-0.1,0.2c0,0.4-0.3,0.7-0.6,0.7c-1.3,0.7-2.6,1.3-3.9,2c-0.9,0.4-1.1,0.3-1.4-0.4
		c-0.7-1.5-1.4-3-2.1-4.5c-0.2-0.7-0.1-1,0.5-1.3c0.2-0.1,0.4-0.2,0.5-0.2c0.5-0.3,0.6-0.5,0.4-1.3c-0.6-1.3-1.2-2.7-1.9-4
		c-0.4-0.6-0.5-1.6-0.4-2.6c0.3-3.2,0.7-6.3,1-9.6c0.1-0.2,0-0.4,0.1-0.7c-1.3-0.3-2.6,0.5-2.8,1.8c0,0.1-0.1,0.1-0.1,0.2
		c-0.3,1.9-0.4,3.7-0.6,5.7c0,0.3-0.2,0.7-0.2,1.2l-2.5-1.5c0,0.3,0,0.7,0.1,1c1.5,3.7,3.2,7.3,5,10.9c0.5,1,0.9,1.9,1.4,2.8
		C224.9,118.5,225.2,118.9,224.7,119.2c-0.4-0.6-0.9-1.5-1.3-2.2c-1.7-3.6-3.3-7.3-5-10.9c0-0.2-0.2-0.4-0.1-0.4
		c0.2-0.4,0-0.6-0.2-0.9c-0.1-0.2-0.3-0.4-0.5-0.9c-0.6-1.3-1.2-2.7-1.8-3.9c-0.2-0.3-0.2-0.7-0.5-1H215l1.2,3
		c-0.7-0.2-1.3-0.5-1.9-0.9s-1.2-0.4-1.9-0.2c-1,0.5-1.9,0.9-2.9,1.4c-0.3,0.2-0.6,0.4-1.1,0.7c0.3,0.2,0.5,0.4,0.9,0.7
		c2.1,1.3,4.4,2.9,6.5,4.3c2.7,1.8,2.1,1,3.4,4c0.5,0.9,0.7,1.7,1.2,2.7c0.2,0.4,0.4,1,1,0.6c0.7,0,1.1,0.3,1.3,1
		c0.4,1.1,0.7,1.8,1.3,2.8c0.1,0.2,0.2,0.4,0.3,0.5h0.2L224.7,119.2z M279.8,138.8l-0.3-0.3l-0.1,0.1L279.8,138.8
		c-0.2,1.1,0.3,1.7,0.5,2.7c0,0.2,0.1,0.7,0,0.7c-0.2,0.1-0.5,0.1-0.9,0.1c-0.9-0.1-1.7-0.6-1.9-1.6l-2.5-5.1l-0.5-1.1
		c-1,0.1-2,0.5-2.7,1.1c-0.6,0.4-0.9,0.6-0.4,1.4c0.6,1.3,1.2,2.7,1.8,4c0.4,1,0.7,1.5,1.3,2.4c1,1.9,2.9,2.5,4.8,2.7
		c1.3,0,1.3,0,1.8,1.3c0,0.1,0.1,0.1,0.1,0.2h1.2l0.6,0.3l0.1-0.2l-0.6-0.1c-0.9-0.7-1.2-1.8-0.9-2.8c0.4-0.9,0.2-1.9-0.6-2.4
		c-0.1-0.1-0.1-0.3-0.1-0.5h0.2l1.2,1.8c1-0.3,2,0,2.7,0.9c0.6,0.3,0.6,1.2,0.3,1.7c-0.1,0.1-0.2,0.1-0.2,0.3
		c-0.2,0.1-0.3,0.5-0.5,0.6c-0.3,0.7-0.2,1.6,0.3,2.1c0,0,0.2,0,0.4-0.1c-0.2-0.3-0.2-0.7-0.4-1.1c-0.1-0.3,0-0.6,0.1-0.9
		c0.4-0.3,1.1-0.7,1.5-1.1c0-0.1,0-0.2-0.1-0.3c0.2-0.6,0-1.3-0.5-1.5c-0.1-0.1-0.2-0.3-0.2-0.4c0.2-0.7-0.2-0.9-0.5-1.2
		c-0.4-0.2-0.6-0.6-0.5-1.2c0.2-1.1,0-2-0.2-2.8c-0.6-1.7-1.5-3.5-2.4-5.1c-0.2-0.5-0.5-1-0.9-1.5c-0.2,0-0.5,0.1-0.9,0.2
		c-1.1,0.4-1.1,0.6-0.6,1.7c0.6,1.3,1.2,2.7,1.8,4c0.2,0.5,0.5,1.1,0.6,1.6c0.2,0.7,0,1.3-0.4,1.8c-1.6-2.8-2.6-5.8-4.2-8.6
		c-0.2,0.4-0.4,0.9-0.5,1.2c-0.2,0.2-0.1,0.6,0.4,0.6c0.2,0.1,0.4,0.1,0.9,0.3C278.9,136.1,279.4,137.5,279.8,138.8
		C279.8,138.7,279.8,138.8,279.8,138.8L279.8,138.8z M219.3,76.2c-0.3-0.2-0.7-0.6-1.1-0.9c-0.1-0.1-0.3,0-0.7-0.1
		C218,76,218.4,76.5,219.3,76.2c-0.1,1-0.2,1.1-1.2,1.1c-0.9,0.1-1.6-0.1-2.1,0.9l-0.7-0.4c-0.5,1.2-0.6,1.4-2.5,1.1
		c0.4,1-0.3,1.2-0.9,1.5l0.4,1l-1.3-0.2l-0.4-1l-1.1,0.5c-0.1-0.3-0.1-0.7,0-0.7c0.5-0.2,1-0.5,1.5-0.7c-0.6-0.4-1.3-0.4-1.9,0.1
		c-0.3,0.2-0.4,0.6-0.3,1.1c0.1,0.4,0.4,1.1,0.5,1.4c0.3,1,0.6,1.7,1.2,2.7c0.9,1.7,1.6,3.4,2.4,5.2c0.4,1.1,0.9,1.9,1.4,2.8
		c0.4,0.6,0.6,0.9,1.3,0.5c1.3-0.6,2.6-1.2,3.9-1.8c2.2-1.1,4.4-2.2,6.6-3.3c1.5-0.7,3-1.3,4.5-2c0.9-0.4,1-0.6,0.6-1.4
		c-0.1-0.5-0.4-1.2-0.6-1.6c-0.9-1.8-1.7-3.6-2.6-5.5c-0.7-1.6-1.6-3.3-2.5-5c-0.5-0.9-0.9-0.7-1.3,0c0.9,0.3,0.9,0.3,1,1.1
		l-1.5-0.1l0.3,1.6c-0.9,0.2-1.5,0.4-2.1,0.5c-0.2-0.1-0.4-0.1-0.7-0.3c-0.5-0.4-0.9-1.1-1.4-1.4c-0.5-0.3-1.1-0.4-1.5-0.1l1.3,1.7
		L219.3,76.2z M308.7,31.6c0-1.4-0.3-1.5-1.5-1c-0.1,0-0.3,0.2-0.4,0.2C307.3,31.6,308.1,31.3,308.7,31.6c0.1,0.5-0.5,0.7-0.7,1.2
		c0.1,0.3,0.6,0.6,0.1,0.9c-0.4,0.1-1,0-1.3-0.4c-0.5-0.4-0.5-0.4-1.1-0.1l0.6,1.4c-1,0.1-1.8-0.4-2.1-1.2l0.7-0.2
		c-0.9-0.7-2-0.5-3.5,0.7c0,0.1,0,0.1,0,0.2c0.5,0.9,0.4,1.1-0.5,1.1c-1,0.1-1.5,0.3-2.4,0.4c0,0.3,0,0.7,0.1,1.1
		c0.6,1.4,1.2,2.7,1.9,4.2c1.2,2.5,2.2,4.6,3.5,7c0.2,0.5,0.5,1.1,0.9,1.6c0.6,1,0.7,1,1.7,0.5c1.5-0.6,3.1-1.2,4.5-1.8
		c2.9-1.3,6-2.7,8.9-4c1.8-0.9,1.9-1,1-3c-1.4-3.1-3.1-6.2-4.6-9.4c-0.5-0.9-1.1-1.7-1.6-2.6c-0.1-0.2-0.6-0.3-0.9-0.3
		c-0.3,0-0.7,0.2-0.5,0.6c0,0,0,0,0,0.1c0.3,0.1,1.2,0,1.2,0.6c0,0.3-0.4,0.9-0.7,0.9l-0.6-0.9c-0.4,0.5-0.5,1.3-1.4,1.2v1.1
		c-0.9,0.2-1.8-0.2-2.1-0.9l-0.1,1.4l-0.2-0.1c-0.1-0.3,0-0.6-0.1-1C309.2,31.7,309.2,31.4,308.7,31.6L308.7,31.6z M231,69.6
		c-0.3,0.2-0.7,0.2-1.1,0.5c-0.1,0-0.1-0.1-0.2-0.2l0.2-1l-1-0.5c-0.2,1,0.3,1.7-0.4,2.5c-0.3-0.3-0.7-0.7-1.1-1.2
		c-0.4-0.2-1-0.4-1.6-0.6c-0.1,0.1,0,0.3,0,0.6c0.4,1.1,0.7,1.8,1.2,2.9c0.5,1.2,1.3,2.4,1.8,3.6c0.5,1.1,0.9,2.1,1.4,3.1
		c0.6,1.3,1.2,2.7,1.9,4.1c0.6,1.1,1.1,1.2,2.1,0.6l10-4.6c1.5-0.6,2.9-1.3,4.4-2c1-0.4,1.1-0.7,0.6-1.7c0-0.1,0-0.2-0.2-0.4
		c-1.6-3.4-3.3-7-4.9-10.4c-0.2-0.4-0.5-0.6-0.9-1.2c0.1-0.7-0.2-1.5-0.6-2.1l-1.3,0.5l0.6,0.9c-0.3,0-0.4-0.1-0.7-0.2
		c-0.7-0.5-1.7-0.3-2.4-0.4c-0.3,0.1-0.7,0.2-1,0.7c-0.2,0.2-0.2,0.6-0.3,1c-0.1,0.3-0.3,0.9-1,0.9c-0.1-0.3,0.5-0.9-0.1-1.1
		c-0.2-0.2-0.7-0.2-1,0c-0.6,0.5-1.5,0.9-2.4,1.1c-0.1,0-0.3,0.2-0.4,0.2c0.2,0.2,0.6,0.2,1,0.2c0.4-0.1,1,0,1.3,0.4
		c0.3,0.4,0,0.9-0.1,1.4c-0.2,0.2-0.2,0.4-0.4,0.6c-0.5,0.5-0.5,0.5-0.3,1.2c-1.1-0.2-1.1-1.2-1.8-2C231.7,67.8,231.3,68.7,231,69.6
		L231,69.6z M190.4,87.1c0.1,0.3,0.1,0.7,0.3,1.1c1.2,3.1,2.5,6.2,3.6,9.3c0.5,1.3,1.2,2.6,1.8,3.9c0.2,0.4,0.2,0.9-0.2,1.1
		s-0.9-0.2-0.9-0.5c-0.1-0.3-0.3-1.1-0.5-1.5c-1.3-2.9-2.8-5.9-4.2-8.9c-0.5-1.2-1.1-1.4-2.2-0.7c-0.9,0.5-1.6,0.7-2.4,1.4
		c-0.6,0.4-1.6,0.6-2.7,0.5c-0.1,0-0.3,0.1-0.4,0.1l-0.2,1.5l-0.2,0.2c-0.4-1.1-1.1-0.7-1.8-0.6c-0.5,0.1-1.2,0-1.7-0.3
		c-0.1-0.1-0.2-0.1-0.4-0.1c0.3,0.4,0.6,0.9,0.9,1.3c0,0.1-0.1,0.2-0.1,0.3l-0.7-0.3l-1.2,0.9c0-0.1,0-0.2-0.1-0.3
		c0.1-0.2,0.2-0.6,0-0.6c-0.1-0.1-0.4,0.2-0.4,0.3c-0.2,0.4-0.3,1-0.6,1.4c-1.5,0.3-2.5-1.1-4-1.4c0,0.2,0,0.4,0,0.7
		c0.4,1.3,1.1,2.4,1.5,3.5c0.9,1.9,1.7,3.9,2.6,5.8c0.5,0.9,0.7,1.7,1.2,2.7c0.3,1,0.5,1.6,1.2,2.6c0.2,0.4,0.6,1,0.9,1.4
		c2.4-1.3,4.5-2.2,6.9-3.4c1.4-0.7,2.7-1.3,4.2-1.9c0.2,0,0.4-0.1,0.5-0.1c0.4,0,1.1-0.1,1.3-0.5c1.1-0.7,2.2-1.3,3.5-1.5
		c0.4-0.1,1.1-0.4,1.3-0.7c0.5-0.6,1.2-1.1,1.9-1.4c0.7-0.2,1.4,0,1.8-0.9c0.1-0.1,0.3-0.1,0.4-0.1c0.4,0.1,0.9-0.1,1.2-0.4
		c0.4-0.3,1.2-0.7,1.6-1.1c1.4-0.7,2.8-1.4,4.2-1.9c0.2-0.1,0.4-0.2,0.5-0.3l2.5-1.4c0.4-0.2,0.9-0.5,1.3-0.7c1-0.7,1.1-0.7,0.5-1.8
		c-1.7-3.6-3.5-7.1-5.2-10.8c-0.3-0.5-1-1.4-1.5-1.8l-0.7,1.2c-0.4,0.1-1.1-0.1-1.2,0c-0.4,0.6-1.3,1-1.9,1l1.3,0.6
		c-0.2,0.1-0.5,0.2-1,0.4c-0.4,0-0.9-0.1-1.4-0.1c-0.4,0-0.7-0.1-1.1,0c-0.4,0.2,0,0.6,0.1,1c0,0-0.1,0.1,0,0.3l-2-0.6
		c-0.2,0.2-0.4,0.6-0.6,1.1c-0.9,1.3-0.9,1.3-2,0.3c-0.5,0.1-1,0.5-1.1,1.1c-0.1,0.4-0.1,1.1-0.1,1.8c-1.4-0.7-1.4-0.6-3.1-0.4
		C191.4,87.3,190.8,87.2,190.4,87.1L190.4,87.1z M404,39L404,39c-1.3-2.2-2.4-4.6-3.6-6.9c-0.7-1.4-0.9-1.5-2.2-0.7
		c-1,0.5-2.1,0.9-3,1.4c-3.1,1.4-6.4,2.8-9.5,4.3c-2.1,0.9-2.1,0.7-0.9,2.9c1.5,2.5,2.5,5.1,3.9,7.5c1.1,2,1.9,4.2,2.9,6.1
		c0.4,1,0.6,0.9,1.4,0.4c0.2,0,0.4-0.2,0.7-0.2c1.5-0.7,3-1.4,4.5-2.1c2.8-1.4,5.7-2.6,8.3-3.9c1.2-0.5,1.4-0.9,0.7-2
		C406.5,43.8,405.2,41.4,404,39z M278.1,43.8l-0.7,1.4c-1.6-0.6-2.2,0.3-2.9,1.4l-0.6-0.9c-0.1,0.3-0.3,0.6-0.6,0.6s-0.5,0.5-1,0.5
		c-2,0.3-3.4,1.8-5.2,2h-0.1c-1,0.7-1.8,1.3-3,1.6c-0.1,0-0.2,0-0.4,0.2l-1.5,1c0.4,1.2,0.9,2.4,1.4,3.3c1.2,2.5,2.5,4.7,3.5,7.1
		c0.5,1.2,1.3,2.5,1.9,3.6c0.5,0.9,0.7,1.1,1.7,0.6c1.1-0.4,2.1-0.7,3-1.3c2.6-1.2,5-2.1,7.5-3.3c1.3-0.6,2.7-1.2,3.9-1.8
		c1.2-0.5,1.4-1,0.7-2.1l-0.2-0.4c-1.9-4-3.9-7.9-5.9-11.6c-0.2-0.5-0.5-1.1-0.7-1.5C278.6,44.2,278.5,43.9,278.1,43.8L278.1,43.8z
		 M383.1,38.5c-0.2,0-0.4,0.1-0.5,0.1c-2.6,1.2-5,2.1-7.5,3.3c-1.9,0.9-3.9,1.8-5.7,2.7c-1.4,0.7-1.6,1.3-0.9,2.5
		c1.4,3,2.8,5.9,4.2,9.1c0.7,1.5,1.6,3.1,2.6,4.6c0.5,0.9,0.9,1,1.8,0.6c0.5-0.1,1.2-0.4,1.6-0.6c3.6-1.7,7.3-3.4,10.9-5.1
		c1.9-0.9,2.1-0.6,1.1-3c-2.1-4.6-4.5-9.2-6.9-13.8C383.3,38.8,383.2,38.6,383.1,38.5L383.1,38.5z M374.2,21.4
		c-1.3,0.6-2.8,1.1-4.2,1.7c-1.9,0.9-4.1,1.7-6,2.6c-1.4,0.6-2.9,1.4-4.3,2.1c-0.4,0.2-0.6,0.5-0.5,1c0.4,1.3,0.9,2.4,1.4,3.5
		c0.4,0.9,0.7,1.5,1.3,2.2c1.5,2.8,2.9,5.7,4.4,8.5c0.2,0.7,0.6,0.9,1.4,0.7c0.7-0.1,1.4-0.4,2-0.5c3.3-1.5,6.6-3,10-4.6
		c0.5-0.2,1.1-0.5,1.6-0.7c0.9-0.5,1.1-0.9,0.5-1.7c-1.3-2.7-2.8-5.4-4.1-8.1c-0.7-1.4-1.7-2.8-1.8-4.4c0-0.1,0-0.2-0.2-0.3
		C375.5,22.7,375,22.1,374.2,21.4L374.2,21.4z M393.7,18.6h-0.2c-0.5-0.9-0.7-1.7-1.3-2.6c-0.2-0.4-0.4-1-0.6-1.3
		c-0.5-0.9-0.6-1-1.4-0.5c-1.2,0.5-2.6,1.1-3.7,1.5c-2.4,1.2-4.5,2.1-6.9,3.3c-1,0.5-1.9,0.9-2.9,1.4c-0.4,0.1-0.7,0.7-0.6,1.2
		c0,0,0,0,0,0.1c0.1,0.5,0.3,1.2,0.6,1.7c0.7,1.6,1.6,3.2,2.6,5c1.3,2.4,2.5,4.8,3.5,7.2c0.5,1.2,1,1.4,2.1,0.7l0.4-0.2l9.6-4.6
		c1-0.5,1.9-0.7,2.8-1.4c1-0.5,1.2-0.9,0.6-1.9c-0.5-0.9-0.9-1.6-1.4-2.5C396.1,23.4,394.9,21.1,393.7,18.6z M320,25.8
		c-0.2,0.2-0.2,0.6-0.3,0.7c-0.5,0.9-0.9,1.9-1.9,2.4c-0.5,0.1-0.7,0.9-0.6,1.3v0.1c0.2,0.3,0.3,0.5,0.6,1c0.2,0.3,0.6,0.6,0.6,1
		c0.1,0.7,0.4,1.4,0.7,1.9c0.1,0.3,0.4,0.9,0.5,1.1c0.4,1.1,0.7,2.1,1.3,3c0.5,1.2,1.3,2.2,1.9,3.2c0.5,0.9,0.7,1,1.7,0.6
		c0.5-0.2,1.1-0.5,1.6-0.6l7.3-3.4c1.7-0.7,3.5-1.5,5.2-2.4c1-0.4,1.1-0.9,0.6-1.8c-0.1-0.3-0.4-0.9-0.5-1.1
		c-1.5-2.9-2.9-5.7-4.6-8.6c-0.7-1.4-1.5-2.9-2.2-4.3c-0.1-0.2-0.3-0.2-0.5-0.4c-0.3,0.9,0.1,1.2,0.4,1.7c0.3,0.3,0.5,0.9,0.3,1.3
		c-0.2,0.6-0.3,1.2-0.5,1.8c-0.1,0-0.1,0-0.2,0c-0.9,0.2-1.5,0.9-1.6,1.7c-0.2,0.9-0.7,1.3-1.5,1.4c-0.3-1.1-0.9-1.8-1.8-2.2
		l-1.1,0.6c-0.1-0.4-0.5-0.9-0.9-1.3c-0.3-0.2-0.6-1-1.3-0.5c0.5,1,0.7,1.9,0.9,3L320,25.8z M337.1,23.5l0.4-2l-2.1,0.2
		c0.1,0.7,0.2,1.3,0.3,1.9c0,0.7,0.3,1.1,1,0.9c-0.3,0.7-0.1,1.5,0.3,2.1c0.1,0.2,0.2,0.5,0.4,1c0.9,1.8,1.7,3.7,2.7,5.6
		c0.7,1.3,1.4,1.4,2.8,0.7c1.6-0.6,3.2-1.5,5-2.1c2.2-0.9,4.4-1.8,6.5-2.7c0.4-0.2,0.9-0.5,1.3-0.7c1-0.6,0.7-1,0.4-1.7
		c-2.2-4.4-4.5-8.8-6.7-13.2c-0.2-0.4-0.4-0.6-0.6-1.2c-0.2-0.4-0.5-0.3-0.9,0.2c0.2,0.2,0.5,0.4,0.6,0.6c0.4,0.6,0.6,1.4,0.9,2.2
		c0,0.2,0.1,0.3,0.1,0.4c-0.4,0.9,0,1.3,0.6,1.7c0.1,0.2,0.2,0.3,0.2,0.5c-0.6-0.2-0.7-0.6-1.1-0.5c-0.3,0.1-0.7,0.1-1,0.5
		c-0.7-0.7-1.8-0.3-2.6-0.5c-0.1,0.6,0.2,0.9,0.5,1c0.2,0.2,0.6,0.4,0.6,0.9c-0.1,0.3-0.5,0.7-1,0.7c-0.1,0-0.2,0-0.3,0.1l0.2-1
		c-1.1-0.1-2,0.6-2.1,1.7c-0.4,0.3-1,0.7-1.5,1c-0.3,0.2-0.7,0.2-1.1,0.3c-0.9-0.2-1.5,0.3-1.7,0.9C339.1,23.7,338,24.2,337.1,23.5z
		 M276.8,80.3L276.8,80.3c1.1,2.2,2.1,4.4,3.2,6.6c0.5,1.1,0.6,1.2,1.9,0.6c2.9-1.4,5.8-2.6,8.7-4.1c2.6-1.3,3.7-4.4,2.4-7.1
		c-0.2-0.4-0.5-0.9-0.9-1.3c-0.6-0.9-1.6-1.4-2.6-1.7c-0.4-0.1-0.9-0.4-0.7-1.1c0.1-1.2-0.4-2.5-1.4-3.2c-1.2-1.4-3.2-1.6-4.8-0.9
		c-1.1,0.5-2.2,1.1-3.2,1.5c-1.6,0.7-3.3,1.5-5,2.4c-1,0.5-1.1,0.6-0.5,1.5C274.7,75.7,275.8,77.9,276.8,80.3z M309.8,74.2
		c0.3-0.6,0.5-1.2,0.4-1.8c-0.3-5-0.6-10-0.9-15c0.1-0.2,0-0.4,0-0.7c-0.1-0.2-0.3-0.2-0.6-0.3c-1,0-1.7,0.6-1.8,1.7
		c0,0.1,0,0.1,0,0.2c0,1.9,0.1,3.7,0.2,5.6c0,0.3,0,0.9-0.1,1.4c-0.4-0.2-0.6-0.4-0.9-0.6c-1.6-1.4-3.2-2.8-4.7-4.2
		c-0.3-0.2-0.6-0.4-1.1-0.6l-0.2,0.1c0,1.3,0.2,2.7,0.2,4.1c0,1.3,0.3,2.7,0,4.3c-0.2-0.1-0.4-0.2-0.7-0.4c-1.7-1.4-3.3-3-5-4.3
		c-0.3-0.4-1.1-0.5-1.7-0.3c-0.6,0.2-1.1,0.5-1.5,0.7c-0.6,0.4-0.9,0.6-0.5,1.3c0.6,1.6,1.4,3.3,3.1,4.4c0.1,0.1,0.2,0.2,0.3,0.2
		c2.7,2.4,5.4,4.6,8,7.1c0.2,0.2,0.6,0.3,0.9,0.5c0.1-3-0.2-5.7-0.1-8.6c0.2,0.2,0.6,0.3,0.9,0.6c1.5,1.4,2.9,2.5,4.3,3.9
		C308.8,73.6,309.3,73.9,309.8,74.2L309.8,74.2z M258.5,85.3c0.2,0.4,0.4,0.6,0.6,1.2c0.5,1.1,1.1,2.2,1.5,3.2c1.1,2,3.1,3.5,5.4,4
		c4,0.7,7.6-1.8,8.5-5.6c0.3-1.3,0.1-2.6-0.2-4c-0.5-1.3-1.1-2.7-1.8-4c-0.7-1.6-1.6-3.3-2.5-5c-0.2-0.3-0.4-0.6-0.6-0.6
		c-0.5,0.1-1.3,0.3-1.7,0.6c-0.3,0.3,0,0.9,0,1.2c0.6,1.4,1.3,2.7,1.9,4.2c0.7,1.4,1.4,2.8,1.9,4.2c0.7,1.6-0.5,3.5-1.8,4.2
		c-1.5,0.6-3.3,0-4.2-1.5c-0.4-0.6-0.9-1.5-1.3-2.4c-1-1.9-1.9-4.1-2.9-5.9c-0.5-1-0.5-1-1.4-0.5c-0.7,0.2-1.3,0.6-1.9,0.9
		c-1,0.5-1.8,1.3-2.6,2.1c-0.3,0.5-0.6,0.9-1.3,0.9c-0.1,0-0.3,0.2-0.4,0.3c-0.2,0.1-0.2,0.3-0.3,0.3c-0.4,0.1-0.4,0.3-0.5,0.7
		c0,0.9,0.6,1.5,1.4,1.5c0.2,0,0.3,0,0.5-0.1c0.1,0,0.3-0.2,0.3-0.3l0.9,2.2L258.5,85.3z M318.5,74.9c-1,0.7-0.6,1.6-0.5,2.5
		l1.2,0.3l-1.2,0.5l-7.1,3.3l-9.1,4.2c-0.2,0-0.3,0.2-0.4,0.2c-0.1,0.1-0.2,0.3-0.2,0.6c0.4,1.1,0.9,1.9,1.5,2.9
		c-0.3-1.3-0.3-1.3,0.7-1.7c1.3-0.6,2.7-1.2,4.1-1.8c4.4-2.1,8.9-4.2,13.3-6.5c2.5-1.4,5.2-2,7.9-2c0.7,0.1,1.4-0.2,2-0.4
		c2.4-1.2,4.4-2.1,6.7-3.2c0.7-0.2,0.6-0.5,0.4-1.2c-0.4-1-0.7-1.7-1.3-2.7c-0.4-0.9-0.6-1.4-1.2-1.9c-0.3,0.1-0.7,0.1-1.1,0.4
		c-1.7,0.7-3.4,1.6-5.1,2.4c-1,0.4-1.7,0.9-2.5,1.6c-0.7,0.9-1.6,1.5-2.2,2.4c-1.3,1.5-2.9,1.8-4.6,2.6l-0.2-0.9c0.2,0,0.4,0,0.7,0
		c0.2,0,0.2-0.3,0.3-0.5c-0.1-0.2-0.3-0.3-0.6-0.3c-0.2-0.1-0.6,0-0.9,0.2c-0.3-1.6-0.5-1.8-0.9-1.7c-0.4,0.1-0.9,0.4-1.2,0.5v0.2
		L318.5,74.9z M244.7,101.6c3.1,1,6.3,0.6,9.2-0.7c1.6-0.9,2.9-2.4,3.5-4.2c0.4-1.1,0.5-2.4,0-3.4c-0.4-0.6-0.9-1.5-1.4-2
		c-0.5-0.6-1.4-1.3-2.2-1.5c-1.3-0.4-2.5-0.4-3.7-0.2c-1.1,0.3-2.1,0.2-3.2-0.1c-0.7-0.2-1.1-0.7-0.9-1.5c0.1-0.2,0.2-0.6,0.4-0.7
		c0.3-0.3,0.9-0.6,1.3-0.6c1.2-0.1,2.2-0.2,3.5-0.4c0.1-0.4,0.1-1,0.1-1.4c0-0.9-0.1-1-1-0.9c-2.1-0.1-4.3,0.3-6,1.3
		c-1.7,0.7-2.9,2.6-3.1,4.5c-0.1,0.6,0,1.3,0.3,2c0.6,1.7,2.4,3,4.4,3.2c1.3,0.2,2.5,0,3.6,0c0.9-0.1,1.5-0.1,2.4,0.1
		c0.9,0.1,1.5,1,1.4,1.7c-0.1,0.2-0.1,0.4-0.2,0.7c-0.4,0.9-1,1.5-2,1.6c-1.5,0.2-3.1,0.2-4.7,0.3c-1.3,0-1.5,0.2-1.7,1.6
		C244.7,100.9,244.8,101.3,244.7,101.6L244.7,101.6z M315.7,52.6l-0.3,0.2c0,0.3-0.1,0.7-0.1,1c-0.1,0.7,0,1.4,0.1,2.1
		c0,4.7,0.1,9.4,0,14.1c0,0.3,0,0.7,0,1.1c2-0.2,2.5-0.6,2.5-2.4v-0.1c0-0.6,0.3-1.2,0.9-1.3c1-0.4,1.7-0.7,2.6-1.3
		c1.2-0.6,2.2-0.6,3.2,0.2c0.3,0.2,0.9,0.4,1.2,0.2c1.1-0.5,2.4-1.2,3.3-1.6c0.9-0.5,0.7-0.9,0.1-1.4c-1.2-1.2-2.7-2.2-4-3.3
		c-2.9-2.4-5.8-4.6-8.9-7C316.4,53,316.2,52.9,315.7,52.6L315.7,52.6z M331.1,122L331.1,122c1-0.5,1.8-0.9,2.8-1.4
		c0.2-0.1,0.5-0.2,0.6-0.5c1.8-1.4,2.4-4,1.1-5.8c-0.3-0.3-0.7-1-1.1-1.2c-0.7-0.3-1.1-0.9-1.1-1.6c-0.1-1-0.6-1.7-1.6-2.2
		c-1.2-0.6-2.5-0.7-3.6,0c-1.2,0.5-2.4,1.2-3.3,1.6c-0.5,0.2-1.2,0.5-1.7,0.9c-0.9,0.6-1,0.7-0.5,1.5c1.4,3.1,2.9,6.2,4.5,9.3
		c0.4,1,0.6,1,1.4,0.5C329.2,122.9,330.2,122.4,331.1,122L331.1,122z M287,136.5l1.9,3.9c0.5,1.1,0.6,1.2,1.9,0.7
		c1.3-0.5,2.5-1.5,3.9-1.6c0.1,0,0.1,0,0.2,0c0.6-0.5,1.4-1.1,2-1.5c1.8-1.4,2.4-3.7,1.1-5.7c-0.3-0.4-0.9-1.1-1.5-1.4
		c-0.4-0.2-0.7-0.6-0.7-1.2c-0.5-2.5-2.2-3.5-4.6-2.7c-1.9,0.7-4,1.7-5.9,2.6c-0.9,0.4-0.9,0.6-0.5,1.3
		C285.4,132.5,286,134.1,287,136.5L287,136.5z M197.1,108.6L197.1,108.6c-1.2,0.6-2.5,1.3-3.6,1.9c-0.9,0.5-0.9,0.6-0.4,1.4
		c0,0.1,0,0.2,0.2,0.3c0.5,0.9,0.7,1,1.5,0.4c0.7-0.5,1.6-0.7,2.5-1.3c1.2-0.5,1.3-0.6,1.9,0.6c1.2,2.4,2.1,4.5,3.3,7
		c0.2,0.7,0.5,1.3,0.6,2c0,0.1,0,0.2,0.1,0.3c0.3,0.5,0.9,1.3,1.3,1.7c0.2,0.3,0.5,0.4,0.9,0.3c1.2-0.5,2.4-1.2,3.4-1.6
		c0.3-0.1,0.4-0.5,0.3-0.9l0,0c0-0.2-0.2-0.4-0.2-0.7c-1.4-2.8-2.7-5.7-4.1-8.6c-0.2-0.7-0.6-1.3-0.9-1.9c-0.4-1-0.3-1,0.5-1.3
		c1.1-0.5,2-1.1,3.1-1.6c0.5-0.3,0.7-0.7,0.3-1.4c-0.4-1-0.6-1.2-1.5-0.9c-0.4,0.1-0.9,0.4-1.3,0.4L197.1,108.6z M296.8,119
		c-0.5-0.4-0.6-0.6-1-0.7c-0.9-0.6-1.7-1.3-2.6-1.9c-0.6-0.2-0.7-1-0.5-1.3c0.1-0.4,0.2-1.1,0.3-1.7c0-3.1-2.5-4.7-4.9-3.9
		c-1.8,0.7-3.6,1.4-5.4,2.5c-1.1,0.5-1.1,0.6-0.6,1.7c1.2,2.7,2.5,5.4,3.7,7.9c0.2,0.5,0.5,1.1,0.7,1.6c0.2,0.5,0.5,0.6,1.1,0.4
		c0.7-0.2,1.3-0.6,1.9-0.9c0.4-0.1,0.5-0.5,0.4-1c0-0.1,0-0.1,0-0.2c-0.4-1-0.6-1.6-1.2-2.5c-0.1-0.3-0.2-0.7-0.4-1.1l0.2-0.1
		c0.2,0.2,0.7,0.4,1.1,0.6c0.9,0.6,1.7,1.3,2.6,1.9c0.2,0.2,0.7,0.3,1.1,0.2C294.6,120.3,295.7,119.6,296.8,119L296.8,119z
		 M327.2,104.7L327.2,104.7c0.9-0.4,1.5-0.6,2.4-1.2c1.9-1.2,3.3-3.4,3-5.8c-0.2-1.4-0.5-2.8-1.4-3.7c-0.7-1.2-2-1.9-3.5-2.1
		c-1.2-0.2-2.5,0.1-3.5,0.4c-1.3,0.6-2.8,1.1-4.1,1.7c-1,0.4-1.1,0.7-0.6,1.7c0.5,1,0.9,2.1,1.4,3c1.1,2.2,2,4.4,3.1,6.6
		c0.4,0.9,0.5,0.9,1.2,0.5C325.9,105.4,326.6,105.2,327.2,104.7L327.2,104.7z M247.8,135.4c1.1,2.6,3.5,4.3,6.3,3.9
		c3.2-0.2,5.2-3,5.2-6c0.1-3-1.6-5.7-4.5-6.4c-1.9-0.7-4.1-0.4-5.5,0.9C247.2,129.6,246.5,132.8,247.8,135.4L247.8,135.4z
		 M265.7,108l0.2-0.1c-0.2-0.4-0.5-0.9-0.6-1.3c-0.5-1-0.4-1.2,0.5-1.5l0.5-0.2c2.7-1.2,5.1-2.4,7.8-3.4c3.9-1.8,7.6-3.5,11.5-5.4
		c4.5-2,9.2-4.1,13.8-6.3c1.8-0.9,1.9-0.9,0.6-2.6c0-0.1-0.1-0.1-0.1-0.1c-1.4,0.4-35.1,16.1-36.2,16.7
		C264.3,105.1,264.9,106.6,265.7,108L265.7,108z M307.3,107.6c-1.2-1.9-2.4-3.5-4.8-4.1c-1.5-0.3-3.2,0.1-4.3,1
		c-2.5,1.8-3.1,5.1-1.6,7.8c1.4,2.8,3.7,4,7.2,3.6c0.6,0,1.1-0.3,1.5-0.5C307.7,113.8,308.6,110.6,307.3,107.6L307.3,107.6z
		 M326.9,47.8c0.2,0.5,0.4,1,0.5,1.3c1.1,2,1.9,4.1,2.9,6c0,0.2,0.2,0.5,0.5,0.6c0.9,0.6,1.6,1.5,2,2.7c0.5,1,0.9,1.9,1.4,2.9
		s0.7,1.1,1.8,0.6c0.9-0.4,1.5-0.6,2.4-1.1c0.9-0.4,1-0.6,0.5-1.4c-0.4-0.7-0.7-1.5-1.3-2.2c-1-1.6-1.3-3.7-1.1-5.8
		c0.4-2.4,0.4-4.8,0.6-7.2c0-0.3,0-0.6,0-1c-0.4,0.1-0.9,0.4-1.2,0.4c-1.1,0.3-1.6,1.1-1.6,2.1c-0.1,1.6-0.2,3.3-0.4,4.9
		c-0.1,0.3-0.1,0.9-0.3,1.3c-0.9-0.6-1.6-1-2.2-1.6c-0.7-0.4-1.6-0.9-2.2-1.5C328.6,48.7,327.7,48.1,326.9,47.8L326.9,47.8z
		 M344.7,116c2.6-1.4,3.6-3.2,3.3-5.9c-0.1-0.3-0.1-0.7-0.4-1c-0.6-1.2-1.8-1.9-3.2-2.1c-1.1-0.1-2.2-0.1-3.3-0.1
		c-0.3,0-0.9-0.1-0.9-0.6c0-0.4,0.3-0.7,0.7-0.9c0.5-0.1,1.1-0.1,1.6-0.3c0.9-0.1,1.3-0.4,1.3-1.2c0.1-0.7-0.3-1-1.1-1.1
		c-1.3-0.2-2.6,0.1-3.7,0.6c-1,0.4-1.7,0.9-2,1.7c-1,1.6-0.5,3.7,1,4.8c0.1,0.1,0.2,0.2,0.2,0.2c0.9,0.4,1.5,0.5,2.5,0.7
		c0.7,0.1,1.5-0.1,2.4-0.2c1.2,0,1.7,0.7,1.1,1.7c-0.3,0.6-0.7,1-1.5,1c-0.9,0.1-1.8,0.1-2.7,0.1s-1.2,0-1.4,0.9
		c-0.2,0.9-0.1,1.1,0.9,1.4C341.2,116.7,342.9,116.7,344.7,116L344.7,116z M268.3,139.2c-2.2-0.7-4.9-0.2-6.6,1.6
		c-1.4,1.5-1.3,3.5,0.1,4.9l0.1,0.1c0.6,0.6,1.6,1,2.7,1.1c0.7,0.1,1.5-0.1,2.5-0.1c0.3-0.1,0.7,0,1.1,0c0.9,0.1,1.1,0.5,0.7,1.4
		c-0.2,0.2-0.3,0.6-0.5,0.7c-0.5,0.5-1.4,0.7-2.1,0.6c-0.7-0.1-1.4-0.1-2.1,0c-0.2,0-0.5,0.1-0.5,0.1c-0.2,0.4-0.3,1-0.4,1.5
		c0,0.4,0.5,0.4,0.9,0.6c1.9,0.4,3.9,0.2,5.7-0.7c1.5-0.7,2.7-2.1,2.9-3.7c0.4-1.9-0.7-3.9-2.7-4.3c-1.1-0.2-2.1-0.3-3.3-0.3
		c-0.4,0-1,0-1.5-0.1c-0.3,0-0.9-0.3-0.6-0.6c0.1-0.2,0.2-0.6,0.5-0.7c0.5-0.1,1.2-0.3,1.7-0.2c1.3,0,1.3,0,1.5-1.4
		C268.3,139.6,268.2,139.3,268.3,139.2L268.3,139.2z M270.5,117.8l5.2,11c0.1,0,0.1,0.1,0.2,0.1c2-0.6,3.9-1.7,5.6-2.9
		c0.4-0.3,0.7-1,1-1.6c0.4-1.9,0-3.7-2-4.9c-0.7-0.2-1.1-0.7-1.1-1.5c-0.2-1.7-1.7-3.1-3.5-2.8C274,115.7,272.5,116.7,270.5,117.8
		L270.5,117.8z M192.4,117.9L192.4,117.9c-0.2-0.4-0.4-1.1-0.6-1.4c-0.5-1.1-1.1-2.2-1.5-3.2c-0.4-0.9-0.6-0.9-1.3-0.5
		c-1,0.4-1.7,0.7-2.6,1.3c-0.7,0.2-0.6,0.5-0.5,1.2c0.1,0.7,0.5,1.3,0.7,1.9c1.2,2.7,2.4,5.1,3.4,7.8c0.5,1.2,1.2,2.5,1.7,3.6
		c0.5,1,0.7,1.1,1.7,0.6c0.9-0.4,1.4-0.6,2.2-1.1c1-0.5,1.1-0.6,0.6-1.7L192.4,117.9z M308.2,123.6L308.2,123.6
		c-0.4-1.2-0.9-2.2-1.5-3.2c-0.2-0.3-0.3-0.4-0.7-0.5c-1-0.1-1.6,0.6-1.3,1.7c0,0.2,0.2,0.5,0.4,1c0.5,1.2,1.2,2.6,1.7,3.7
		c0.2,0.4,0.5,0.9,0.6,1.4c0.2,0.9,0.1,1.5-0.6,2.2c-0.5,0.6-1.4,0.9-2.2,0.5c-0.7-0.2-1.2-0.6-1.5-1.4c-0.7-1.3-1.3-2.7-1.9-4.1
		c-0.2-0.5-0.5-1.1-0.7-1.6c-0.1-0.3-0.5-0.4-0.9-0.4h-0.1c-0.7,0.2-1.3,0.6-1.9,1c-0.7,0.2-0.5,0.6-0.4,1.2c0.9,1.9,1.7,4,2.7,5.9
		c1.5,3,4.8,4,7.7,2.2c1.6-0.9,3.3-3.9,2.1-6.2C309.2,125.9,308.6,124.8,308.2,123.6L308.2,123.6z M356,77.8L356,77.8l-3.3,1.5
		c-0.4,0.2-0.9,0.5-1.3,0.7c-0.5,0.3-0.6,0.7-0.2,1.4c0.3,0.5,0.5,0.6,1.3,0.5c0.9-0.4,1.2-0.5,1.7-0.7c0.4-0.2,0.9-0.1,1.2,0.3v0.1
		c0,0.2,0.2,0.4,0.2,0.5l3.1,6.5l0.2,0.5c0.1,0.4,0.5,0.6,1,0.4h0.1c0.5-0.2,1.1-0.5,1.6-0.7c0.6-0.4,0.9-0.6,0.5-1.3
		c-0.4-0.9-0.6-1.4-0.9-2.2c-0.1-0.3-0.1-0.5-0.4-1c-0.7-1.5-1.4-3-2.1-4.5c-0.2-0.3-0.1-0.9,0.2-1.1c0.1,0,0.1,0,0.2,0
		c0.5-0.2,1.2-0.6,1.7-0.9c0.4-0.1,0.5-0.6,0.4-1c-0.2-0.9-0.6-1.2-1.6-0.6C358.7,76.5,357.4,77.2,356,77.8L356,77.8z M346,85.4
		c0-0.9,0.4-1,0.9-1c0.4-0.1,1.1-0.1,1.5-0.2c0.7,0,1-0.3,0.9-1.1c0-0.9-0.1-1.1-0.9-1.2c-1.2-0.2-2.4,0-3.4,0.4
		c-1,0.4-1,0.6-0.5,1.4c0.6,1.4,1.4,2.9,2.1,4.3c0.5,1.1,1.2,1.8,2.6,1.8c1.1,0,1.5,1.3,0.7,1.9c-0.1,0.1-0.2,0.3-0.3,0.3
		c-0.3,0.2-0.5,0.6-0.3,1v0.1c0.1,0.2,0.2,0.4,0.2,0.7c0.2,0.5,0.5,0.5,1.1,0.3c1.8-0.7,3.1-2.6,3-4.7c0-2-1.3-3.6-3.2-3.7
		c-0.9-0.1-1.8-0.2-2.6-0.2C347.4,85.7,346.6,85.6,346,85.4L346,85.4z M340.1,69c0.6-0.7,1.2-1.3,1.5-2c0.5-0.6,1-1.3,1.3-2.1
		c-0.2,0-0.4,0-0.7,0c-0.5,0.2-1.1,0.5-1.6,0.6c-1.1,0.4-1.9,0.9-2.9,1.3c-1.1,0.4-1.2,0.6-0.6,1.7c0.5,1.2,1.2,2.4,1.6,3.4
		c0.2,0.3,0.3,0.5,0.6,1c1.6-0.4,5.5-2.4,6.1-3.1C343.7,69.3,341.9,69.7,340.1,69L340.1,69z M275,129.6c-0.1-0.3-0.1-0.5-0.4-0.9
		c-1.4-3.1-2.9-6.2-4.4-9.4c-0.2-0.4-0.4-0.6-0.7-1.2l-1.7,0.9c0.2,0.5,0.4,1.1,0.6,1.4c1.3,2.8,2.6,5.7,4,8.3
		C273.1,130.5,273.4,130.6,275,129.6z M321.8,50.2c1.2,0.9,2.5,1.8,3.7,2.6c1.2,0.6,2.2,1.7,3.6,2.2c-0.7-2.1-1.7-4.2-2.8-6
		c-0.2-0.3-0.6-0.4-1-0.3C324,48.9,322.9,49.4,321.8,50.2z M346.6,89.4c-0.2-0.7-0.4-1.3-0.6-1.7c-0.2-0.7-0.7-1.3-1.2-1.9l-1.4-2.4
		c-1.3,0.9-1.7,2.5-1.1,3.7C342.9,88.8,344.8,89.7,346.6,89.4z M376.2,104.4c0.2-0.7,0.3-1.3,1-1.3c0.2,0,0.4-0.5,0.4-0.7
		c0-0.3,0-0.7-0.1-1.1c0-0.6-0.3-1.2-0.5-1.8c-0.6-0.1-1.2-1.1-2.1-0.3c0.2,0.5,1.1,0.4,1.1,1.1l-2.5,1.2c0.5,0.9,1.5,1.3,2.2,0.9
		c-0.6,1.3-1.6,0.6-2.6,0.6l-0.1,0.2L376.2,104.4z M348.5,93.5c-0.4-1-0.6-1.1-1.5-1c-0.4,0-0.9,0-1.3,0c-0.7-0.1-1,0.3-1.1,1.2
		c-0.1,0.7,0.1,1.1,0.7,1.2c0.9,0.2,1.6,0.2,2.4,0.3c1,0,1.2-0.3,0.7-1.2L348.5,93.5z M165.7,127.6h0.2c0-0.2-0.1-0.4-0.1-0.5
		c-0.7-0.3-1.3-0.7-2-0.9c-0.3,0-0.7,0-1.1,0.4c-0.5,0.6-0.7,1.4-0.5,2.2s1,1.4,1.7,1.1c0.9-0.1,1.4-0.9,1.3-1.6
		c-0.1-0.3-0.1-0.5-0.3-1c0,0,0.1-0.1,0.1-0.2L165.7,127.6z M347,41.3c-0.2-0.3-0.5-0.9-1.1-0.6c-0.1,0-0.3,0-0.4-0.1
		c-0.4-0.1-1.1,0.1-1.2,0.6l0,0c-0.3,0.7-0.1,1.5,0.5,1.8c0.2,0.2,0.6,0.2,0.9,0.1c0.7,0.1,1.3-0.5,1.5-1.1
		C347.3,41.6,347.2,41.5,347,41.3z M282.8,144.4c1.1,0,1.5,0.1,1.7,0.6c0.2,0.3,0.1,0.9-0.2,1.2c-0.6,0.6-1.3,0-1.9-0.4
		c0.4,1.2,0.9,1.4,1.7,0.9c0.9-0.4,1.2-1.2,0.7-2l0,0C284.4,143.8,283.9,143.7,282.8,144.4z M311.3,109.8h-0.2c0,0.7,0,1.3,0.1,2
		c0,0.1,0.3,0.3,0.5,0.3c0.2,0,0.4-0.2,0.5-0.5c0.1-0.2,0-0.4,0-0.6C311.8,110.6,311.6,110.1,311.3,109.8z M358.2,12.3
		c0.3,0,0.7,0.1,1.1,0.1c0.3-0.1,0.5-0.5,0.5-0.9v-0.1c0-0.2-0.3-0.3-0.5-0.3C358.6,11.2,358.1,11.8,358.2,12.3L358.2,12.3z
		 M262,114.8c1.4-0.2,2.7-0.6,3.7-1.4v-0.2L262,114.8z M328.3,23.6c-0.1,0-0.3-0.1-0.4-0.1c-0.4,0.2-0.5,0.7-0.4,1.2
		c0.1,0.2,0.4,0.2,0.7,0.2C328.4,24.8,328.7,24,328.3,23.6z M318,28c-0.1-0.4-0.2-0.9-0.3-1.3c-0.1-0.2-0.3-0.2-0.6-0.2
		c-0.2,0.1-0.2,0.3-0.2,0.4C317.1,27.5,317.3,27.9,318,28L318,28z M329,85.5c-0.9,0.1-1.5,0.5-2,1.2C327.7,86.7,328.5,86.3,329,85.5
		z M330.9,23.6c1-0.7,1.1-0.9,0.4-1.4C330.7,22.5,330.7,23,330.9,23.6L330.9,23.6z M231,67c0.7-0.1,1.1-0.5,1.1-1.1
		C231.2,66.1,231.2,66.1,231,67L231,67z M175,93.7c-0.3,0-0.6-0.1-0.7-0.1c-0.1,0-0.1,0.3-0.2,0.7c0.2,0.1,0.4,0.2,0.6,0.1
		C174.8,94.4,175,94.2,175,93.7z M237.9,126.5c-0.7,0-1.4,0.4-1.9,0.9C236.7,127.7,237.4,127,237.9,126.5L237.9,126.5z M340.8,19
		c-0.2-0.1-0.4-0.2-0.6-0.2c-0.2,0-0.2,0.4-0.2,0.4c0,0.1,0.3,0.2,0.6,0.3L340.8,19z M307,98.1l-0.2,0.1l1.2,1.9h0.1L307,98.1z
		 M290.1,66.7l0.2-0.1c-0.1-0.3-0.2-0.7-0.5-1c-0.1-0.1-0.3-0.1-0.7-0.2c0,0.2,0,0.3,0,0.6C289.5,66.2,289.8,66.4,290.1,66.7z
		 M300.2,84.4L300.2,84.4l-1.3-2.9h-0.1L300.2,84.4z M339.7,20.7c-0.2-0.1-0.4-0.1-0.7-0.1c0,0-0.2,0.2,0,0.3
		c0.1,0.1,0.3,0.1,0.6,0.2C339.4,21.3,339.7,21,339.7,20.7L339.7,20.7z M329,26.5c0.6-0.6,0.6-0.6-0.3-1L329,26.5z M160.3,151.7
		c-0.6-0.3-0.9-0.3-1.2,0.1C159.5,152,160,152,160.3,151.7L160.3,151.7z M289.1,61L289.1,61l1.1,2.4h0.1L289.1,61z M203.3,79.9
		c0.2,0.1,0.4,0.2,0.7,0.3c0,0,0.2-0.1,0.2-0.2C204,79.5,203.8,79.5,203.3,79.9z M214.6,97.8c0.1-0.3-0.1-0.9-0.5-1.1L214.6,97.8z
		 M357.2,29.7c0.1,0.3,0,0.4,0,0.6c0.1,0.1,0.2,0.2,0.6,0.2l0.2-0.2C357.9,30.1,357.6,29.9,357.2,29.7L357.2,29.7z M180.8,92.8
		c0.5-0.5,0.6-0.7,0.2-1.1c0,0-0.1,0-0.2,0V92.8z M162,151.1h-0.2c0,0.3-0.1,0.6,0.6,0.5L162,151.1z M294.7,73.3h0.2l-0.5-1.2h-0.1
		L294.7,73.3z M305.8,32c0.1-0.1,0-0.3,0-0.3c-0.1-0.1-0.2-0.1-0.3-0.1c0,0-0.1,0.1-0.2,0.2L305.8,32z M270.6,155.8v0.2l0.5-0.2
		v-0.2L270.6,155.8z M267.2,110.2l-0.2,0.1l0.4,0.6h0.1L267.2,110.2z M315.7,75.5c-0.1,0.1-0.2,0.2-0.1,0.3c0.1,0.1,0.2,0.2,0.4,0.2
		c0.1-0.1,0.2-0.2,0.2-0.2C316,75.5,315.8,75.4,315.7,75.5L315.7,75.5z M269,156.5L269,156.5l0.5-0.1v-0.2L269,156.5z M249.6,122.2
		L249.6,122.2l-1.2,0.4v0.1L249.6,122.2z M306.1,96.2L306.1,96.2l0.1,0.5h0.2L306.1,96.2z M179.4,91.4c-0.1,0.1-0.1,0.2-0.1,0.3
		c0,0.1,0.1,0.1,0.1,0.2c0.1-0.1,0.1-0.2,0.2-0.2C179.5,91.5,179.5,91.4,179.4,91.4z M196.9,84.1c-0.1,0-0.2,0-0.3,0.1
		c-0.1,0-0.1,0.1-0.1,0.2s0.2,0.1,0.2,0C196.9,84.3,196.9,84.3,196.9,84.1L196.9,84.1z M323.9,66.4c-0.1-0.1-0.2-0.1-0.2-0.1
		c-0.1,0-0.1,0.1-0.2,0.2c0.1,0.1,0.1,0.1,0.2,0.1C323.8,66.8,323.8,66.7,323.9,66.4z M357.5,11.3c-0.1,0-0.2,0-0.3,0.1
		c0,0-0.1,0.1-0.1,0.2c0.1,0.1,0.1,0.1,0.2,0.2L357.5,11.3z M348,74.7L348,74.7l1-0.4l0,0L348,74.7z M215.5,74.2
		c0,0.1-0.1,0.2,0,0.3l0.1,0.1c0.1,0,0.1-0.1,0.2-0.2L215.5,74.2z M288.3,102.6L288.3,102.6l1.1-0.4v-0.1L288.3,102.6z M374,99.5
		v-0.2c-0.1,0-0.2,0-0.2,0c-0.1,0-0.1,0.1-0.2,0.2l0.1,0.1L374,99.5z M304.2,93.1L304.2,93.1l-0.1-0.4H304L304.2,93.1z M263,115.7
		l-0.1-0.1l-0.1,0.1C262.9,115.9,262.9,115.9,263,115.7C262.9,115.9,263,115.7,263,115.7L263,115.7z M262.8,101L262.8,101l0.1,0.5
		h0.1L262.8,101z M264.4,107.4L264.4,107.4v-0.7h-0.2L264.4,107.4z M345.1,76.1C345.1,76.1,345.1,76,345.1,76.1c0-0.1,0-0.1-0.1-0.1
		l-1,0.4v0.1L345.1,76.1z M224.2,71.3c0,0,0-0.1-0.1-0.1c0,0-0.1,0-0.1,0.1l0.1,0.2L224.2,71.3z M286,103.7l0.1,0.2l1-0.4v-0.1
		L286,103.7z M270.1,115.9L270.1,115.9v0.4h0.1L270.1,115.9z M269.2,117.3H269l0.1,0.4h0.2L269.2,117.3z M155.7,146.2l-0.1-0.1
		l-0.1,0.1H155.7L155.7,146.2z M321.8,24.9l0.1-0.2c-0.1,0-0.1-0.1-0.1-0.1c-0.1,0.1-0.1,0.1-0.1,0.2L321.8,24.9z M216.9,74
		l-0.1-0.1l-0.1,0.1H216.9L216.9,74z M156,136l-0.1,0.1l0.1,0.1l0.1-0.1C156.1,136.1,156.1,135.9,156,136z M255.8,89.2L255.8,89.2
		l0.1,0.4h0.1L255.8,89.2z M258.2,91.4C258.1,91.3,258.1,91.3,258.2,91.4c-0.1,0-0.1,0-0.1,0.1c0,0.2,0.2,0.3,0.2,0.5h0.1
		L258.2,91.4z M322,68.2l-0.1-0.1l-0.1,0.1l0.1,0.1C322,68.4,322,68.2,322,68.2z M156,151.8c0.1,0,0.1,0.1,0.2,0
		c0.1-0.1,0-0.1,0.1-0.1c0,0-0.1-0.1-0.2,0C156,151.7,156,151.7,156,151.8z M302.6,100.5l0.1,0.2c0.1,0,0.1-0.1,0.2-0.2l-0.1-0.1
		C302.7,100.4,302.6,100.5,302.6,100.5L302.6,100.5z M270,111.1L270,111.1h0.3c0,0,0,0,0-0.1L270,111.1z M281.8,107
		C281.8,107,281.6,106.9,281.8,107l-0.2,0.1c0,0,0.1,0.1,0.1,0C281.8,107,281.8,107,281.8,107L281.8,107z M279.3,108.2L279.3,108.2
		l-0.7,0.1v0.1L279.3,108.2z M297.1,98.7l0.1,0.2l0.2-0.2H297.1z M255.8,119L255.8,119l0.7-0.2v-0.1L255.8,119z M243.1,125.4
		L243.1,125.4l-0.4,0.1v0.1L243.1,125.4z M360.5,10.4c0,0,0-0.1-0.1-0.1h-0.1C360.3,10.3,360.3,10.4,360.5,10.4
		C360.4,10.5,360.4,10.5,360.5,10.4z M348.5,15.4c-0.1,0-0.1-0.1-0.2-0.1c0,0,0,0.1-0.1,0.1l0.1,0.1
		C348.5,15.5,348.5,15.4,348.5,15.4L348.5,15.4z M271.3,112v-0.2l-0.5,0.2v0.1L271.3,112z M166.3,98.5l-0.1-0.1H166L166.3,98.5
		L166.3,98.5z M311.5,75.2L311.5,75.2l0.1,0.1c0,0,0-0.1,0.1-0.1H311.5z M372.6,101.5c-0.1,0.1-0.1,0.1-0.2,0.2
		c0.1,0.1,0.1,0.1,0.2,0.2V101.5z M162,149.7L162,149.7h-0.2v0.1L162,149.7z M262.1,102.6L262.1,102.6l0.1,0.3h0.1L262.1,102.6z
		 M352.8,14.6c0,0.1,0,0.1,0,0.2h0.1l0.1-0.1L352.8,14.6z M256.9,89L256.9,89l-0.1-0.4h-0.1L256.9,89z M266.4,109.2l-0.1,0.1
		c0,0,0,0,0.1,0.1C266.6,109.4,266.6,109.3,266.4,109.2C266.6,109.3,266.4,109.2,266.4,109.2z M202.4,81.3
		C202.4,81.3,202.2,81.3,202.4,81.3C202.2,81.4,202.4,81.4,202.4,81.3L202.4,81.3L202.4,81.3z M316.4,77.4l-0.1,0.1
		c0,0,0,0.1,0.1,0.1h0.1L316.4,77.4z M186,91.1C186,91.1,186,91,186,91.1C186,91,186,91,186,91.1L186,91.1L186,91.1z M315,78L315,78
		l-0.1,0.1C315,78.1,315.2,78.1,315,78L315,78L315,78z M311.6,30.7L311.6,30.7c0.1-0.1,0.1-0.1,0.1-0.1L311.6,30.7L311.6,30.7z
		 M162.3,144.6L162.3,144.6L162.3,144.6C162.2,144.7,162.2,144.7,162.3,144.6L162.3,144.6z M241.7,124.8l-0.1-0.1l-0.1,0.1l0.1,0.1
		C241.7,124.9,241.8,124.8,241.7,124.8z M239.6,125.8L239.6,125.8h0.2v-0.1L239.6,125.8z M238.9,126.4L238.9,126.4
		c-0.1,0-0.1,0-0.1,0.1l0.1,0.1V126.4z M252.1,81.4c0-0.1,0.1-0.1,0.1-0.1c0-0.1-0.1-0.1-0.1-0.1V81.4z M264.5,114.9L264.5,114.9
		h-0.2v0.1L264.5,114.9z M351.2,73.4L351.2,73.4H351l0,0H351.2z M352.5,72.7L352.5,72.7L352.5,72.7L352.5,72.7L352.5,72.7
		L352.5,72.7z M272.4,111.4L272.4,111.4c0-0.1,0-0.1-0.1-0.1l-0.1,0.1H272.4z M277.9,107.7l-0.1-0.1L277.9,107.7L277.9,107.7z
		 M303.3,91.1L303.3,91.1l-0.1-0.3h-0.1C303.2,90.9,303.2,91,303.3,91.1L303.3,91.1z M166.6,154.4L166.6,154.4L166.6,154.4
		L166.6,154.4z M323.6,72.4L323.6,72.4L323.6,72.4L323.6,72.4z M164.4,146.9L164.4,146.9L164.4,146.9L164.4,146.9z M297.6,78.9
		C297.6,78.9,297.5,78.9,297.6,78.9C297.5,78.9,297.5,78.9,297.6,78.9L297.6,78.9L297.6,78.9z M223.3,72.7L223.3,72.7l-0.1,0.1
		C223.3,73,223.4,72.9,223.3,72.7L223.3,72.7L223.3,72.7z M339.8,123.4L339.8,123.4L339.8,123.4L339.8,123.4z M344.4,121.4
		L344.4,121.4c-0.1-0.1-0.1-0.1-0.1-0.1L344.4,121.4L344.4,121.4z M190.1,86L190.1,86L190.1,86L190.1,86z"/>
	<path class="st0" d="M431.7,79.2c-0.1,0.1-0.2,0.3-0.3,0.3c-1.5,0.7-3,1.4-4.5,2.1c0-0.1-0.1-0.1-0.1-0.2v-0.1
		c0.1,0,0.2-0.1,0.3-0.2l4.6-2.2L431.7,79.2z"/>
	<path class="st0" d="M423.4,61.8c-1.1,0.7-2.2,1.3-3.4,1.8l-0.1-0.2l3.4-1.8L423.4,61.8z"/>
	<path class="st0" d="M172.5,172.6c0.1-1-0.2-2-1-2.8c-0.2-0.3-0.1-0.5-0.1-0.9c0.1-0.3,0.1-0.9,0-1.3c-0.2-0.7-0.5-1.3-0.6-2
		l-1.1-1.2c-0.5,0.1-1.1,0.6-1.4,1.1c-0.3,0.6-0.6,1.2-1,1.8c-0.2-0.7-0.3-1.4,0.3-1.9c0.5-0.5,1.2-0.9,1.4-1.7
		c0.1-0.1,0.3-0.3,0.7-0.2c1-0.1,1.5-0.9,2.4-1.5l-1.3-0.5l-0.4,1l-1-0.9c0.4-0.9,1.6-1.1,3.5-0.9l-0.5-1c0.2-0.1,0.3-0.3,0.6-0.4
		c1.4-0.7,2.9-1.4,4.3-2.1c1.2-0.5,2.4-1.3,3.4-1.9c0.4-0.2,0.6-0.5,1.2-0.9c0.2-0.3,0.6-0.5,1.1-0.5c0.3,0,0.9-0.1,1.3-0.2v-0.2
		h-0.9c0.6-0.7,1.5-1,2.2-1.3l0.7,0.5c0.1-0.1,0.3-0.2,0.3-0.3c0.2-0.7,0.7-1.3,1.5-1.5c1.3-0.6,2.7-1.2,4-1.9
		c0.2,0,0.3-0.2,0.4-0.2c0.9-0.6,1-0.7,0.5-1.7c-1.1-2.4-1.9-4.5-2.9-6.7c-0.9-2.1-1.8-4.2-2.7-6.3c0-0.1-0.1-0.3-0.1-0.4
		c0.1,0.1,0.2,0.1,0.3,0c0.6,1.1,1.2,2,1.7,3.1c0.2,0.3,0.2,0.5,0.4,1c0,0.7,0.4,1.4,0.9,1.9c0.2,0.3,0.4,0.6,0.5,1.2
		c0.1,0.4,0.2,0.9,0.4,1.3c0.7,1.2,1.5,2.4,1.9,3.6c0.2,0.3,0.3,0.4,0.5,0.6h0.2c-0.1-0.3-0.2-0.7-0.4-1.1c-0.4-1-0.7-1.6-1.2-2.6
		c-0.4-1-0.2-0.9,0.4-1.1c2.2-0.6,4.4-1.5,6.6-2c0.7-0.1,1.4-0.5,2.1-0.6c0.3-0.1,0.5-0.2,0.9-0.5c-0.4-1.1-1.6-0.7-2-1.5
		c0.3-0.2,0.4-0.3,0.9-0.6l10.9-5.1c2.7-1.2,5.1-2.4,7.6-3.5c1.7-0.7,3.6-1.7,5.4-2.7c1.1-0.5,1.1-0.5,1.9,0.4l0.1,0.1
		c0,0.1,0.1,0.1,0,0.2c0.1,0.5,0.3,1.1,0.4,1.6c0.2,0.7,0.6,1.2,1,1.8c0.6,1.2,0.6,1.4-0.5,2c-2.2,1.1-4.3,2.1-6.5,3.2
		c-0.7,0.2-1.3,0.6-1.8,0.9c-0.2,0.1-0.4,0.3-0.6,0.5c1.1,0.2,1.4-0.5,2.1-0.6c0.7-0.1,1.2-0.5,1.8-0.7c0.7-0.1,1.4-0.4,2-0.6v0.2
		l-1.8,0.9c1.7-0.2,3.2-1.2,4.8-1.9l-1.1,0.1l-0.1-0.2c0.2-0.1,0.3-0.3,0.5-0.6c0.2-0.1,0.4-0.3,0.6-0.5c0.4-0.3,0.9-1,1.8-0.1
		c0-1.4-1.3-2.5-1-3.9c0.2,0.5,0.5,1,0.7,1.4c0.2,0.7,0.7,1.2,1.4,1.4s0.6,0.4,0.3,1c-0.6,0.9-0.6,2-0.1,3c0.5,1.2,1.1,2.6,1.7,3.9
		c0.2,0.5,0.5,1,1.1,1.1c0.1,0,0.2,0.2,0.6,0.2c-0.7,0.9-0.3,1.5,0.1,2.2c0.4,0.9,0.6,1.3,1,1.9c0,0.2,0.3,0.3,0.6,0.4l-0.7-1.8h0.2
		c1.3,1.6,1.9,3.4,2.9,5.6c-0.9-0.3-0.9-1-1.2-1.3c-0.2-0.4-0.5-0.9-0.9-1.3c0.1,1,0.5,2,1.1,2.8c0.1,0.2,0.7,0.3,1,0.4l1.9,4.5H241
		l-0.9-1.7l-3.6,1.9c0.1,0.7,0.4,1.4,0.6,1.8c0.7,1.7,1.6,3.4,2.5,5.2c0.5,1,0.7,2.1,1.3,3c0.5,1,0.6,1.1,1.8,0.7
		c0.7-0.1,1.3-0.4,1.7-0.6c0.4-0.2,0.9-0.2,1.1,0.3c0.5,0.9,0.7,1.6,1.3,2.5c0.4,1,0.3,1.1-0.4,1.5c-0.4,0.3-1.1,0.5-1.6,0.9
		c-0.5,0.2-1,0.6-1.5,0.9c-0.1,0-0.1,0.1-0.2,0.1c-0.9,0-1.2,0.6-1.4,1.2c-1.2-0.5-1.3-0.4-1.2,0.5l-2.2,0.7c-0.2,0-0.4,0.1-0.5,0.2
		c-1.5,0.7-2.9,1.5-4.4,2.2c-0.7,0.2-1.3,0.5-1.8,0.6c-0.7-0.1-1.5,0.4-1.8,1.2c-0.1,0.1-0.2,0.3-0.4,0.5c-1.6,0.7-3.1,1.5-4.7,2.2
		c-0.4,0.2-0.7,0-1-0.5c-0.2,0.2-0.4,0.7-0.5,1c-0.4,0.7-0.7,0.7-1.4-0.1c-0.3,0.1-0.5,0.2-0.9,0.5c-0.6,0.5-1.5,0.9-2.4,1.1
		c-0.6,0-1.2,0.6-1.8,1c-0.4,0.2-1,0.4-1.4,0.6l-1.1,0.4c-0.3,0.2-0.5,0.2-1,0.4c-1.2,0.3-1.4,0.3-1.9-0.9c-0.7-1.6-1.5-3.2-2.2-4.7
		c-0.9-1.9-1.8-4-2.7-5.9c-0.9-2.1-1.9-4.2-2.9-6.2c-0.5-1.2-0.5-1.4,0.6-2c0.3-0.2,0.5-0.3,1.2-0.6c-0.3-0.2-0.5-0.6-0.9-1.1
		c-1.1-0.9-2.1-1.8-3.3-2.8c-0.6-0.4-1-0.9-1.3-1.6c-0.5-1.2-1.3-2.4-1.7-3.6c-0.6-1.4-1.2-2.9-1.7-4.2c-0.1-0.4-0.3-1.1-0.3-1.5
		c-0.6,0-0.9,0.5-0.6,1.1c0,0.7,0.3,1.4,0.4,2c0,0.2,0.1,0.5,0.1,0.9l-0.5-0.5h-0.2l2.5,5l-0.2,0.1l-3.2-2.6
		c-0.2,0.2-0.3,0.5-0.3,0.7c-0.1,1.1-0.3,2.1-0.2,3.2c0.1,0.4-0.1,0.9-0.4,1.2c-0.4,0.3-0.4,0.5-0.4,1.3l1.1-0.1
		c0.4,1,0.1,1.5-0.1,2.4c-0.1,0.4-0.1,1-0.2,1.6c-0.2,0.6-0.3,1.2-0.3,1.8c0.2,0.5,0.4,1.2,0.5,1.5c0,0.1,0,0.1,0,0.2
		c1.4,0.2,2.5-0.4,2.2-1.8c0-0.6,0.2-1.1,0.7-1.3c0.3-0.1,0.9-0.4,1.2-0.4c0.6-0.4,1.6-0.3,2.2,0.1c0.3,0.2,0.9,0.3,1.2,0.2
		c0.7,0,0.9,0.1,1,1.1l-0.6-0.5l-0.1,0.1l1.2,2.5l0.5-0.2c0,0.2,0.2,0.4,0.1,0.5c-0.2,0.9,0.1,1.5,0.6,2.1c0.5,0.9,0.9,1.8,1.2,2.7
		c0.2,0.7,0.6,1.3,0.9,1.9c0.5,1.1,0.9,2.2,1.5,3.2c0.6,1.5,1.4,3,2,4.5c0.5,1.2,0.4,1.4-0.7,1.9c-1.7,0.7-3.3,1.6-5.1,2.5
		c-0.4,0.2-1.1,0.4-1.4,0.6c-1.1,0.5-1.2,0.6-0.9,1.9c-0.4,0.2-0.6,0.5-1.3,0.4c-0.1-0.1-0.3,0-0.4,0.1c-1.1,0.5-2.2,1.3-3.3,1.8
		c-0.2,0.1-0.3,0.3-0.6,0.5c-0.3,0.3-1.1,0.4-1.4,0.2c0.1-1,1.4-0.7,1.7-1.7c-2,0.5-3.4,1.6-5.2,2c0-0.9,0.1-1.1,0.7-1.3
		c0.7-0.1,1.1-0.1,1.6-0.2c1.1,0,2.1-0.7,2.2-1.8c0.1-0.3,0.3-0.9,0.4-1.2c0-0.3,0-0.7-0.1-1.1c0.1-0.1,0.3-0.2,0.3-0.3
		c0.2-0.1,0.2-0.6,0-0.9c0,0,0,0,0-0.1c-0.5-0.3-0.9-1.2-1.7-0.5c-0.1,0-0.4-0.1-0.9-0.3c-0.3-0.2-0.7-0.5-1.1-0.5
		c-0.7,0-0.9-0.2-0.9-1c0-0.2,0-0.4,0-1.1c-0.2,0.3-0.3,0.3-0.4,0.5c-0.2,0.6-0.4,1.2-0.5,1.7c-0.1,0.3-0.4,0.7-1,0.9
		c0.2-1.2,0.2-1.3-0.9-1.8c-0.2-0.2-0.6-0.3-0.9-0.5l-1-0.5c0.4,1.3,0.6,1.3,1,1.5c1.3,0.5,1.3,0.5,0.3,1.5l-0.2,0.1l-0.2-0.7
		c-0.4,0.2-0.5,0.5-0.3,0.9c0,0.1,0.3,0,0.6,0l0.3,0.5l1.2-0.9l0.4,1l-1.2,1.1l1,0.4c-1,0.7,0.4,1.3,0,2.1l-1.9-2.1
		c-0.4,0-0.9-0.3-1.1-0.6c0-0.1-0.2-0.2-0.3-0.1c-0.1,0-0.3,0.2-0.2,0.3c-0.1,0.7-0.1,1.6-0.1,2.4h0.6c0.3,0,0.7,0.3,0.7,0.6
		c0,0.1,0,0.2,0.1,0.3c0.4,0.9,0.6,1.5,1.6,1.7c0.1,0,0.1,0.1,0.2,0.2s0,0.1,0,0.1c0,0.4-0.4,0.5-0.7,0.7c-1.1,0.5-2.2,1.1-3.3,1.6
		c-0.7,0.2-1.3,0.6-1.8,0.7c-1.6,0.7-3.2,1.5-4.8,2.2c-1,0.4-1,0.4-1.3-0.5c-0.2-0.4-0.4-1-0.5-1.2l0.5-0.6l-1.3-1.5
		c0.1-0.6,1.6-0.4,1-1.6c-0.3,0.2-0.5,0.5-1,0.7c-0.5,0.3-1,0.3-1.1-0.4c-0.1-0.9-0.4-1.6-1.1-2.4c-0.3-0.4-0.4-1.3,0.1-1.8
		c0.3,0.4,0.6,1.1,0.7,1.6c0.1,0.4,0.5,0.9,0.7,1.3h0.2l-0.2-2.1h0.1c0.1,0.5,0.4,1.1,0.7,1.4c0.5,0.3,1,0.6,1.5,1
		c0.1,0.5,0.3,0.5,0.9,0.5c0.3-0.1,0.4-0.3,0.4-0.7l0,0c0-0.6-0.6-0.9-1.7-0.6c0.5-0.9-0.3-1.4-0.4-2.1c0-0.1-0.1-0.2-0.1-0.2
		c-0.9-0.3-1.6-0.9-1.9-1.7l-0.3,0.7l-0.7-0.2c-0.1,0.1-0.2,0.4-0.4,0.6c-0.2,0-0.4,0.1-0.9,0.1c0-0.2,0-0.4,0.1-0.7
		c0.2-0.2,0.4-0.5,0.2-1.1l-1,0.5c-0.2-0.4-0.1-1,0.3-1.2l0,0c1-0.7,2-1.1,3.2-1.1l-0.4,1c0.6,0.5,1.5,1,1.5,2h2.2
		c0.2-0.6-0.3-0.5-0.5-1.1l-0.3-1.3l0.5-0.3c-0.7-0.7-1-1.8-2.2-2.2c0.6-0.4,1.5-0.6,1.3-1.5c0-0.2-0.5-0.4-1-0.6l0.6-0.9
		c0.7,1,1.2,1.9,2.7,1.9l0.4-1.3c-0.6-0.4-1.4,0.2-1.8-0.7c-0.5-0.9,0.4-1.1,0.5-1.7c-0.4-0.1-1,0.1-1.1,0.5c-0.7,1.2-2,1.4-3.2,1.6
		c-0.3,0.1-0.7-0.1-1-0.3c-0.3-0.5-0.9-1.2-1.7-0.5c-0.5-0.9,0.6-1,0.5-1.4c-0.3-0.3-0.7-0.2-1,0c-0.4,0.1-1.2,0.4-1.4-0.1
		c-0.2-0.5-0.4-1.3-0.5-1.8c0-0.4,0.4-0.6,1-0.5l2.2,0.7c0.1-0.4,0.2-1.1,0.3-1.4c0.2-0.4,0.5-0.7,0.9-1c-1.4-0.3-1.8,0.9-2.6,1.5
		c-0.1-1.1-0.4-2.1-0.4-3c-0.1-0.3,0.3-0.9,0.4-1.3c0.4,0.6,0.2,1.7,1.3,1.7l0.2,0.5l0.4-0.3L172.5,172.6z M213.6,139L213.6,139
		l-0.6,0.7c0.9-0.2,1.4-0.5,2.1-0.7c0.3-0.2,0.4-0.6,0.2-1l0,0c-0.1-0.4-0.6-0.3-0.9-0.2c-0.3,0.1-0.9,0.4-1.1,0.5
		C212.8,138.4,213,138.8,213.6,139L213.6,139z M179.4,196.3c0.2-0.1,0.4-0.3,0.4-0.9c-1-0.3-2-0.2-2.8-1.1c-0.3,0.5-0.3,0.9,0,1.1
		c0.2,0.2,0.7,0.4,1,0.5C178.5,196.6,179,196.7,179.4,196.3v1C179.8,196.8,179.5,196.6,179.4,196.3z M217,156.7
		c-0.3-0.3-0.6-0.5-1-0.6c-1-0.6-1.9-1.5-2.9-2.1c-0.4-0.2-0.6-0.5-0.3-1.2c0.2-0.2,0.2-0.6,0.3-1c0.5-2.1-0.7-4.1-2.7-4.6
		c-1-0.2-2,0-2.8,0.3c-1.6,0.6-3.1,1.4-4.7,2.2c-1,0.5-1,0.6-0.5,1.5c0.4,0.6,0.7,1.6,1.1,2.6c0.5,2.6,2,4.5,3.2,6.9
		c0.1,0.3,0.5,0.5,1,0.3c0,0,0,0,0.1,0c0.5-0.2,1.3-0.4,1.7-0.7c1-0.5,1.1-0.6,0.5-1.5c-0.2-0.5-0.5-1.2-0.7-1.7
		c0-0.2-0.1-0.5-0.4-1.1c0.6,0.3,1,0.5,1.5,0.9c0.7,0.5,1.3,1.2,2,1.5c0.3,0.2,0.9,0.4,1.2,0.3C214.7,158,215.8,157.4,217,156.7z
		 M223.2,158.7l-0.2,0.2c0.4,0.9,0.5,1.5,0.9,2.4c1.2,2.6,2.4,5.1,3.5,7.5c0,0.2,0.2,0.4,0.2,0.7c0.2,0.4,0.6,0.5,1.1,0.4
		c0.9-0.4,1.1-0.6,0.6-1.6c-0.4-1.1-0.9-2.1-1.3-3c-0.1-0.3-0.2-0.7-0.4-1.3c0.6,0.1,1.2,0.2,1.5,0.3c2.2,0.5,4.4,1.1,6.6,1.5
		c0.4,0.1,1.2,0.2,1.6,0.2c-0.4-1.4-1-2.7-1.6-4c-0.6-1.3-1.2-2.7-1.8-3.9c-0.4-1.3-1.2-2.6-1.8-3.7c-0.2,0-0.3,0.1-0.4,0.1
		c-1.3,0.3-1.3,0.6-0.7,1.8c0.4,1.2,0.9,2.1,1.4,3.1c0.1,0.3,0.1,0.7,0.3,1.1C229.3,160.3,226.4,159.3,223.2,158.7L223.2,158.7z
		 M185.8,160.9c0.2,0.1,0.4,0.1,0.9,0.2c0.2,0.1,0.6,0,0.9-0.1c0.3-0.3,0.9-0.6,1.3-0.3c0.4,0.3,1.1-0.1,1.3,0.6
		c0,0.1,0.4,0.1,0.4,0.1c0.2-0.1,0.1-0.3,0.2-0.7c-0.2-0.4-0.6-0.5-1.2-0.6c-0.4,0-1-0.1-1.4-0.4c-1.5-1.4-3.1-1.2-4.6-0.4
		c-1.9,0.9-3,2.6-3.9,4.4c-0.1,0.1,0.1,0.4,0,0.6c0.1,1.1,0.2,2,0.3,3.2c0.7,0.7,1.4,1.8,1.6,2.9c0.7,0.1,1.3,0.5,1.8,1.1
		c-0.1,0.4-0.6,1.1-0.2,1.6c0.4-0.1,1-0.5,1.4-0.7c0.4-0.5,1.3-0.7,1.8-0.4c0.2,0.1,0.4,0.1,0.9,0c1.7-0.6,3.2-1.6,4.1-3.4
		c0.6-1.3,0.5-1.5-0.9-2.1c-0.3-0.1-0.9,0-1.1,0.3c-0.2,0.2-0.3,0.6-0.5,0.7c-1.4,1.4-1.9,1.6-3.2,0.3c-1.1-1.2-1.8-2.7-1.9-4.2
		c0-0.3,0.1-0.7,0.1-1.1c0.1-0.1,0.2-0.2,0.4-0.6c0,0.3-0.1,0.7-0.1,1.2c0,0.2,0.2,0.3,0.3,0.4c0.2,0.1,0.3-0.1,0.5-0.2
		c0.4-0.7,1.2-1.2,0.7-2.1C185.8,161,185.8,161,185.8,160.9L185.8,160.9z M223.1,141.7c-0.1-0.1-0.1-0.2-0.2-0.2
		c-0.1-0.1-0.2-0.1-0.3-0.1c-1.9-0.4-4,0.2-5.4,1.7c-1.7,1.7-1.5,4.1,0.6,5.4c1,0.5,2,0.9,3.2,0.9c0.7,0,1.4,0,2.2,0
		c0.4-0.1,1,0.2,1,0.6c0,0.2,0,0.4-0.2,0.7c-0.1,0.3-0.5,0.7-0.7,1c-0.5,0.3-1.5,0.6-2.4,0.5c-0.4,0-1-0.1-1.5-0.2
		c-0.2-0.1-0.6,0-0.7,0c-0.2,0.6-0.3,1.1-0.3,1.5s0.5,0.5,1,0.5c2.4,0.4,4.6,0.1,6.5-1.6c1.4-1.1,2-2.9,1.7-4.5
		c-0.2-1.3-1.2-2.5-2.5-2.7c-0.9-0.1-1.8-0.2-2.6-0.1c-0.7-0.1-1.4,0-2.2,0c-0.3,0-0.9-0.3-0.9-0.7l0,0c0-0.3,0.3-0.7,0.7-0.9
		c0.5-0.1,1.1-0.1,1.6-0.1c1.1,0,1.2,0,1.4-1.2C223.2,142,223.1,141.9,223.1,141.7L223.1,141.7z M225.7,170.9
		c-0.5-1-9.4-8.5-10.5-8.8c-0.1,0.4-0.1,1.1-0.2,1.6c-0.1,3.6-0.1,7.3-0.3,11c0,0.3,0,0.7,0.1,1.1c1.6-0.2,2.1-0.4,2.1-1.8
		c0-0.4,0.3-1,0.7-1.2c0.5-0.2,1.1-0.5,1.5-0.7c0.5-0.3,1.5-0.4,2.1,0.1c0.2,0.2,0.6,0.3,1,0.3C223.7,172.3,224.9,171.8,225.7,170.9
		L225.7,170.9z M197.3,177.8c0.1-0.1,0.1-0.2,0.1-0.2c-0.3-1.1-0.3-1.1,0.6-1.6c0.3-0.2,0.7-0.2,0.5-0.7c-0.2-0.5-0.5-0.4-0.9-0.5
		c-0.3,0.1-0.9,0-1.1-0.4c0-0.1-0.2-0.2-0.4-0.2c-0.4-0.2-1-0.3-1.4-0.6c-0.1-0.1-0.2-0.1-0.4,0c0,0.1,0,0.1,0,0.2
		c1,1.3,1,1.4,0,2.5c-0.2,0.2-0.4,0.6-0.7,0.9c-0.3,0.1-0.6-0.1-1-0.1c0.5,1.4,1.6,1.3,2.7,1l0.4,1L197.3,177.8z M205.6,141.8
		l0.5,0.6c-0.3,0.2-0.6,0.4-1.1,0.6c-1.8,0.9-3.6,1.7-5.5,2.6c-0.9,0.4-1.4,0.6-2.2,0.7c-1,0.3-1,0.1-1.6,1.4
		c5.5-2.7,10.7-4.8,15.8-7.6V140l-4.6,2.1v-0.2l1.4-1.2l-0.1-0.2L205.6,141.8z M175.1,179.1c0.9,0.2,0.9,0.2,1.7-1.9
		c-1.6-0.1-1.6-0.1-2.1-0.6c-0.4,0-0.9,0.1-1.3,0.2c-0.2,0-0.2,0.3-0.3,0.6c0.1,0.2,0.3,0.3,0.6,0.3c0.2,0,0.5-0.1,0.9-0.2l1.1,0.6
		L175.1,179.1z M174.3,160.2c-0.3,0.6-0.6,1.2-1,1.7c-0.3,0.5-0.7,0.9-1.2,1.1l1.8,1.3c0.2-0.4,0.1-0.7-0.3-1.1
		c-0.3-0.3-0.4-1,0.1-1.1l0,0c0.3-0.3,1-0.7,1.3-1.1L174.3,160.2z M196.1,171.8c0.6,0.9,1.1,0.9,1.7,0.4c0.3-0.3,0.7-0.7,1.1-1V170
		c-0.7,0-0.9,0.1-0.9,0.5c0,1.1-0.5,1.2-1.4,1.2C196.3,171.6,196.3,171.7,196.1,171.8z M186.8,175.6h0.3l0.6-1.1
		c-0.6-0.3-0.6-1.1-0.3-1.6l0,0c0.1-0.1,0-0.2,0-0.4l-1.2,1.1L186.8,175.6z M204.4,181.8c-1.6,0.4-2,1.2-2,2.5
		c0.3-0.2,0.4-0.6,0.7-0.7C203.9,183.4,203.9,182.7,204.4,181.8L204.4,181.8z M192.4,173.4c1-0.3,1.5-0.7,1.4-1.1
		c0-0.2-0.3-0.3-0.5-0.4c-0.3-0.2-0.9-0.2-1.1,0L192.4,173.4z M189.2,179.3c0.9,1.1,1.6,1,2.1-0.2l-0.9-0.6
		C190.1,179,189.8,179.2,189.2,179.3L189.2,179.3z M183.5,176.4l0.7,1.7c0.2-0.1,0.3-0.5,0.5-0.7c0.1-0.3,0.4-1,0-1.3
		C184.3,176,183.9,176.4,183.5,176.4L183.5,176.4z M201.2,171.2c-1,0.1-1.4,0.5-1.4,0.9c0.1,0.5,0.5,0.6,1.2,0.6L201.2,171.2z
		 M186.8,162.1l0.1,0.3c0.9-0.4,1.2,0.6,1.9,0.4c-0.1-0.7-0.7-1.2-1.5-1.3C187.2,161.6,187,161.9,186.8,162.1L186.8,162.1z
		 M188.3,182.7c0,0.2,0.1,0.4,0.2,0.7c0.2,0.3,0.7,0.3,0.9,0.1l0,0c0.2-0.3,0.1-0.6-0.1-0.9C189.2,182.3,188.7,182.2,188.3,182.7
		L188.3,182.7z M182.6,194.9c0.7,0.5,1.1,0.1,1.6-0.2c0.1,0,0.1-0.3,0.2-0.6c-0.1-0.1-0.3-0.1-0.4-0.1
		C183.5,194.4,183.2,194.6,182.6,194.9z M191.7,182.9c1.1,0.4,1.5,0.2,1.5-0.7L191.7,182.9z M186.6,177.2c-0.3-0.2-0.2-0.9-0.7-1.1
		c-0.3,0.3-0.4,0.6-0.1,0.9C186.2,177.2,186.3,177.6,186.6,177.2L186.6,177.2z M185,165l0.1,0.2c0.3-0.1,0.7-0.1,1.1-0.4
		c0.1,0,0.1-0.3,0.2-0.7c-0.2-0.1-0.4-0.1-0.6-0.1C185.4,164.5,185.2,164.7,185,165L185,165z M196.9,168.2c0.2,0.3,0.6,0.4,1,0.2
		h0.1c0.3-0.3,0.2-0.7,0-1.1L196.9,168.2z M176.1,160.5c-0.3,0.2-0.5,0.6-0.3,1v0.1c0.1,0.2,0.5,0.3,0.7,0.1L176.1,160.5z
		 M185.3,186c0.1,0.2,0.2,0.4,0.3,0.3c0.2,0.1,0.3,0.1,0.6,0.1c0,0,0.2-0.2,0-0.3c-0.1-0.2-0.3-0.2-0.6-0.3
		C185.7,185.7,185.5,185.8,185.3,186L185.3,186z M198.4,189.8c-1.2-0.1-1.2-0.1-1.5,0.7L198.4,189.8z M218,136v-0.2l-1.8,1
		C216.9,137,217.2,136.2,218,136z M197.3,181.8c0.1-0.9,0.1-0.9-0.3-1.3C196.7,181.1,197,181.4,197.3,181.8L197.3,181.8z
		 M184.3,182.5c0.2,0.4,0.4,0.6,1,0.5C185,182.4,185,182.4,184.3,182.5L184.3,182.5z M221.7,135.5L221.7,135.5
		c-0.1-0.1-0.2-0.1-0.3,0l-2.6,1.2v0.2l2.6-1.2C221.5,135.6,221.6,135.6,221.7,135.5L221.7,135.5z M183.1,179.3
		c0.6,0.3,0.9,0.1,1.1-0.5L183.1,179.3z M181.5,184.3c0.2-0.6,0.1-0.9-0.4-1.1C181,183.7,180.8,184.1,181.5,184.3L181.5,184.3z
		 M185.4,173.3l0.5-0.9C185.3,172.3,185.3,172.3,185.4,173.3L185.4,173.3z M174.4,169.1l-1,0.5C174.2,170.1,174.5,170,174.4,169.1
		L174.4,169.1z M182.2,182.5l-0.2,0.6c0.1,0.1,0.3,0.1,0.4,0.1c0.1,0,0.2-0.2,0.2-0.2C182.5,182.6,182.4,182.4,182.2,182.5
		L182.2,182.5z M197.9,180.1c0.1-0.2,0.2-0.4,0.1-0.3c-0.1-0.1-0.3-0.2-0.6-0.3c-0.1,0.1-0.2,0.2-0.1,0.3
		C197.5,179.8,197.7,180,197.9,180.1L197.9,180.1z M180.5,189.3l0.3-0.1l-0.1-1.1l-0.3,0.1L180.5,189.3z M196.2,169.3
		c-0.1,0.2,0,0.4-0.1,0.7l0.2,0.1C196.9,169.7,196.9,169.5,196.2,169.3L196.2,169.3z M186.7,165.7c-0.5,0.1-0.9,0.2-1.1,0.7
		C186.2,166.5,186.5,166.3,186.7,165.7L186.7,165.7z M175,167.5l0.2,0.2c0.3-0.1,0.5-0.2,0.3-1L175,167.5z M189.2,163.5l-0.2,0.2
		l0.7,0.4l0.2-0.2L189.2,163.5z M197.1,145.7v0.2l1.1-0.6V145L197.1,145.7z M191.1,158c-0.6-0.2-0.6-0.1-0.5,0.5L191.1,158z
		 M198.6,185.5c-0.1-0.1-0.3-0.1-0.4-0.1c-0.1,0-0.1,0.1-0.2,0.2c0.1,0.1,0.2,0.2,0.3,0.1C198.5,185.9,198.5,185.7,198.6,185.5
		L198.6,185.5z M188.4,173.8l0.1,0.2l0.5-0.3l-0.1-0.2L188.4,173.8z M190.8,173.5l-0.3-0.1l-0.1,0.3c0.1,0.1,0.2,0.1,0.3,0.1
		C190.8,173.7,190.9,173.6,190.8,173.5L190.8,173.5z M190.7,165.2c0.2,0.1,0.3,0.1,0.4,0c0.1-0.1,0.2-0.2,0.1-0.3l-0.2-0.1
		C191,164.9,190.8,165.1,190.7,165.2L190.7,165.2z M188,181.6c-0.2-0.1-0.3,0-0.4,0c-0.1,0-0.1,0.2-0.1,0.3c0.1,0,0.2,0.1,0.3,0
		C187.9,181.9,188,181.8,188,181.6L188,181.6z M174.5,166.5c0.1-0.1,0.1-0.2,0-0.3l-0.2-0.1c-0.1,0.1-0.1,0.2-0.1,0.3L174.5,166.5z
		 M200.6,183.2l0.1,0.2l0.3-0.5l-0.1-0.2L200.6,183.2z M179.6,190.5c-0.1,0-0.2-0.1-0.2-0.1c-0.1,0-0.1,0.1-0.1,0.2
		c0,0.1,0.1,0.1,0.2,0.1C179.6,190.8,179.6,190.6,179.6,190.5L179.6,190.5z M194.2,183.7c-0.1-0.1-0.2-0.2-0.2-0.2
		c-0.1,0-0.1,0.1-0.2,0.2c0.1,0.1,0.1,0.1,0.2,0.2C194.1,183.8,194.1,183.8,194.2,183.7L194.2,183.7z M205.8,184.1h-0.2v0.6h0.2
		V184.1z M183.9,174.7c-0.1-0.1-0.2-0.1-0.3-0.1l-0.1,0.2c0.1,0.1,0.1,0.2,0.2,0.2C183.7,175.1,183.8,175.1,183.9,174.7L183.9,174.7
		z M179.3,187.7l0.1-0.1l-0.4-0.2l-0.1,0.1L179.3,187.7z M181.5,172.2l-0.1,0.2l0.6,0.2l0.1-0.1
		C181.9,172.4,181.8,172.3,181.5,172.2z M172.5,166.4l0.1-0.1c0,0,0-0.1-0.1-0.1l-0.2,0.1L172.5,166.4z M199.2,182.8
		c-0.1-0.1-0.2-0.2-0.3,0c-0.1,0-0.1,0.1-0.1,0.2c0,0.1,0.1,0.1,0.1,0.2L199.2,182.8z M193.9,179.5l0.1-0.1c0,0,0-0.1-0.1-0.1V179.5
		L193.9,179.5z M199.3,176.7l-0.1-0.1l-0.1,0.1l0.1,0.1L199.3,176.7z M217,137.6l-0.2-0.1l-0.6,0.4v0.1L217,137.6z M178.4,164.2
		l-0.1,0.1c0,0,0,0.1,0.1,0.1l0.1-0.1L178.4,164.2z M179.7,184.5h-0.3c0,0.1-0.1,0.1-0.1,0.2l0.1,0.1
		C179.3,184.9,179.5,184.6,179.7,184.5L179.7,184.5z M200,174.3l0.2-0.2c-0.1,0-0.1-0.1-0.2-0.1l-0.1,0.1
		C199.8,174.3,199.8,174.3,200,174.3L200,174.3z M179.8,170.2l-0.1-0.1l-0.1,0.2c0.1,0,0.1,0,0.1,0
		C179.8,170.3,179.8,170.2,179.8,170.2L179.8,170.2z M199.9,189c-0.1-0.1-0.2-0.1-0.2-0.1l-0.1,0.1l0.1,0.2
		C199.8,189.2,199.8,189,199.9,189L199.9,189z M201.3,186.9L201.3,186.9l0.1-0.1L201.3,186.9C201.3,186.7,201.3,186.7,201.3,186.9
		L201.3,186.9z M193.3,175L193.3,175l-0.1,0.1l0.1,0.1V175z M181.2,180.3l-0.1-0.1l-0.1,0.1l0.1,0.1
		C181,180.4,181,180.2,181.2,180.3L181.2,180.3z M195,172.4l-0.1-0.1c0,0.1-0.1,0.2-0.1,0.2l0.1,0.1L195,172.4z M182.7,177.5
		c-0.1-0.1-0.1-0.1-0.1-0.1c-0.1,0-0.1,0.1-0.2,0.1c0.1,0,0.1,0.1,0.2,0.1C182.6,177.8,182.7,177.5,182.7,177.5L182.7,177.5z
		 M171,176.7c-0.1,0-0.2-0.1-0.3,0l-0.1,0.1c0.1,0.1,0.1,0.1,0.2,0.2C170.9,176.8,171,176.7,171,176.7L171,176.7z M185.5,181.4
		c0.1,0,0.1,0.1,0.2,0c0.1-0.1,0-0.1,0.1-0.1c0.1,0-0.1-0.1-0.2-0.1C185.3,181.1,185.4,181.3,185.5,181.4L185.5,181.4z M201.2,174.8
		c0,0.1-0.1,0.1-0.1,0.2l0.1,0.1c0-0.1,0.1-0.1,0.1-0.2L201.2,174.8z M182.1,191.3l-0.1,0.1l0.1,0.1l0.1-0.1L182.1,191.3z
		 M193.7,149.9l-0.1,0.1l0.3,0.2l0.1-0.1L193.7,149.9z M172.7,164.6l0.1-0.1c0,0,0-0.1-0.1-0.1c-0.1,0-0.1,0-0.2,0.1L172.7,164.6z
		 M188.1,176.7l-0.1-0.1l-0.1,0.1C188,176.7,188,176.8,188.1,176.7L188.1,176.7z M182.1,171.5C182.1,171.5,182.1,171.4,182.1,171.5
		C182.1,171.4,181.9,171.4,182.1,171.5L182.1,171.5L182.1,171.5z M174.4,174.7C174.4,174.7,174.4,174.8,174.4,174.7
		C174.4,174.8,174.4,174.8,174.4,174.7L174.4,174.7L174.4,174.7z M186.3,192.3L186.3,192.3l-0.1,0.1L186.3,192.3L186.3,192.3
		L186.3,192.3z M177.8,182.8l-0.1-0.1l-0.1,0.1c0,0,0,0,0,0.1L177.8,182.8z M179.7,178.6L179.7,178.6L179.7,178.6L179.7,178.6z
		 M175.1,162.9L175.1,162.9L175.1,162.9L175.1,162.9z M191.5,178.1L191.5,178.1L191.5,178.1L191.5,178.1z M179,194.2L179,194.2
		l-0.1,0.1L179,194.2C179,194.3,179,194.3,179,194.2L179,194.2z M200.1,184.5L200.1,184.5L200.1,184.5L200.1,184.5z"/>
	<path class="st0" d="M186.4,132.2l-1.4-2.4c-0.3,0.3-0.6,0.6-0.9,1c-1.3,1.6-3,1.9-4.5,0.5c-2.4-2-3.5-5.2-2.8-8.3
		c0.1-1.4,1.5-2.5,2.8-2.4c0,0,0.1,0,0.1,0.1c0.6,0,1.2,0.3,1.5,1c0.5,1.2,1.4,2.4,1.3,3.7c0,0.1,0,0.2,0.1,0.4c1,0.7,1.3,2,1.9,3.1
		c0,0.1,0.1,0.2,0.4,0.2l-0.3-1.4C185.4,128.1,186.5,130.6,186.4,132.2z"/>
	<path class="st0" d="M241.7,152.9c0.5-0.2,1.2-0.3,1.6,0.1c1.6,1.1,2.7,2.8,2.8,4.7c0,0.4-0.2,1.1-0.4,1.5c-0.3,0.7-0.6,0.6-1.1,0
		c0-0.1-0.1-0.2-0.2-0.4c-0.9-1.8-1.7-3.7-2.5-5.6C241.9,153.3,241.7,153,241.7,152.9z"/>
	<path class="st0" d="M407.3,86.4c0.2,0.7,0.6,1.3,0.9,1.9c0,0.2,0.1,0.3,0.1,0.5c0.6,1.3,0.9,1.4,2.1,0.7c0.7-0.2,1.3-0.6,2.1-0.7
		c-0.2,0.1-0.2,0.3-0.4,0.5c-0.5,0.2-1.1,0.5-1.6,0.7c-1,0.5-1.1,0.5-0.7,1.8c-0.2-0.3-0.3-0.3-0.5-0.5c-0.3-0.3-0.9-0.4-1.3-0.2
		c-1.6,0.9-3.3,1.8-4.9,2.7c-2.6,1.3-5.1,2.5-7.6,3.5c-0.4,0.2-1,0.4-1.4,0.6c0.1-0.3,0.5-0.7,1.1-0.9c1.9-1,3.9-2,5.8-2.9
		c2.4-1.2,4.6-2.1,7-3.3c1.1-0.5,1.3-0.9,0.6-2c-0.4-1-0.7-1.6-1.2-2.5L407.3,86.4z"/>
	<path class="st0" d="M155.6,108c0.2,0.5,0.5,1.1,0.7,1.6c0.3,1.1,0.7,1.9,1.7,2.8c0.4,0.2,0.6,0.6,0.5,1.2
		c-0.2,1.1,0.4,1.8,0.7,2.6c0.2,0.4,0.4,0.6,0.6,1.2c0.3,0.4,0.2,0.9-0.4,1.2c-0.2-0.7-0.4-1.3-0.7-1.8c-0.6-1.3-1.1-2.6-1.5-3.7
		c-0.5-1-1.2-1.9-1.5-3c-0.1-0.5-0.3-1.2-0.4-1.7L155.6,108z"/>
	<path class="st0" d="M315.9,119.9c0,0.1,0.1,0.3,0.2,0.4c0.2,0.4,0,1-0.4,1.1h-0.1c-0.5,0.2-0.9,0.1-1.1-0.5
		c-0.2-0.4-0.5-0.9-0.6-1.3c-0.2-0.4,0-1,0.4-1.2l0,0c0.4-0.2,1-0.1,1.2,0.3l0,0C315.7,119.1,315.7,119.5,315.9,119.9z"/>
	<path class="st0" d="M153.4,105.2l-0.1-1.5l3.7-1.8c0.3,0.4,0.4,1-0.1,1c-0.3,0.1-0.7,0.1-1.1,0.4c-0.3,0.2-0.4,0.3-0.6,0.7
		C154.8,104.9,154.7,105.1,153.4,105.2z"/>
	<path class="st0" d="M364,128.1c-1-1.1-4.3-8.2-4.4-9.2c0.9,1,0.9,2.1,1.5,3c0.5,1,1.1,2,1.4,3.1C363,126.2,363.5,127.2,364,128.1z
		"/>
	<path class="st0" d="M412.8,110.4l-7.1,3.3C406.6,112.9,411.9,110.3,412.8,110.4z"/>
	<path class="st0" d="M254.6,53.8c0.2-0.4,0.7-0.9,1.3-1c0.9-0.2,1.6-0.4,2.4-0.6c0.1,0,0.3,0,0.3,0.1s0,0.4-0.1,0.4
		c-0.4,0.2-0.9,0.4-1.3,0.5c-0.3,0.3-1.1,0.4-1.5,0.2C255.5,53.4,255,53.6,254.6,53.8z"/>
	<path class="st0" d="M204.5,187.2c-0.1,1-0.9,1.8-1.9,1.8c-0.2,0-0.3-0.1-0.7-0.3c0.1-0.1,0.1-0.4,0.3-0.6
		C202.8,187.6,203.6,187.2,204.5,187.2z"/>
	<path class="st0" d="M398.1,111.2c-0.1-0.1-0.3-0.2-0.3-0.3c-0.9-1.9-1.8-4-2.5-5.9c0.1,0.1,0.1,0.2,0.1,0.2
		c0.7,1.7,1.7,3.6,2.7,5.4c0,0.2,0.1,0.5,0.2,0.9L398.1,111.2z"/>
	<path class="st0" d="M193.2,187.9c0.2,0.4,0.1,0.9-0.2,1.1l0,0c-0.4,0.2-1,0.1-1.2-0.3v-0.1c-0.2-0.4-0.1-0.9,0.3-1.2
		C192.4,187.3,193,187.5,193.2,187.9L193.2,187.9z"/>
	<path class="st0" d="M192.3,186.3c0.2,0.1,0.6,0,0.7,0.1c0.6,0.3,1.1,0.7,1.4,1.5c0.4,1,0.2,1.4-1,1.8c0.1-0.3,0.3-0.9,0.4-1.3
		c0-0.4-0.1-0.9-0.4-1.3c-0.3-0.2-0.7-0.5-1.2-0.6V186.3z"/>
	<path class="st0" d="M425.9,83.5c-0.9-1.4-1.6-0.1-2.7,0c0.2-0.1,0.4-0.5,0.9-0.6c0.7-0.2,1.1-0.6,0.6-1.7
		C425.5,82.1,426.2,82.5,425.9,83.5z"/>
	<path class="st0" d="M416.8,107.1l0.5,1.2l-3.5,1.5v-0.2c0.4-0.3,1.2-0.7,1.8-1C416.3,108.4,416.7,107.9,416.8,107.1z"/>
	<path class="st0" d="M426.8,103.6c-1.5,0.9-3.1,1.6-4.7,2.2v-0.2l2.5-1.2l2.5-1.2L426.8,103.6z"/>
	<path class="st0" d="M405.3,82.5c-1-1.5-1.7-3.1-2.2-4.6C404.2,79.3,404.5,81,405.3,82.5z"/>
	<path class="st0" d="M191.1,189.2c0-0.2-0.2-0.3-0.1-0.5c0-0.6,0-1.2-0.1-1.8c0-0.4,0-0.9,0.6-1.1l-0.2,3.3L191.1,189.2z"/>
	<path class="st0" d="M181.9,121.3c0.9,0.5,0.7,1.3,1,1.9C182.1,123.2,181.7,122.4,181.9,121.3z"/>
	<path class="st0" d="M432.1,100.6c0.7-0.2,1.1-1,1.8-1.2l0.2,1.9C433.9,100.6,433,100.7,432.1,100.6L432.1,100.6z"/>
	<path class="st0" d="M307.1,148l1.7,3.6C308,150.6,307.3,149.4,307.1,148z"/>
	<path class="st0" d="M313.7,105.3c0.4,0.1,1,0.2,1,0.7c-0.1,0.3-0.4,0.5-0.6,0.4l0,0C313.3,106.3,313.4,105.7,313.7,105.3z"/>
	<path class="st0" d="M438.1,98l-2.6,1.3C436,98.5,437.1,97.9,438.1,98z"/>
	<path class="st0" d="M196.7,196.3l1.8,3.7C197.3,199,197,197.5,196.7,196.3z"/>
	<path class="st0" d="M419.5,85.1l2.2-1.1c-0.5,0.5-1.4,1-1.9,1.3L419.5,85.1z"/>
	<path class="st0" d="M245.4,60.5l1.6,1.4C246,62,245.6,61.6,245.4,60.5z"/>
	<path class="st0" d="M400,116.7l0.1-0.7l1.3-0.2C401,116.4,401,116.4,400,116.7z"/>
	<path class="st0" d="M227.3,123.8c-0.1-0.7-1.3-0.6-1.4-1.6C226.7,122.2,226.7,122.2,227.3,123.8z"/>
	<path class="st0" d="M422.9,77.8l-1.4-3.1h0.1l1.5,3.1H422.9z"/>
	<path class="st0" d="M251.5,56.5l-1.1-0.5c0.2-0.3,0.5-0.5,1.1-0.6C251.6,55.7,251.6,56.3,251.5,56.5z"/>
	<path class="st0" d="M162.6,101.2c0.4-0.9,0.5-0.9,1.5-0.6C163.8,100.9,163.3,101.2,162.6,101.2z"/>
	<path class="st0" d="M180.8,119.4c0.7,0.2,1,0.4,0.7,1.1C180.8,120.2,180.8,120.2,180.8,119.4z"/>
	<path class="st0" d="M413.2,88.1l1.8-0.7C414.4,88.1,414.1,88.4,413.2,88.1z"/>
	<path class="st0" d="M254.7,163.5l1.4-0.3C255.5,164.2,255.3,164.3,254.7,163.5z"/>
	<path class="st0" d="M432.1,100.6c-0.5,0.6-1.3,1.2-2,1.3v-0.2L432.1,100.6L432.1,100.6z"/>
	<path class="st0" d="M415.4,104.1l0.7,1.7h-0.1L415.4,104.1L415.4,104.1z"/>
	<path class="st0" d="M414.6,102.5l-0.7-1.4C414.4,101.6,414.4,101.6,414.6,102.5z"/>
	<path class="st0" d="M324.4,137.1l0.9,1.8C324.4,138.6,324.1,137.7,324.4,137.1z"/>
	<path class="st0" d="M411.4,96.1l-1.3-2.8C411,94.2,411.4,95.1,411.4,96.1L411.4,96.1z"/>
	<path class="st0" d="M196.4,162.1c-0.4,0.1-0.9,0.4-0.9,0.2c-0.1-0.2-0.2-0.4-0.2-0.7l0.2-0.1L196.4,162.1z"/>
	<path class="st0" d="M250,59.8c-0.4,0.2-1.1,0.1-1.3-0.4c0,0,0,0,0-0.1C249.1,59.4,249.7,59.5,250,59.8z"/>
	<path class="st0" d="M325.9,130.5l1.6-0.6v0.1l-1.6,0.7V130.5z"/>
	<path class="st0" d="M155,107.1c-0.7-0.4-0.7-0.4-0.5-1C155,106.2,155,106.5,155,107.1z"/>
	<path class="st0" d="M404.5,114.5l-1,0.4v-0.2l1-0.4V114.5z"/>
	<path class="st0" d="M411.4,96.1c0.6,0.5,1.1,1.3,1.2,2L411.4,96.1L411.4,96.1z"/>
	<path class="st0" d="M399.7,114.7l-0.4-1.2h0.1l0.5,1.1L399.7,114.7z"/>
	<path class="st0" d="M376.9,110.4l0.2,0.5H377l-0.3-0.4L376.9,110.4z"/>
	<path class="st0" d="M167.5,100.3c-0.1,0.1-0.1,0.2-0.1,0.2c-0.1,0-0.2,0-0.2-0.1s0-0.2,0.1-0.2
		C167.3,100.3,167.4,100.3,167.5,100.3z"/>
	<path class="st0" d="M428.2,88.4l-0.5-1.2h0.1L428.2,88.4L428.2,88.4z"/>
	<path class="st0" d="M359,118.3l-0.1-0.7h0.1l0.2,0.7H359z"/>
	<path class="st0" d="M335.3,126.1l-0.5,0.1V126l0.5-0.2V126.1z"/>
	<path class="st0" d="M428.4,102.8l-0.5,0.1c0.1-0.1,0.1-0.1,0.2-0.2C428,102.7,428.2,102.7,428.4,102.8z"/>
	<path class="st0" d="M195.7,153.3l0.2,0.3l-0.1,0.1l-0.3-0.2L195.7,153.3z"/>
	<path class="st0" d="M326.4,141.5l-0.2,0.2c0-0.1-0.1-0.1-0.1-0.2s0.1-0.1,0.2-0.2C326.3,141.4,326.3,141.5,326.4,141.5z"/>
	<path class="st0" d="M379.5,116l0.3,0.5h-0.1L379.5,116L379.5,116z"/>
	<path class="st0" d="M406,84l0.5,1h-0.1L406,84L406,84z"/>
	<path class="st0" d="M196.9,155.5l-0.2,0.2c-0.1,0-0.1-0.1-0.2-0.2c0,0,0-0.1,0.1-0.1C196.8,155.5,196.9,155.5,196.9,155.5z"/>
	<path class="st0" d="M419.9,106.9l-0.4,0.2c0-0.1,0-0.1,0-0.1s0.2-0.1,0.3-0.3L419.9,106.9z"/>
	<path class="st0" d="M218,196.1l-0.2-0.3l0.1-0.1l0.3,0.2L218,196.1z"/>
	<path class="st0" d="M346.8,138.1l-0.1,0.1l-0.1-0.1c0,0,0-0.1,0.1-0.1L346.8,138.1z"/>
	<path class="st0" d="M418.3,85.9l-0.2-0.2l0.1-0.1c0.1,0,0.1,0,0.2,0.1L418.3,85.9z"/>
	<path class="st0" d="M416.7,86.5c-0.1,0.1-0.1,0.1-0.2,0.1c0,0-0.1,0-0.1-0.1c0.1-0.1,0.1-0.1,0.2-0.2
		C416.6,86.5,416.7,86.5,416.7,86.5z"/>
	<path class="st0" d="M209.7,183l-0.3-0.3l0.1-0.1l0.3,0.3L209.7,183z"/>
	<path class="st0" d="M246.8,167.9c-0.1,0.1-0.1,0.1-0.1,0.1c-0.1,0-0.2,0-0.2-0.1c0-0.1,0.1-0.2,0.1-0.2
		C246.5,167.8,246.6,167.8,246.8,167.9z"/>
	<path class="st0" d="M389.4,121.8l0.1-0.1c0,0,0.1,0,0.1,0.1l-0.1,0.1C389.5,121.9,389.5,121.8,389.4,121.8z"/>
	<path class="st0" d="M287.5,155l0.1,0.1v0.1h-0.1V155z"/>
	<path class="st0" d="M193.3,193l-0.3,0.3l-0.1-0.1l0.3-0.3L193.3,193z"/>
	<path class="st0" d="M234.2,183.1l0.1,0.4h-0.1V183.1L234.2,183.1z"/>
	<path class="st0" d="M366.2,9.8l0.3,0.1l-0.1,0.3l-0.3-0.1L366.2,9.8z"/>
	<path class="st0" d="M254.8,179.7l0.2,0.4h-0.1L254.8,179.7L254.8,179.7z"/>
	<path class="st0" d="M346.1,136.8l-0.1-0.1v-0.1h0.1V136.8z"/>
	<path class="st0" d="M156.8,103.8l0.1,0.1l-0.1,0.1l-0.1-0.1L156.8,103.8z"/>
	<path class="st0" d="M364.8,11.5c0,0-0.1,0-0.2,0l-0.1-0.1l0.1-0.1L364.8,11.5z"/>
	<path class="st0" d="M250.8,58.5l-0.1,0.1l-0.1-0.1l0.1-0.1L250.8,58.5z"/>
	<path class="st0" d="M427,85.6l0.2,0.4h-0.1L427,85.6L427,85.6z"/>
	<path class="st0" d="M161.7,101.3L161.7,101.3l-0.1-0.2h0.1C161.5,101.2,161.5,101.2,161.7,101.3z"/>
	<path class="st0" d="M322.5,133.7c0,0,0.1,0,0.1,0.1c0,0.1,0,0.1,0,0.2c-0.1,0-0.1-0.1-0.2-0.1
		C322.5,133.8,322.5,133.7,322.5,133.7z"/>
	<path class="st0" d="M228.4,126.7c0,0,0,0.1-0.1,0.1s-0.1,0-0.1-0.1c0,0,0-0.1,0.1-0.1L228.4,126.7z"/>
	<path class="st0" d="M424.1,79.8V80l-0.1-0.1L424.1,79.8L424.1,79.8z"/>
	<path class="st0" d="M191.6,190.8h0.2c0,0,0,0.1-0.1,0.1L191.6,190.8C191.7,190.8,191.6,190.8,191.6,190.8z"/>
	<path class="st0" d="M241,153.8l-0.1,0.1c0,0-0.1,0-0.1-0.1s0-0.1,0-0.2L241,153.8z"/>
	<path class="st0" d="M355.8,14.9l-0.1,0.1l-0.1-0.1c0,0,0-0.1,0.1-0.1C355.7,14.7,355.7,14.9,355.8,14.9z"/>
	<path class="st0" d="M309.7,153.4l0.2,0.3h-0.1L309.7,153.4L309.7,153.4z"/>
	<path class="st0" d="M430.3,92.6l-0.2-0.3C430.1,92.5,430.2,92.4,430.3,92.6C430.3,92.5,430.3,92.5,430.3,92.6z"/>
	<path class="st0" d="M379.1,114.6l-0.1,0.1c0,0-0.1,0-0.1-0.1C378.9,114.7,378.9,114.7,379.1,114.6L379.1,114.6z"/>
	<path class="st0" d="M343.6,131.7c0,0,0-0.1-0.1-0.1v-0.1L343.6,131.7L343.6,131.7z"/>
	<path class="st0" d="M325.7,140l0.2,0.3h-0.1L325.7,140L325.7,140z"/>
	<path class="st0" d="M356.6,19.2L356.6,19.2C356.6,19.1,356.6,19.1,356.6,19.2C356.6,19.1,356.6,19.2,356.6,19.2L356.6,19.2z"/>
	<path class="st0" d="M257.6,162.4l0.1-0.1l0.1,0.1v0.1C257.7,162.4,257.7,162.4,257.6,162.4z"/>
	<path class="st0" d="M378,112.7L378,112.7l-0.1-0.1L378,112.7L378,112.7z"/>
	<path class="st0" d="M342.9,129.8c0,0,0,0.1-0.1,0.1h-0.1v-0.1H342.9z"/>
	<path class="st0" d="M151.3,105.5L151.3,105.5L151.3,105.5z"/>
	<path class="st0" d="M388.4,122.3L388.4,122.3L388.4,122.3l-0.1,0.1L388.4,122.3z"/>
	<path class="st0" d="M424.2,75.9C424.2,75.9,424.2,76,424.2,75.9C424.2,76,424.2,76,424.2,75.9L424.2,75.9L424.2,75.9z"/>
	<path class="st0" d="M362.6,10.8L362.6,10.8l0.1,0.1C362.8,11,362.8,11,362.6,10.8C362.6,10.9,362.6,10.9,362.6,10.8z"/>
	<path class="st0" d="M241.4,155.1c0,0,0-0.1,0.1-0.1h0.1v0.1H241.4z"/>
	<path class="st0" d="M241.6,156.6L241.6,156.6C241.5,156.6,241.5,156.6,241.6,156.6C241.5,156.6,241.5,156.5,241.6,156.6
		L241.6,156.6z"/>
	<polygon class="st0" points="157.8,105.9 157.9,105.9 157.8,106.1 	"/>
	<path class="st0" d="M196.2,86.8h-0.6v-0.2l0.4-0.1L196.2,86.8z"/>
	<path class="st0" d="M200.6,85.3l-0.4,0.3l-0.1-0.2l0.4-0.3L200.6,85.3z"/>
	<path class="st0" d="M185.3,93.9c-0.1,0.1-0.1,0.2-0.2,0.2c-0.1,0-0.1,0-0.1-0.1s0-0.1,0-0.2L185.3,93.9z"/>
	<path class="st0" d="M192.7,88.2l0.1,0.1v0.1c-0.1,0-0.1,0-0.2,0L192.7,88.2z"/>
	<path class="st0" d="M275.7,47.1c0.3-0.1,0.9-0.6,1.1-0.1c0.2,0.4-0.3,0.6-0.6,0.6c-0.3,0.1-0.9,0.6-1.1,0.1
		C274.7,47.3,275.4,47.3,275.7,47.1z"/>
	<path class="st0" d="M268.6,50.6c0.4,0,0.7,0.3,0.6,0.5c-0.1,0.2-0.3,0.3-0.5,0.5C268.4,51.1,268.5,50.9,268.6,50.6z"/>
	<path class="st0" d="M273.5,48.3c0.1,0.2,0.2,0.2,0.3,0.2c0,0.1-0.1,0.2-0.1,0.2s-0.2-0.1-0.3,0C273.4,48.6,273.5,48.5,273.5,48.3z
		"/>
	<path class="st0" d="M265.1,52.4l0.5,0.4l-0.2,0.1l-0.5-0.4L265.1,52.4z"/>
	<path class="st0" d="M273,47.9l-0.1,0.1l-0.1-0.1l0.1-0.1L273,47.9z"/>
	<path class="st0" d="M270.8,50C270.8,50,270.7,50.3,270.8,50C270.7,50.2,270.7,50.2,270.8,50L270.8,50L270.8,50z"/>
	<path class="st0" d="M292.8,40.3c-0.2-0.4-0.7-0.7-0.5-1.4c1.6,0.7,2.5,0.6,2.9-0.6c0.6,0.5,0.5,1.2-0.2,1.5
		c-0.4,0.1-0.9,0.2-1.3,0.3C293.4,40.1,293.1,40.2,292.8,40.3L292.8,40.3z"/>
	<path class="st0" d="M284.2,41.6c0.2,0.4,0.5,0.9-0.1,1.2C283.7,42.4,283.9,42.2,284.2,41.6z"/>
	<path class="st0" d="M296.1,40.9l-0.1-0.1l0.2-0.1l0.1,0.1C296.3,40.7,296.1,40.8,296.1,40.9z"/>
	<path class="st0" d="M285.2,44.5C285.2,44.5,285.2,44.6,285.2,44.5C285.2,44.6,285.1,44.6,285.2,44.5L285.2,44.5L285.2,44.5z"/>
	<path class="st0" d="M294.1,40.7L294.1,40.7l-0.1,0.1L294.1,40.7C294,40.8,294,40.8,294.1,40.7z"/>
	<path class="st0" d="M238.2,65c-0.1-1.1,0-1.2,0.9-1.3l1.4-0.3l0.6,1.3c-0.3,0.3-1,0.5-1.4,0.3C239,65,238.6,65,238.2,65z"/>
	<path class="st0" d="M231,69.6l1.3-0.5c0.1,0.4,0.1,0.4-0.9,1.1L231,69.6L231,69.6z"/>
	<path class="st0" d="M235.7,67.6l-0.1-0.1c0-0.1,0.1-0.1,0.1-0.2l0.2,0.1L235.7,67.6z"/>
	<path class="st0" d="M228.4,72.1L228.4,72.1l-0.1-0.1L228.4,72.1C228.3,72,228.3,72,228.4,72.1z"/>
	<path class="st0" d="M237.3,66.8L237.3,66.8l-0.1-0.1L237.3,66.8C237.3,66.6,237.3,66.7,237.3,66.8z"/>
	<path class="st0" d="M314.5,31.7c0.2-0.1,0.3-0.3,0.5-0.5c0.1,0,0.2,0,0.2,0c0.2,0.1,0.3,0.2,0.2,0.5c0,0.1-0.1,0.1-0.2,0.1
		C315.3,32.1,314.7,31.9,314.5,31.7z"/>
	<path class="st0" d="M302.8,35.1c0.2,0,0.3-0.1,0.6,0c0,0.1,0,0.2,0,0.2l-0.5,0.1L302.8,35.1z"/>
	<path class="st0" d="M332.5,27.7l-2.2,0.5c0.3-0.7,0.9-1.1,1.6-1.1C332.2,27.3,332.2,27.3,332.5,27.7z"/>
	<path class="st0" d="M321.9,31.4c-0.1,0.1-0.1,0.1-0.2,0.2l-0.1-0.1c0-0.1,0.1-0.1,0.2-0.2L321.9,31.4z"/>
	<path class="st0" d="M324.5,28.6c-0.1,0-0.1,0.1-0.2,0.1c0,0-0.1-0.1-0.1-0.2c0.1,0,0.2-0.1,0.2-0.1
		C324,28.4,324.2,28.6,324.5,28.6z"/>
	<path class="st0" d="M326.6,28.4c-0.1,0.1-0.1,0.1-0.1,0.1c-0.1-0.1-0.1-0.1-0.2-0.2l0.1-0.1C326.5,28.3,326.5,28.4,326.6,28.4z"/>
	<path class="st0" d="M332.3,25.6l-0.1-0.1l0.1-0.1h0.1L332.3,25.6z"/>
	<path class="st0" d="M323,27.6L323,27.6l0.1,0.1C323.1,27.6,323.1,27.6,323,27.6L323,27.6z"/>
	<path class="st0" d="M220.1,77.3L220.1,77.3c-0.1-0.1-0.1-0.1-0.1-0.1L220.1,77.3L220.1,77.3z"/>
	<path class="st0" d="M344.2,23.1l-0.1,0.1l-0.1-0.1l0.1-0.1C344.1,23,344.1,23.1,344.2,23.1z"/>
	<path class="st0" d="M283,80.7l-0.7-1.5c-0.2-0.7-0.3-1,0.3-1.2c1-0.5,1.9-0.9,2.9-1.2c1.1-0.3,2,0.2,2.5,1.1c0.6,1,0.6,2,0,3
		c-0.7,1.1-1.9,1.7-3.3,2.2c-0.3,0.1-0.7-0.1-0.9-0.4c0,0,0,0,0-0.1C283.6,82,283.3,81.4,283,80.7L283,80.7z"/>
	<path class="st0" d="M279.8,74.4c-0.7-1.6-0.7-1.8,1-2.7c0.2,0,0.4-0.2,0.7-0.2c0.9-0.4,1.6-0.1,2,0.6c0.5,0.6,0.3,1.7-0.3,2.2
		c-0.5,0.3-1.4,0.9-1.9,1.2c-0.3,0.2-0.7,0-1-0.2l0,0C280.1,75,280,74.7,279.8,74.4z"/>
	<path class="st0" d="M254.4,84.6c-0.2-0.1-0.4-0.2-0.7-0.3c-0.2-0.3-0.1-0.7,0.1-0.9c0.3-0.2,0.7-0.1,0.9,0.1l0,0
		C255,84.1,254.9,84.4,254.4,84.6z"/>
	<path class="st0" d="M318.6,61c1,0.5,1.8,1.4,2.6,2.1c-0.5,0.5-1.4,0.9-2.2,1.1c-0.7,0.1-0.9,0-0.9-0.7
		C318.4,62.7,318.6,62,318.6,61z"/>
	<path class="st0" d="M329.3,118.4c-0.7-1.5-0.5-2,1.2-2.4c0.7-0.2,1.3,0,1.7,0.5c0.3,0.5,0.4,1.4,0.1,1.9l-0.1,0.1
		C331.1,120.1,329.9,120.1,329.3,118.4z"/>
	<path class="st0" d="M327,113.7c-0.4-1-0.3-1.2,0.3-1.4c0.7-0.2,1.6-0.3,1.8,0.4c0.1,0.7-0.1,1.4-0.7,1.7l0,0
		C327.7,114.6,327.4,114.6,327,113.7z"/>
	<path class="st0" d="M291.5,136.1c-0.7-1.4-0.5-1.8,1.1-2.4c0.2,0,0.3-0.1,0.5-0.1c0.9-0.1,1.5,0.3,1.9,1c0.1,0.7,0,1.3-0.5,1.7
		c-0.1,0.1-0.2,0.3-0.3,0.3C292.1,138,292,137.5,291.5,136.1z"/>
	<path class="st0" d="M289.1,130.4c1.2-0.6,1.7-0.7,2.2-0.3c0.3,0.2,0.4,0.9,0,1.1c-0.3,0.6-1.1,0.9-1.6,0.7
		C288.9,131.6,289.1,131.1,289.1,130.4z"/>
	<path class="st0" d="M286.8,114.5c0-0.2-0.2-0.3-0.2-0.5c-0.4-1.1,0.1-1.6,1.1-1.6c0.9,0,1.4,0.5,1.7,1.4c0,0.7-0.7,1.8-1.4,1.9
		c-0.2-0.1-0.6-0.1-0.9-0.4C287,114.9,286.8,114.6,286.8,114.5z"/>
	<path class="st0" d="M325.3,99.3c-0.4-1.1-0.6-2-1.1-3c0-0.1-0.2-0.3-0.3-0.3c-0.3-0.4-0.4-1,0.3-1.1c0.9-0.2,1.6-0.1,2.4,0.5
		c1.5,1.3,2.2,3.1,2.1,4.9c-0.1,0.6-0.4,1.2-0.9,1.6c-0.5,0.5-1.1,0.4-1.4-0.3C326,100.9,325.6,100.2,325.3,99.3L325.3,99.3z"/>
	<path class="st0" d="M255.3,132.1c0.5,1.2,0.7,2.5,0.5,3.7c-0.2,1.1-0.6,1.3-1.6,0.9c-2.1-0.9-3.9-4.4-3.2-6.6
		c0.2-1.1,0.9-1.3,1.7-0.7C253.8,129.8,254.8,130.9,255.3,132.1z"/>
	<path class="st0" d="M303.8,109.2c0.5,1,0.6,2.1,0.4,3.2c-0.2,1.2-0.7,1.6-1.7,1.1c-0.7-0.3-1.2-0.7-1.7-1.4
		c-1.1-1.3-1.6-2.9-1.5-4.5c0.1-1.4,0.9-1.8,2-1.2C302.5,107,303.4,108,303.8,109.2z"/>
	<path class="st0" d="M275.5,125c0-0.2,0-0.2-0.1-0.3c-0.7-1.3-0.5-1.5,1-2.1c0.4-0.1,1-0.3,1.4-0.3c0.6,0.1,1.2,0.4,1.3,1.2
		c0.1,0.5-0.1,1.2-0.4,1.7c-0.4,0.3-1.1,0.7-1.6,1c-0.5,0.2-1,0.1-1.2-0.4C275.7,125.3,275.7,125.1,275.5,125z"/>
	<path class="st0" d="M274.7,120.7c-0.9,0.4-1.1,0.3-1.4-0.6c-0.5-0.9-0.3-1.3,0.3-1.5c0.9-0.5,1.7-0.3,2,0.3
		C276.1,119.4,275.5,120.2,274.7,120.7z"/>
	<path class="st0" d="M164.4,128c-0.2,0.4-0.3,0.9-0.5,0.9c-0.2,0.1-0.4-0.1-0.7-0.3c-0.1-0.2-0.1-0.4,0.1-0.6c0.1,0,0.1,0,0.2,0
		C163.7,127.7,164.1,127.8,164.4,128z"/>
	<path class="st0" d="M346,42.4c-0.3,0.1-0.9-0.1-0.9-0.4c0.1-0.2,0.1-0.4,0.3-0.7c0.3-0.2,0.6,0,0.9,0.3
		C346.5,41.8,346.4,42.2,346,42.4C346.1,42.4,346.1,42.4,346,42.4z"/>
	<path class="st0" d="M206.9,152v-0.2c-0.4-1.1-0.4-1.3,0.2-1.6c0.5-0.3,1.4-0.4,1.8,0.3v0.1c0.5,0.5,0.5,1.5,0,2.1
		c-0.1,0-0.1,0.1-0.2,0.1c-0.5,0.5-1.2,0.4-1.5-0.2C207.1,152.4,207,152.2,206.9,152z"/>
	<path class="st0" d="M196.7,175.6c-0.2,0.9-0.7,1.3-1.5,1.3C195.6,176.2,196.2,176.1,196.7,175.6z"/>
	<polygon class="st0" points="195.7,175.7 195.5,175.7 195.7,175.6 	"/>
	<path class="st0" d="M213.6,138.8c0.4-0.2,0.5-0.7,1.3-0.6C214.4,138.6,214,138.8,213.6,138.8L213.6,138.8z"/>
</g>
</svg>
