<svg id="Layer_1" data-name="Layer 1" xmlns="http://www.w3.org/2000/svg" viewBox="0 0 700 200"><defs><style>.cls-1{fill:#cca78f;}</style></defs><title>stock-vector-metro-train-vector-sketch-in-black-lines-326982452</title><path class="cls-1" d="M287,120.95a4.23,4.23,0,0,0,.28-.56c-.87-.6-1.5-1.49-2.9-1-4.62,1.51-9.31,2.82-14,4.26-16.25,5-32.46,10.18-48.75,15.08-20.43,6.15-40.92,12.11-61.38,18.14a2,2,0,0,1-.93.07c41.3-13.53,82.87-26.2,124.56-38.67-.46-1.14-1.17-1.1-2-.84q-8.64,2.62-17.29,5.19l-92.79,27.67a2.89,2.89,0,0,1-1.64.08l111.49-34.12c-2-1.73-3.84-3.37-5.76-4.89a2.24,2.24,0,0,0-1.68-.21c-16.39,3.88-32.74,7.89-49.15,11.66C202.56,128,180,133,157.47,138l-1.18.27-.08-.34c19.5-4.78,39-9.63,58.51-14.31s39.19-9.2,58.79-13.79l.1-.43a4.36,4.36,0,0,0-1.62-.33C262.9,111,253.84,113,244.77,115l-54.68,11.86-22.7,4.94c1.38-.44,2.73-1,4.13-1.3q21.09-4.8,42.2-9.52c1-.23,1.24-.64,1.06-1.64a22,22,0,0,1-.32-3.74c0-1.24.12-2.48.19-3.64l-32.12,7.53-.57,7.64h-.72l-.55-7.47-17.82,2.92c-.32,3.27-.64,6.39-.91,9.52,0,.18.37.39.57.58l-2.38.87c.5-.66.89-.94.9-1.22,0-3.15,0-6.29,0-9.53l-3.32.34,0-.18c.94-.21,1.9-.36,2.81-.67a1.3,1.3,0,0,0,.76-.88c.09-1.1,0-2.22,0-3.51l-5.05.6,0-.23,4.84-1.06V114l-1.53-.08,0-.18,13-2.3,24.81-4.33c12.15-2.11,24.29-4.31,36.46-6.31,10.85-1.78,21.73-3.37,32.6-5,1.87-.28,3.77-.4,5.65-.6-1.28.31-2.54.68-3.83.92s-1.62.76-1.29,1.9h2c-2.51,1-2.51,1-2.16,4.07l2.44-.44-2.51,1.06V109c1.86-.41,3.62-.75,5.35-1.21a1.33,1.33,0,0,0,.7-1c0-1.75-.15-3.51-.29-5.26,0-.2-.34-.37-.53-.55l.8-3.24-2.06.31,2-.8L272,95.27a5.68,5.68,0,0,0,.46-1.48c.08-3.16.18-6.32.13-9.48-.07-5.25,1-10.35,2-15.44,2.81-14.21,7-28.07,11-42a12,12,0,0,1,6.42-7.53c4.56-2.29,9.17-4.5,13.87-6.46a62.67,62.67,0,0,1,10.4-3.42,44.9,44.9,0,0,1,9.14-.8c6.6-.09,13.21.16,19.81,0A74.45,74.45,0,0,1,364.2,11c5.6,1.31,11.18,2.69,16.76,4.08a8.3,8.3,0,0,1,2.44,1.16c-2.13.86-4-.11-6.3-.53a12.61,12.61,0,0,0,1.11,1,6.27,6.27,0,0,0,1.21.62,12.26,12.26,0,0,0,1.29.35c-.06.89-.11,1.68-.16,2.47L374.33,19c1.48,1.48,2.71,2.74,4,4a1.93,1.93,0,0,0,1,.46q17.77,3,35.55,5.89l45.41,7.46c2.08.34,4.16.66,6.24,1a50.36,50.36,0,0,0-13-4.43q-28-5.74-56-11.35c-3.27-.66-6.54-1.35-10-2.06l1,1.49-.38.38L385.68,20c-.64,1.93-2.08.33-3.19.6l.86,1.44-.34.3-2.5-2.25,4-1,.14.29-3-.88,2.72-1.32c4.42,3,10,2.87,15.13,3.95,18.22,3.8,36.49,7.31,54.72,11,2.62.53,5.1,1.7,7.68,2.45,8.82,2.56,17.69,4.92,26.46,7.62,10.27,3.16,20.83,5.5,30.52,10.38a3.66,3.66,0,0,1,.93.61l-23.95-7.13c.53,1.73,1.76,2.18,3.33,2.57,6.79,1.7,13.51,3.67,20.3,5.36,2.08.52,2.63,1.89,3,3.61a12.5,12.5,0,0,1,.27,2.35c0,1.75-.77,2.52-2.5,2.57-.42,0-.83.06-1.25.09a6.42,6.42,0,0,0,1.14-.37c.33-.17.81-.45.84-.73a33.55,33.55,0,0,0,.27-5.12c-.1-1.68-.76-2-2.49-1.76,1.29,5,1.27,6-.38,7.42-.1-1.16-.24-2.16-.26-3.15,0-1.25.12-2.5.09-3.75,0-.35-.33-.69-.51-1l-.35.17c1.45,2.74.15,5.13-.89,7.56V54.07l-3.12-.59c.9,3.36,1.64,6.6.32,9.89l-1.1-2.21-1,2.3A8.17,8.17,0,0,1,511,61.4c0-2.22.19-4.44.23-6.66,0-1.9,0-1.93-2-2,.71,3.61,2,7.18.6,10.91-.27-.2-.75-.37-.77-.59-.11-1.15-.13-2.31-.14-3.47,0-1.81.07-3.63,0-5.43s-.21-1.91-2.33-2c.24,1.94.48,3.86.72,5.78a9.5,9.5,0,0,1-.9,6.05c-1.24-4.2.13-8.21-.49-12.16l-2.06-.44c1.3,6.83,1.4,10.26-.39,11.77-.08-1.57-.23-3-.22-4.43,0-1.9.19-3.81.21-5.71,0-2.06,0-2.08-2.14-2.17.9,4.51,1.85,9,.39,13.6a21.28,21.28,0,0,1-.73-4.87c-.07-2.32.07-4.65,0-7s-.22-2.46-2.34-2.52c.32,2.45.81,4.93.94,7.44s-.12,5-.2,7.5h-.42a9.55,9.55,0,0,1-.9-6,17.54,17.54,0,0,0-.17-8.53c-.07-.28-.23-.7-.44-.77-1.07-.33-2.18-.56-3.47-.87.87,3.65,1.69,7,2.44,10.32.5,2.24,0,4.83-1,6l-1.73-16.43-4.47-1c.39,2.3.76,4.3,1.07,6.31.52,3.42,1.74,6.79,1,10.33a18.62,18.62,0,0,1-.77,2.2l-.26-.12L488.8,47.58l-5.32-1.21c.24,1.23.36,2.27.66,3.27,1.44,4.77,1.48,9.71,1.73,14.62a12.77,12.77,0,0,1-.69,3.25,56,56,0,0,1-1.08-7.77c-.3-4.2-.51-8.42-.8-12.62,0-.31-.35-.82-.6-.87-3.25-.65-6.52-1.23-9.85-1.85.2.8.37,1.42.51,2,1.71,7.52,1.42,15.16,1.29,22.77a13.49,13.49,0,0,1-.82,3.34c3.78-1.08,8-2.13,12-3.48A135,135,0,0,1,505,64.68c1.63-.29,3.24-.68,4.86-1l1.73-.22,2.07-.08,5.39-.68-11.52,2.47-3.13.65-.12,2.39c-1.31,0-1.2-1.12-1.55-2l-8.25,1.91c0,.89.1,1.56.09,2.22,0,0-.65.19-.69.12a18.72,18.72,0,0,1-.77-1.73,3.82,3.82,0,0,0-4.12,2.75c-.4,1.14-.73,2.33-2.36,2.67l-.83-3.17c-1.48.23-1.52.38-.63,1.65a1.2,1.2,0,0,1,0,.89c-.5,1.46-1.93,2-4.13,1.59V73l.25,0,.36,1.4,1.3-.3-.19-2.77-10.15,2.56L473,73c-13.35,4.83-27.48,7.24-40.46,14L468,75.11l.1.3-27.69,10,1.46,2.54,1.72.26.69-3.06c.68,3.17.25,4-2.18,4.07L442,91.29c-1.33-.29-2.6-.62-3-2.08a1.62,1.62,0,0,1,1.4-2.18l-.47-1.43-7.4,2.64,1,2.37c2-.29,1.43-2.67,3.12-3.54.11.62.46,1.28.28,1.71a3.29,3.29,0,0,1-3.6,2.34c-.21,2.32-2,2.45-3.76,2.87l.22-4.26.23,0,.58,2.83c1.71-1,.92-2.5,1.26-4.07l-10.37,3.79c-.15,1.71-.2,3.22-.47,4.68-.06.32-.9.49-1.49.79a1.11,1.11,0,0,0-.05.22c-.14.9,0,2.19-.47,2.62a13.66,13.66,0,0,1-3.83,1.88c-.72.27-1.1-.17-1.06-1a14.32,14.32,0,0,1,.27-3l.48,3c4.2-.52,3.09-3.8,3.11-6.58l2.14.57.62-2.72-43.07,15.57-.2-.52,17.21-7.06-.05-.14c-3.38,1-6.74,1.95-10.13,2.84-2,.52-4,.94-6,1.31-1,.18-1.46.58-1.5,1.61s-.23,1.75-.33,2.62c-.27,2.32-2.11,3.53-3.76,4.55-7.42,4.6-14.94,9.06-22.49,13.44-3.6,2.08-7.68,2.72-11.75,3.16a19.37,19.37,0,0,0-5.63,1.37c-11.48,4.89-23,9.69-34.51,14.53l-1.21.52,12.13,1.17c-4.64.41-9.26,1.15-13.87,0a2.16,2.16,0,0,0-1.18,0,23.83,23.83,0,0,0-4.22,2c2.36.26,4.72.55,7.09.76,1.9.16,3.81.21,5.71.33a3.54,3.54,0,0,1,.87.29l-14.35.42c2.3.31,4.5.55,6.69.9,2.72.44,5.35.54,7.64-1.36.48-.16,1-.28,1.43-.48L370.79,122c.41-.18.84-.31,1.55-.58-2.94,2.45-139.1,63.16-142.76,63.61l8.46-3.88c-6.09-.9-12.09-.32-17.76-2.27a5.74,5.74,0,0,1-.57-.26l.06-.5c2.36.17,4.74.2,7.07.55,3.71.56,7.39,1.36,11.09,2a2.45,2.45,0,0,0,1.35-.12c5.33-2.39,10.64-4.81,16-7.5-1.34-.13-2.67-.31-4-.37-3-.13-6-.17-8.92-.29a4.72,4.72,0,0,1-3.86-1.78c4.12.34,8.24.63,12.34,1.05,1.56.16,3.09.64,4.64.92a2.79,2.79,0,0,0,1.48,0,45,45,0,0,0,5.79-2.89c-1.9-.21-3.79-.46-5.69-.62-3.56-.31-7.15-.4-10.69-.9a9.86,9.86,0,0,0-5.36.78c-4.5,1.85-9.05,3.6-13.53,5.36l17.92,2.77-.05.36c-6.26-.57-12.63,0-18.71-2.27a2.62,2.62,0,0,0-1.69.15q-14.25,5.6-28.47,11.25a2,2,0,0,1-1.1.15c.41-.2.82-.42,1.24-.6l78.69-32.29c2.39-1,4.85-1.83,7.15-3,3.14-1.58,6.54-2.48,9.74-3.89s6.71-2.71,10.08-4,6.82-2.69,10.24-4,6.75-2.61,10.13-3.9,6.86-2.59,10.28-3.89a3.89,3.89,0,0,0,1.17-.64c-3.36-.18-6.53-1.21-10,.24-27.44,11.36-55.31,21.61-83.17,31.91q-31.92,11.8-63.81,23.65a1.85,1.85,0,0,1-1.26.1l49.7-19.1c16.67-6.41,33.32-12.9,50-19.19s33.4-12.34,50.27-18.56c-2.2-.23-4.31-.29-6.35-.71-2.56-.52-4.8.21-7.11,1.15-29.38,11.88-59.19,22.64-89,33.5l-54.9,20.05a2.06,2.06,0,0,1-1.39.09L238,156.7l-.09-.26-73.43,25.79-.12-.32L247,151.68v-.31c-3.29-.35-6.57-.77-9.86-1-3.71-.28-7.43-.4-11.15-.56a6.76,6.76,0,0,0-2.19.19q-24.58,7.39-49.14,14.86c-3.42,1-6.78,2.24-10.17,3.36a1.89,1.89,0,0,1-1.07.1c19.08-7.06,38.89-11.86,58-19L220,148.6c.08-.1.13-.23.17-.22a14.66,14.66,0,0,0,8.22-1.63c2.39-1.3,5.26-1.69,7.86-2.64,6.27-2.29,12.51-4.68,19-7.11l-1.43-.73c.11-.1.17-.2.22-.19,4.16.52,7.65-1.59,11.3-3,7.37-2.81,14.68-5.78,22-8.68.37-.15.76-.25,1.14-.38l.14.36-27.26,12,16.67,3,0,.33-17.3-1.72,0,.14c4.66,1.06,9.31,2.13,14,3.16a2.65,2.65,0,0,0,1.35-.11q18.44-6.28,36.87-12.59c.17-.06.32-.16.77-.38-3.59-.39-6.88-.89-10.18-1.06-5.26-.27-9.77-2.33-14-5.28a10.27,10.27,0,0,0-2.34-.9ZM467.69,45c.27.18.69.57.8.5,1.57-1,1.58.52,1.72,1.19.49,2.41.82,4.84,1.17,7.28.23,1.63.4,3.27.62,5.11l-3.61-.63a30.35,30.35,0,0,1-.17,13.22L473.79,70l-1.32-25.55c-2.23-.13-4.23-.18-6.21-.38-.87-.09-.7.48-.82.92-.29-.34-.55-.94-.87-1-4.66-.45-9.33-.82-14-1.22s-9.43-.8-14.15-1.22c-2.39-.21-4.77-.48-7.31-.74l2.43,11.09.17,0L430.3,41.47l.22,0L432.1,49a54.63,54.63,0,0,0-.39-5.69c-.14-1.41.3-1.68,1.68-1.11-.95-.1-1.52,0-1.21,1.27s.44,2.75.65,4.12c.6,3.9,1.18,7.8,1.81,11.69a5.42,5.42,0,0,0,.59,1.3l.42-.17c-.3-2.1-.68-4.2-.9-6.31-.39-3.88-.68-7.77-1-11.65a17.32,17.32,0,0,1,.74,2.06c.54,2.39,1,4.79,1.53,7.19l.15,0-.57-9.15.26,0,2.27,16.54.44-.07-1.21-14.43.4,0c.36,1.58.79,3.14,1.06,4.73.48,2.83,1,5.66,1.25,8.51.2,2.41-.84,3.16-2.84,2.4-.27,1.86-.27,1.86-3.26,1.26l.42,2.09,18.79-2.32L450.9,44.7l.25-.06,3.46,16.41,9.1-1,0,.29-9.08,1.36.38,8.16c1-.24,2-.49,3-.7l8.28-1.76a4,4,0,0,1-.62.28c-3.22.85-6.44,1.68-9.65,2.56-.43.12-1.05.42-1.14.75-.42,1.63-.69,3.29-1,5,4.39-1.32,8.68-2.6,13-3.9.29-.09.79-.31.78-.45-.07-1.46-.22-2.92-.35-4.38a6.27,6.27,0,0,0,.2-1.47c-.21-2-.54-4-.7-6-.12-1.58.06-3.18-.1-4.76-.35-3.36-.83-6.7-1.26-10a4,4,0,0,1,.4.81c.71,3,1.39,6,2.09,9.07a31,31,0,0,0-.37-4.81c-.21-1.5-.47-3-.65-4.51-.08-.68.18-1,.85-.47-.17.21-.51.44-.48.62.12.88.34,1.75.53,2.62l.4-.07Zm-91.5-10h-2.55l.67,5.6c.2-1.46.33-2.77,1.74-3.14.52-.14,1.16.19,1.75.31l-.09.34c-1.49-.58-2.36,0-2.39,1.62a5.36,5.36,0,0,0,.08,1q1.8,11.13,3.6,22.25c.19,1.19.4,2.38.61,3.58h.48a5.54,5.54,0,0,0,.31-1.32c0-1-.12-1.95-.2-2.92q-.91-10.06-1.82-20.13c0-.46,0-.93,0-1.39a3.9,3.9,0,0,1,.37,1.51q1.38,11.2,2.79,22.39c.19,1.54,0,2.79-1.77,3.32l.57,3.12,2.82-.53c-.54-5.27-1-10.45-1.62-15.6-.74-5.75-1.73-11.47-2.54-17.21-.31-2.19-.22-2.2-2.31-2.57a2.35,2.35,0,0,1-.51-.22c1.52.09,3,.14,4.56.27,3.93.32,7.87.67,11.8,1l8.45.7a24.65,24.65,0,0,0-4.34-.82c-7-.85-14.1-1.68-21.15-2.58-.34,0-.75-.54-.9-.92-.45-1.1-.78-2.26-1.16-3.39l2.07,3.54,96.9,10c-1.13-1.78-2.36-3.1-4.31-3.45-5.19-.93-10.39-1.8-15.58-2.71L423.27,31.5l-32.64-5.7c-4.45-.77-8.9-1.52-13.09-2.23,0-.42,0-.71-.1-.8-2.63-2.09-5-4.68-8.7-4.8a26.23,26.23,0,0,1-2.74-.47c-1.75-.25-3.51-.46-5.26-.68a9.62,9.62,0,0,1-2.73-.93,18,18,0,0,0-7.47-3.26c-6-1.11-11.91-2.41-17.92-3.23a44.58,44.58,0,0,0-17.05.68c-8.52,2.17-16.29,6.17-23.92,10.4a11,11,0,0,0-5.35,7c-4.49,16.37-9.6,32.59-12,49.46-.38,2.68-.52,5.39-.78,8.11l23.64.5L298,74.47l-1.39-.36c-5.27-1.47-10.58-2.79-15.79-4.45-4.85-1.55-4.9-1.95-3.55-6.82q4.62-16.7,9.19-33.41a8.61,8.61,0,0,1,4.18-5.65c1.1-.6,2.24-1.12,3.38-1.65a59.81,59.81,0,0,1,24.35-5.23c6.87-.15,13.78,0,20.63.56,7.35.55,14.15,3.18,20.79,6.32,3.5,1.65,4.8,4.19,4.92,7.79.19,5.49.55,11,.72,16.45.11,3.56,0,7.12,0,10.68.16-.12.11-.26.1-.39q-.74-13.51-1.48-27c-.17-3-1.14-5.55-4.33-6.63a20.49,20.49,0,0,1-2.15-1,55.3,55.3,0,0,0-19.35-5.38A138.83,138.83,0,0,0,315,18.2a63.41,63.41,0,0,0-22.33,5.94c-3.76,1.82-4.91,4.83-5.45,8.21l4.94.67,0,.44c-1.72.19-3.42,1.06-5.2,0a6.16,6.16,0,0,0-.26.65q-4.22,15.51-8.43,31a1.73,1.73,0,0,0,1.34,2.44c.71.19,1.39.53,2.1.74l16.46,4.84c.43-4.2.76-8,1.22-11.77.84-6.87,1.68-13.74,2.69-20.58.58-3.94,1.55-7.83,2.23-11.76a3.17,3.17,0,0,1,2-2.76,9,9,0,0,1,3.07-.8c10.56.13,21.12.3,31.67.6,1,0,1.89,1.08,2.83,1.65a6.62,6.62,0,0,0-4.18-1.16c-9.49.15-19,.23-28.47.35a17.13,17.13,0,0,0-2.91.29c-1.88.35-2.38,1-2.48,2.88,0,.42-.1.83-.15,1.25-.29,2.75-.57,5.49-.87,8.34a53.47,53.47,0,0,1,36.62,1.43c.24-1.4.43-2.68.69-3.95.39-1.94.82-3.87,1.24-5.81L341.82,42a53.61,53.61,0,0,0-19.15-3.87,51.18,51.18,0,0,0-19.38,3.49l.52-6.42-.42,0-3.81,38a140.34,140.34,0,0,0,38.69,2.06l5.79-43.73.26,0-5.19,43.75,12.59-1.75a110.21,110.21,0,0,1-11.08,1.94c-1.07.14-1.63.34-1.69,1.62-.09,2.13-.46,4.25-.68,6.37-.16,1.51-.27,3-.41,4.62L365,89.8v.29l-27.27-1-.75,9.1,24.93,1c-.17.31-.34.35-.51.35-7.72-.25-15.44-.47-23.15-.77-1.17,0-1.48.37-1.42,1.41,0,.76,0,1.53,0,2.35-6.31-.35-12.35-.66-18.38-1-5.85-.36-11.69-.79-17.53-1.19-.27,0-.64,0-.8-.15-1-1-2-2-3-3a3.33,3.33,0,0,0-1.7-.92c-2.77-.27-5.55-.4-8.32-.6-2-.14-4-.45-6-.43a17.44,17.44,0,0,0-4.65.71c-1.67.49-2,1.37-1.75,3.1s.51,3.4.65,5.11c.09,1,.5,1.48,1.55,1.5,2.92,0,5.84.17,8.76.24.86,0,1.73,0,2.71,0v8.08L288,114l-1.41-6.69-11.24-1.37c.47.87.67,1.7,1.2,2.13,3.72,3,7.5,5.95,11.27,8.89a6.61,6.61,0,0,0,4.35,1.58,33.54,33.54,0,0,1,3.89.34q9.79.92,19.57,1.84c5.27.5,10.54,1.09,15.82,1.53,4,.33,8,.69,11.93.63a16,16,0,0,0,10-3.42c3-2.4,6.18-4.62,9.25-7a2.75,2.75,0,0,0,.94-1.45c.5-2.14.88-4.31,1.31-6.47l.18,0-.8,6.59a15.31,15.31,0,0,0,1.23-3.75q1.21-7.92,2.21-15.86c.06-.5-.6-1.08-.81-1.43.21-.15,1-.42,1.09-.83a25.89,25.89,0,0,0,.6-5.11q0-7.19-.36-14.37c-.57-13.71-.4-27.46-1.37-41.17,1.4,10,1.53,20.13,1.93,30.21s1.41,20.29.79,30.5l7.48-.6.09.34-8,2.19c-.35,3.1-.73,6.42-1.08,9.74-.66,6.17-1.53,12.25-6,17.12a3.77,3.77,0,0,0,1-.43c2.83-1.69,5.69-3.34,8.49-5.09,2-1.27,3.84-2.76,3.81-5.52a15.32,15.32,0,0,1,.33-2.06c.61-4.7,1.56-9.38,1.73-14.09.23-6.13-.1-12.28-.28-18.42-.09-3-.26-6-.59-8.91q-1.41-12.81-3-25.61c-.39-3.12-1-6.2-1.54-9.31a13.12,13.12,0,0,1,1.06,2.3,36,36,0,0,1,.56,3.56ZM235.52,148.8c-2.06,0-4-1.37-6.13-.73l0,.37,6.19.35a2.75,2.75,0,0,0,.71.36c3.38.59,6.78,1.1,10.14,1.77a5.85,5.85,0,0,0,3.37-.22c5.52-2,11.07-4,16.61-6l8.15-3-15-2a37.54,37.54,0,0,0,5.11,1.84c1.7.48,3.43.82,5.14,1.23-5.16.16-12.55-1-14.45-3.72l2.26.3a3.79,3.79,0,0,0-3.65-.23c-4.18,1.65-8.42,3.16-12.64,4.72-2.59,1-5.19,1.89-7.78,2.84l0,.26,17.74,2.26,0,.42ZM432.25,82.44a8.89,8.89,0,0,1-.1-1.15c.05-1.57.14-3.13.21-4.8-.52.08-.89.09-1.24.18-5.79,1.51-11.56,3.08-17.38,4.49a2.11,2.11,0,0,0-1.84,2.26c-.13,1.51-.4,3-.61,4.5l-.29,0v-6c-1.41.34-2.72.61-4,1a1.1,1.1,0,0,0-.66.71c-.22,1.37-.34,2.76-.53,4.14-.13.91-.32,1.8-.48,2.7l-.18,0V83.24a27.78,27.78,0,0,1-3.87,1.1c-1.61.22-2.32.76-2.38,2.56a45,45,0,0,1-1.12,6.43c.34-.09.65-.16.95-.26q12.67-4,25.34-8c2.72-.86,5.43-1.77,8.15-2.66a.75.75,0,0,0,.27,0q10.09-3.05,20.18-6.14a1.2,1.2,0,0,0,.69-.86c.07-1.46,0-2.93,0-4.46-.41.07-.73.11-1,.19-5.33,1.38-10.65,2.82-16,4.11a2.11,2.11,0,0,0-1.87,2.24,37.41,37.41,0,0,1-.77,4.13l-.37-.07V78.8Zm-137.63,72.9c-5.24,0-10.51.4-15.65-1.11a2.29,2.29,0,0,0-1.32.23q-6.35,2.48-12.68,5a6.34,6.34,0,0,0-.75.43l12.5,2.55a16.23,16.23,0,0,1-3.22.16c-3.57-.16-7.17-.15-10.41-2a1,1,0,0,0-.77-.07c-1.81.69-3.6,1.41-5.4,2.13l0,.24L272.5,165c-1.12.1-2.09.23-3.05.25-4.13.11-8.32.36-12.23-1.28a4.53,4.53,0,0,0-3.92,0c-2.26,1-4.58,1.86-6.87,2.78,5.51,0,10.76,1.19,16,2.3a4.41,4.41,0,0,0,2.53-.22c6.36-2.81,12.69-5.71,19-8.59.35-.16.69-.37,1.32-.71-4.73-.08-9.22.35-13.06-2.51a7.75,7.75,0,0,1,2.18,0c2.51.44,5,1,7.52,1.38,1.65.25,3.48.77,5,.31a60.29,60.29,0,0,0,7.64-3.49l4.17-1.64a1.24,1.24,0,0,0-.86-.34c-4.87-.3-9.73-.62-14.6-.88a6.43,6.43,0,0,0-1.76.42l0,.37,7.63,1.23Zm90.68-88L386.66,70,397,68.35c-.5-3.19-.86-6.28-1.49-9.31-1.43-7-3.15-14-3-21.17,0-1-.53-1.11-1.3-1.19-2.49-.24-5-.54-7.48-.79-1.45-.15-2.91-.25-4.68-.4.52,3.5.84,6.78,1.51,10A169.91,169.91,0,0,1,384,66c0,.4.62.76.95,1.13-.25.12-.71.24-.72.36,0,.93.06,1.87.11,2.8l.61.15c.22-.42.59-.82.62-1.25A8.6,8.6,0,0,0,385.3,67.35ZM338.24,75.8a139.81,139.81,0,0,1-38.64-1.1l-.86,11L336.84,88ZM298.12,95.54l37.72,2.54.89-9.11-38.11-1.63Zm65.33,17.16c-3.28,2.59-6.49,5.28-9.88,7.72a20.77,20.77,0,0,1-5.65,2.87,27.86,27.86,0,0,1-11.59.83c-5.87-.62-11.76-1-17.64-1.53-6.62-.6-13.24-1.15-19.84-1.91-3.73-.43-7.6-.08-11.24-1.88,3.69,3.33,10.27,6.65,15.43,7,10.1.72,20.16,2,30.25,2.84a18.59,18.59,0,0,0,7.43-.51A68.19,68.19,0,0,0,359,118.53,12.24,12.24,0,0,0,363.44,112.7ZM412.13,80c.94-.13,1.68-.18,2.38-.35,4.91-1.2,9.81-2.44,14.72-3.63,3.07-.74,3.06-.71,3-3.88,0-2.35,0-4.71,0-7.22l-5.66.82c-4.5.65-9,1.29-13.49,2-.36.06-.92.55-.93.85C412.11,72.31,412.13,76.05,412.13,80Zm19.88-16c-.31-2.77-.53-5.39-.9-8-.68-4.78-1.43-9.55-2.22-14.31a1.49,1.49,0,0,0-1-1c-6.19-.71-12.38-1.36-18.57-2a9.59,9.59,0,0,0-1.13,0l3.93,27.68ZM265.35,103c-9.77,3.15-19.71,3.92-29.77,4.92V116l29.77-6.74Zm8.41-17.56V96.35a6.42,6.42,0,0,1,5.36-2.19c5.41.32,10.81.79,16.21,1.26,1.31.11,1.55,0,1.48-1.36,0-.65-.05-1.3,0-1.94.06-1.6.15-3.2.22-4.82Zm119-48.57c0,10.92,4.39,20.78,5.51,31.28l6.41-.94-3-29.38Zm42,37.78c6.18-1.46,12.14-2.87,18.08-4.3.27-.06.66-.47.65-.7-.07-2.53-.21-5.06-.34-7.76L434.7,64.58ZM383.48,87.94c-.92.05-1.61.08-2.3.14-1.6.14-2.24.88-2.27,2.5,0,.74-.08,1.48-.15,2.22-.2,2-.41,4-.64,6.17a9.07,9.07,0,0,0,2.46,0c5.27-1.64,10.51-3.36,15.75-5.09.38-.13.92-.5,1-.81.31-2.56.52-5.12.77-7.83-.67.09-1,.11-1.3.18-2.81.6-5.62,1.24-8.44,1.79-.94.18-1.79.28-2.24,1.32-.15.35-.71.52-1.28.91-.36,2.62-.56,5.63-2.69,8C383.48,94.42,383.62,91.27,383.48,87.94ZM215.87,120.48l18.34-4.14v-8.12a2.57,2.57,0,0,0-.61-.05c-5.69,1-11.38,2.08-17.06,3.18-.28.05-.64.63-.65,1C215.84,115,215.87,117.64,215.87,120.48ZM387.11,86.17c.13.09.17.14.2.13,3.32-.83,6.65-1.65,10-2.54.26-.07.54-.69.54-1.05,0-1.58-.1-3.16-.2-4.73-.17-2.67-.37-5.35-.57-8.13L386.58,71C387,76.16,388.17,81.1,387.11,86.17ZM265.91,98.85c-.63.06-1.05.05-1.46.13q-13.65,2.71-27.29,5.45c-1.85.37-1.84.42-1.48,2.43a1.48,1.48,0,0,0,.39.07c5-.45,9.93-.71,14.85-1.41,4.58-.65,9.1-1.76,13.64-2.71a1.38,1.38,0,0,0,.92-.79A31,31,0,0,0,265.91,98.85Zm140.3-58.21.23,0a5.64,5.64,0,0,1,.31.84c1.4,6.87,2.85,13.74,2.6,20.81a4.24,4.24,0,0,1-.9,2.73c-.51.48-1.71.23-2.71.32l.18,1.76c.83-.1,1.56-.17,2.29-.27s1.44-.21,2.46-.37L407.8,38.5l-6-.61.95,5.34c.23-3.53.26-3.56,2.55-3-2.32.27-2.26.26-1.92,2.61.64,4.46,1.21,8.92,1.81,13.38.28,2.12.5,4.25.9,6.34.11.55.78,1,1.19,1.49.22-.52.65-1.06.62-1.57-.27-4.26-.61-8.52-.95-12.79C406.72,46.65,406.46,43.65,406.21,40.65ZM335.86,98.73,298.7,96.49A20.56,20.56,0,0,0,301.63,99s.09,0,.14,0c1.06,0,2.13.07,3.19.15l22.67,1.58c2.63.18,5.26.33,8,.5Zm53.83-.22c-.24-.09-.29-.13-.33-.12-.22,0-.44.12-.67.16-3.61.65-6.92,2.8-10.77,2.19l-.66,4,60.47-20.53-.16-.49-50.8,16.09-.09-.28ZM162.48,122,181,118.11l.27-4.61-19.19,4.27Zm52.4-16.51c-10.73,1.66-21.37,3.32-32,5-1,.15-1.3.55-1,1.34,4.13-.28,8.19-.66,12.26-.8a109.59,109.59,0,0,0,18.53-2.13c2.45-.51,2.44-.53,2.33-3A1.38,1.38,0,0,0,214.88,105.44Zm189.68-36.5-5.87.72.7,13.57,5.84-1.51ZM468.84,37.7c.21.28.27.42.37.49,2.28,1.36,4.33,2.9,4.8,5.79,0,.21.61.44,1,.49,3,.45,6.06.8,9.08,1.3,3.62.6,7.22,1.31,10.89,2a13.8,13.8,0,0,0-6.72-4.05c-2.42-.59-4.78-1.47-7.16-2.21Zm-286.69,80c6.15-.73,32-6.94,32.55-7.86a6,6,0,0,0-1,.06,109.1,109.1,0,0,1-23.05,2.76c-2.86.06-5.7.46-8.5.7Zm224.27-49V81.33c1.29-.22,2.25-.34,3.2-.54A1.49,1.49,0,0,0,411,79c-.21-2.77-.24-5.55-.37-8.33,0-.81-.12-1.62-.2-2.54ZM161.93,116.94l18.65-4.68c.92-.23,1-.78.7-1.58l-19.92,3.13Zm73.66-13.33a5.65,5.65,0,0,0,1,0c9.45-1.68,18.91-3.37,28.36-5,1.07-.19,1.54-.67,1.38-1.84a9,9,0,0,0-1.08.07c-9.54,1.73-19.08,3.49-28.62,5.18C235.46,102.17,235.31,102.63,235.59,103.61Zm-.78-1.23a1.56,1.56,0,0,0-.41,0c-5.58.89-11.16,1.77-16.74,2.68-2.26.37-2.25.4-2.05,2.63a3,3,0,0,0,.13.46c.32,0,.63-.07.94-.13,5.6-1.25,11.2-2.54,16.82-3.71C234.7,104,235,103.5,234.81,102.38Zm145.8-14.66.92-.17c2.4-.42,1.93-.32,1.89-2.33-.09-4.18-.22-8.35-.34-12.53,0-.44-.06-.88-.11-1.43l-2.56.35C380.38,77,382,82.24,380.61,87.73Zm-3.44-27.42.09,0L379,87.88a4.11,4.11,0,0,0,.65-2.18c-.05-5.36-.12-10.72-.28-16.08a9.27,9.27,0,0,0-.85-2.54,8.88,8.88,0,0,1-.44-1.31C377.77,64,377.48,62.13,377.17,60.31ZM234.48,105l-18.72,4.52.11.44,18.61-3.12ZM352.15,10.3c1.73,1.25,2.92,2.56,4.89,2.82,2.89.39,5.74,1,8.94,1.65C362.3,12,358.92,11,352.15,10.3Zm32.75,76.54c1.12-.55,1.58-13.09.64-15.71-1-.19-1.06.36-1,1.12.14,2.69.29,5.38.37,8.07C385,82.48,384.91,84.64,384.91,86.84Zm-28.24-73.4-.21.57a29,29,0,0,0,3.71,1.51c1.61.42,3.28.58,4.93.85l4.38.72.1-.47C365.46,14.85,360.93,14.63,356.66,13.44Zm-3.42-1.17.15-.21c-.94-.61-1.83-1.67-2.81-1.76-4.05-.41-8.13-.52-12.42-.76Zm37.33,84.62-.05-.21c-3.11.88-6.21,1.78-9.33,2.63a14.09,14.09,0,0,1-1.77.21c-.49.07-1,.17-1.45.26a10,10,0,0,0,1.42.76,1.57,1.57,0,0,0,.95-.09C383.76,99.28,387.16,98.08,390.57,96.89Zm-16-80.58c-2-2.11-4.51-2.17-6.93-2.78C369.47,15.6,371.8,16.12,374.54,16.3Zm-99.22,92.43-.31.37,8.2,6.66.34-.43Zm96.8-92-.11.45c1.78,1.06,3.87.85,5.79,1.33l.12-.49Zm139.6,36.45,1.12,5.56C513.27,54.62,513.1,53.68,511.72,53.15ZM274.21,108.1l.39,0-.77-6.08-.26,0Z"/><path class="cls-1" d="M462.29,83.9c3.3-1.24,6.58-2.52,9.89-3.71q13.69-4.9,27.4-9.75c.43-.15.85-.34,1.28-.52l.67-.34c.44-.13.89-.24,1.32-.39l14.56-4.92c1.92-.65,3.85-1.27,5.78-1.91l.15.44-10.32,4c-8,3.09-16.12,5.94-24,9.34s-15.44,7.08-23,11q-92.72,47.72-185.37,95.57a3.88,3.88,0,0,1-1.38.46c54.05-28.89,108.1-57.77,162.7-85.62-61,29-120.93,60.36-181.72,89.89,11.21-5.9,22.41-11.83,33.65-17.68s22.6-11.71,33.94-17.48,22.7-11.43,34-17.33L256.56,182l-.21-.46c74.06-33,147.46-67.3,220.56-102.38l-1.24.43c-13.31,4.77-26,11-38.77,17-32.71,15.08-65.48,30-98.08,45.38C304.12,158.21,268.7,172.82,233.07,187a2.78,2.78,0,0,1-1.47.26L239,184C258,176,276.9,168,295.74,159.76c12.76-5.58,25.34-11.55,38-17.33q29.46-13.42,58.93-26.82c.56-.25,1.63-.31,1-1.56L393,115.1c-1.14-3.59.3-6.6,1.45-9.67v9.29a.14.14,0,0,0,.09,0c3.15-1.15,3.23-1.16,2.7-4.87a1.9,1.9,0,0,1,1.39-2.44l4.26-1.48c-.25,2-.45,3.72-.65,5.38-1.56-.56-.58-2.13-1.32-3.15l-1.11.11c-.55.39-1.45.68-1.59,1.18a20.38,20.38,0,0,0-.33,3.75l1.25-.55.67-4.39,1.23,3.47,1.18-.42,51.68-23.55,8.43-3.87Z"/><path class="cls-1" d="M476,93.39c-45.17,28.27-89.15,58.32-133,88.64a7.65,7.65,0,0,1,.7-.64c42.22-30.08,84.64-59.88,128.47-87.59,13.59-8.59,27.43-16.77,41.79-24,2.88-1.45,5.84-2.75,8.86-3.94a1.42,1.42,0,0,1-.25.21C511.65,71.41,501.7,78.28,491.65,85c-46,30.61-91.08,62.68-135.76,95.24a6.63,6.63,0,0,1-1.74,1C394.21,151.2,434.53,121.53,476,93.39Z"/><path class="cls-1" d="M521.32,69.13c-4.73,3.35-9.47,6.55-14,10-8.57,6.48-17,13.11-25.55,19.63a8.75,8.75,0,0,1-2.58,1.12c-.92.31-1.67.63-1.93,1.74a3.36,3.36,0,0,1-1.18,1.62c-15.17,12.3-30.4,24.53-45.54,36.86-7.64,6.23-15.16,12.6-22.71,19Q394,170.68,380.23,182.37a1.43,1.43,0,0,1-1,.41c1.82-1.6,3.63-3.2,5.46-4.79,27.56-24,55.37-47.74,83.8-70.74,14.86-12,30-23.66,46-34.18,2.13-1.4,4.36-2.67,6.54-4C521,69,521.16,69.1,521.32,69.13Z"/><path class="cls-1" d="M287.09,121c-4.09,1.48-8.13,3.09-12.26,4.42q-44.8,14.43-89.64,28.77c-6.58,2.11-13.18,4.14-19.77,6.2a1.48,1.48,0,0,1-1.11,0l5.56-1.84q42.8-14.11,85.61-28.2c4-1.32,8.08-2.42,12.12-3.64l18.35-5.59a9.25,9.25,0,0,1,1.08-.2Z"/><path class="cls-1" d="M159.92,142c38.44-10,76.56-21.31,115.56-30C273,113.82,164.18,142.12,159.92,142Z"/><path class="cls-1" d="M268.57,92.7,253.4,95.3l-33.76,5.76c-6,1-12.05,2.25-18.12,3-1.22.15-2.32.45-3.48.65-8.69,1.48-17.42,2.74-26.15,4-4.55.67-9.11,1.26-13.66,1.87a4.35,4.35,0,0,1-1.46,0c37-7.51,74.5-12.15,111.75-18.2Z"/><path class="cls-1" d="M385.29,113.57c-.27,2.17-2.14,1.23-3.25,1.63-1.69.61-3.47,1-5.46,1.48l1.36-7.86h.26l-.31,6.26,2.86-1.07,2-7,.38,0,.17,2.81.51-2.81.18,0,.5,2.09.55-2.49h.21l.27,1.16.58-1.74.82,3.23.64-3.22L388,108l.7-2.78c0,2.88,1.19,5.89-.94,8.68l-.59-1.58-1.29,5.8-.18,0Z"/><path class="cls-1" d="M390.35,105l.42,4.24.14.05,1.06-4.74c1,2.59.7,6.06-.63,7.53l-.53-1-1.12,2.36C388.57,110.26,389.86,107.67,390.35,105Z"/><path class="cls-1" d="M462.33,83.88l-.85-2.48c.89-.41,1.63-.8,2.41-1.09.36-.13,1-.22,1.16,0a3.92,3.92,0,0,1,.57,1.35l-.31.13-.46-.82-2.55,2.94Z"/><path class="cls-1" d="M395.87,102.8c.22,2.19,1.13,4.43-.44,6.83C394.1,107,395.47,105,395.87,102.8Z"/><path class="cls-1" d="M501.53,69.59l-.67.34c-.94-.16-.94-.76-.61-1.42s.66-1.05,1.06-1.69C502.11,67.72,501.84,68.65,501.53,69.59Z"/><path class="cls-1" d="M498.86,67.58c.07.72.16,1.43.19,2.15,0,0-.55.07-.84.1L498,67.72Z"/><path class="cls-1" d="M290.94,75.17A5.3,5.3,0,0,1,294.05,80a5,5,0,0,1-3.14,4.72c-1.3.54-3,.19-4.51.12s-3.24-.39-4.86-.39a2.34,2.34,0,0,1-2.2-1.32c-2.14-3.44-1.35-6.72,2.1-8.42a3.08,3.08,0,0,1,1.46-.32c2.46.13,4.91.32,7.37.51a2.7,2.7,0,0,1,.72.28h-5.85a4.7,4.7,0,0,1,2.28,4.32c-.11,1.8-1.33,2.79-2.87,3.7h4.34l-1-1.32c1.74,1.17,3,1.24,4,.12s1.16-2.42.06-3.13a3.51,3.51,0,0,0-2.33-.53c-.73.14-1.35.85-2,1.32a3.55,3.55,0,0,1,1.08-2.18,12.82,12.82,0,0,1,3.09-1Zm-11.42,4.4.18-2.1c-1.17,2.75.23,5.8,2.26,5.63l-1.76-1.59,3.31,1.07-2.64-1.82.22-.36c.92.89,2,1.39,3.07.54.5-.4,1-1.52.76-2a2.93,2.93,0,0,0-2-1.37c-1.23-.17-2,.64-2.36,1.9l.32-2.2-.25-.09Z"/><path class="cls-1" d="M303.94,116.94c.53-3,1-5.63,1.43-8.22a11.79,11.79,0,0,0,0-1.71l3.46-.47-6.63-.73-.9,8.64v-9.29l26.85.89c-.57,3.7-.11,7.52-1.64,11.11v-9.64h-7l1.28.16V108H305.93l-.38,7,5,1-.07.58Z"/><path class="cls-1" d="M350.43,77.38c3.13.18,5.88.24,8.6.51,2.29.23,3.58,1.87,4.35,3.84.7,1.79-.17,3.25-1.44,4.48a5.66,5.66,0,0,1-4.73,1.84c-3-.31-6.11-.51-9.17-.55-2.23,0-3-1.6-3.79-3.15a3.77,3.77,0,0,1,.52-4.53C346.37,78,348.33,77,350.43,77.38ZM356.6,83V80.07l-.27-.17L354.94,83c-.32-1.77.38-3.47,2.23-5-2.81,0-5.37-.16-7.89.05a5.27,5.27,0,0,0-4.11,2.81c-.93,1.63.53,5,2.22,5.1,2.87.11,5.74,0,8.61,0l-.29-.94c2.47,1.91,4.79,1.46,5.44-.89-2.26,1.68-4,1.19-4.59-1.27.22.29.4.77.68.85.74.21,1.67.53,2.26.25a2.42,2.42,0,0,0,.9-1.93c0-1.13-.92-1.66-2-1.6S356.57,81.47,356.6,83Z"/><path class="cls-1" d="M351,69a12.35,12.35,0,0,0-1.84-.57c-1.83-.3-3.68-.51-5.51-.78a1.61,1.61,0,0,1-1.09-.66l7.15-.34-3.7-9-1.79,7.73c-.68-9.31,2.12-18.06,3.84-27-.35,3.13-.7,6.26-1.06,9.39-.22,1.89-.53,3.77-.69,5.67-.23,2.74,1,5.05,2.42,7.26,1,1.68,2.07,3.28,2.12,5.35,0,.32.77.85,1.23.9,3.37.36,6.75.63,10.13.94a6.38,6.38,0,0,1,2.13.53c-4,0-8,0-11.93,0A4.88,4.88,0,0,0,351,69Z"/><path class="cls-1" d="M280.66,64.75l16.18-.56c1.38-9.54,1.73-19.41,2.33-29.57l-5.26-.31V34.2h5.74c0,.55,0,1,0,1.54-.29,8.64-.57,17.28-.9,25.92a12.15,12.15,0,0,1-1.9,6.56c-.11-.06-.23-.09-.24-.14-.42-2.09-.42-2.08-2.49-2.19l-12.95-.72a4.29,4.29,0,0,1-.52-.09Z"/><path class="cls-1" d="M362,63.08a12.39,12.39,0,0,1-7.68.82c-3.76-.61-5.58-2.75-6.11-6.54a24.25,24.25,0,0,1,1.53-11.88,2.45,2.45,0,0,1,.7-1c-.18,1.92-.39,3.83-.53,5.75s-.24,3.71-.25,5.57c0,5.3,2,7.46,7.34,7.63A49.26,49.26,0,0,0,362,63.08Z"/><path class="cls-1" d="M303.73,25.26c-.33,1.85-.55,3.5-.95,5.1a1.55,1.55,0,0,1-1.14.93c-3.72,0-7.44,0-11.16-.06a.78.78,0,0,1-.62-.37c1.66-.1,3.33-.18,5-.29s3.43-.25,5.15-.36,1.84-.2,1.87-2c0-.4,0-.81-.06-1l-9.22-1.48.06-.47Z"/><path class="cls-1" d="M319.1,116.49c-2-.45-2.44-2.26-3.43-3.67-.84,1.91-1.89,3.37-4.49,3,.14-1.67.19-3.37.46-5a1.92,1.92,0,0,1,2.12-1.62c1,0,2.05-.19,3.06-.09a22.26,22.26,0,0,1,3.05.74A11.31,11.31,0,0,1,319.1,116.49Zm-.83-1.67v-4.09c-4.81-1.42-5.86-.73-6.23,4,0,.08.06.17.13.35,2.12.26,2.59-1.6,3.58-3Z"/><path class="cls-1" d="M329.72,21.22c.92,2.08.57,2.69-1.59,2.87-2,.17-4,.42-5.95.56-1.58.11-2-.3-2-1.9,0-1.82.36-2.33,2-2.3,2,0,4.07.16,6.11.31a6.43,6.43,0,0,1,1.51.5c-2.34.28-4.68.61-7,.81-1,.08-1.37.32-1.07,1.37h6C329.8,23.44,329.8,23.44,329.72,21.22Z"/><path class="cls-1" d="M345.56,111l-.83,4.6a10.4,10.4,0,0,1-.56-5.82c0-.2.59-.47.89-.45,4.63.19,9.25.42,13.87,1Z"/><path class="cls-1" d="M327,64.66c-5.6.64-11.17,2.21-16.79.44C315.82,63.7,321.46,65,327,64.66Z"/><path class="cls-1" d="M346.89,35.41c4.6-1.51,9.14.08,13.71.34C356,35.89,351.43,37.08,346.89,35.41Z"/><path class="cls-1" d="M321.45,117.89c-.15-.36-.45-.74-.41-1.07.13-1,.44-2.07.6-3.11a13.14,13.14,0,0,0,0-1.81,1.59,1.59,0,0,1,.05-.67c.46-.88,1-1.74,1.63-3-.49,2.11.22,3.25,2.1,3.7l-2.1.43-1.2,5.5Z"/><path class="cls-1" d="M348.05,116c-3.5,2.43-8.25,4.78-10.86,4C340.59,117.52,344.6,117.47,348.05,116Z"/><path class="cls-1" d="M355.39,114.77l3.36-3.89.28,0a20.94,20.94,0,0,1-1.23,3.82C357.63,115,356.34,114.77,355.39,114.77Z"/><path class="cls-1" d="M477.73,68.8l-1.65-23.55C477.57,53.27,480.35,60.84,477.73,68.8Z"/><path class="cls-1" d="M444,43.36l.85,2V43l2.47.65h-2.2c.66,5,1.33,9.76,1.9,14.53.13,1.11.68,1.15,1.51,1s1.15-.86,1-1.78c-.52-4.13-1-8.28-1.5-12.41-.06-.46-.51-.88-.78-1.31.4.34,1.06.62,1.16,1,1,4.18,1.95,8.37,2.79,12.58.44,2.21-1.34,3.76-3.61,3.43a3.16,3.16,0,0,0-1.75.29A2.63,2.63,0,0,1,442,59c-.4-3.91-.86-7.81-1.28-11.71-.15-1.37-.27-2.75-.44-4.42l3.74.51H441a3.44,3.44,0,0,0,0,.64c.78,4.93,1.54,9.87,2.35,14.8.17,1,.92,1.12,1.9.84-.17-1.9-.37-3.77-.5-5.65C444.42,50.47,444.22,46.91,444,43.36Z"/><path class="cls-1" d="M458.19,44.73c1.57,0,3,0,4.36,0A1.31,1.31,0,0,1,464.05,46c.6,3.33,1.24,6.65,1.77,10,.31,1.95-.37,2.53-2.35,2.28a3.44,3.44,0,0,0-1.09,0c-2.12.44-2.41.39-2.75-1.69-.58-3.51-1-7.06-1.42-10.59A8.46,8.46,0,0,1,458.19,44.73Zm5.07.41h-1.84c.06.51.1.92.16,1.33q.57,4.12,1.16,8.24a4.22,4.22,0,0,0,.28,1.36,5.42,5.42,0,0,0,1,1.06Zm-4.62-.05a35.71,35.71,0,0,0,2.67,11.83c-1.43-3.87-.78-7.88-.75-11.83Z"/><path class="cls-1" d="M456,43.92a24.59,24.59,0,0,1,1.11,3.32c.52,2.78.93,5.59,1.33,8.39.19,1.32.12,2.6-.89,3.35-1-.33-1.9-.54-2.71-.89a1.38,1.38,0,0,1-.59-.87c-.86-3.43-1.59-6.87-1.1-10.44.12-.85,0-1.73.18-2.61l.42,5.7H454l.24-5.06.35.33,1.13-1.24c-.74,1.56-.28,3.07.11,4.58h.39Z"/><path class="cls-1" d="M422.15,62.25c-.18.29-.36.83-.55.83-2.5.06-5,0-7.7,0l-2.08-22.28c2.25.1,4.33.15,6.4.35.33,0,.76.74.84,1.18q.95,5.13,1.76,10.29c.5,3.2.91,6.41,1.36,9.62Zm-1.91-.58L418.45,41.5h-6L415,61.67Z"/><path class="cls-1" d="M422.18,62.29c-.33-3.5-.65-7-1-10.51s-.69-6.79-1.06-10.32c1.92.09,3.62.11,5.31.31.35,0,.82.72.89,1.16C427,47,427.55,51,428.07,55c.25,2,.31,4,.45,6-1.77.52-3.44,1-5.13,1.48a3.21,3.21,0,0,1-1.24-.22ZM420.72,42l2.8,19,3.28-1-1.07-18Z"/><path class="cls-1" d="M400.74,41.15c.33,2.84.6,5.69,1,8.52.44,3,1.14,5.92,1.52,8.91a35.35,35.35,0,0,1,.18,6.09c0,.55-.82,1.48-1.27,1.49a2.88,2.88,0,0,1-2.22-.94,8,8,0,0,1-.9-3.16c-.93-6.67-1.84-13.34-2.67-20a2.78,2.78,0,0,1,.58-2.21c.61-.45,1.66-.29,2.52-.39l0,.37s-.08.14-.13.14c-2.45,0-2.55.09-2,2.42a126.28,126.28,0,0,1,3.13,20.2,5.12,5.12,0,0,0,.39,1.75c.14.32.6.49.92.73a3.41,3.41,0,0,0,.57-1c.58-2.85-.17-5.61-.54-8.42-.52-3.91-.78-7.85-1.15-11.78-.09-.91-.18-1.82-.27-2.73Z"/><path class="cls-1" d="M347.34,83.24a3,3,0,0,1,1.79-4,3.24,3.24,0,0,1,4,1.62,3.19,3.19,0,0,1-5.33,3.44,1.57,1.57,0,0,1-.17-.51,9.46,9.46,0,0,0,2.69.75,1.83,1.83,0,0,0,1.82-1.92c0-1.12-.67-1.66-1.67-1.9C348.52,80.3,347.4,81.18,347.34,83.24Z"/></svg>